<?xml version="1.0" encoding="UTF-8" standalone="no"?>
<!DOCTYPE svg PUBLIC "-//W3C//DTD SVG 1.1//EN"
 "http://www.w3.org/Graphics/SVG/1.1/DTD/svg11.dtd">
<!-- Generated by graphviz version 8.0.4 (20230421.1958)
 -->
<!-- Title: com.ringcentral.video.LocalizationProvider Pages: 1 -->
<svg width="208pt" height="162pt"
 viewBox="0.00 0.00 207.75 161.50" xmlns="http://www.w3.org/2000/svg" xmlns:xlink="http://www.w3.org/1999/xlink">
<g id="graph0" class="graph" transform="scale(1 1) rotate(0) translate(4 157.5)">
<title>com.ringcentral.video.LocalizationProvider</title>
<!-- Node1 -->
<g id="node1" class="node">
<title>Node1</title>
<g id="a_node1"><a xlink:title=" ">
<polygon fill="#999999" stroke="#666666" points="0,-0.5 0,-58.25 199.75,-58.25 199.75,-0.5 0,-0.5"/>
<text text-anchor="middle" x="99.88" y="-44.75" font-family="Helvetica,sans-Serif" font-size="10.00">com.ringcentral.video.LocalizationProvider</text>
<polyline fill="none" stroke="#666666" points="0,-39 199.75,-39"/>
<text text-anchor="middle" x="99.88" y="-25.5" font-family="Helvetica,sans-Serif" font-size="10.00"> </text>
<polyline fill="none" stroke="#666666" points="0,-19.75 199.75,-19.75"/>
<text text-anchor="start" x="8" y="-6.25" font-family="Helvetica,sans-Serif" font-size="10.00">+ getLocaleString()</text>
</a>
</g>
</g>
<!-- Node2 -->
<g id="node2" class="node">
<title>Node2</title>
<g id="a_node2"><a xlink:title=" ">
<polygon fill="white" stroke="#666666" points="46.5,-95.25 46.5,-153 153.25,-153 153.25,-95.25 46.5,-95.25"/>
<text text-anchor="middle" x="99.88" y="-139.5" font-family="Helvetica,sans-Serif" font-size="10.00">ILocalizationProvider</text>
<polyline fill="none" stroke="#666666" points="46.5,-133.75 153.25,-133.75"/>
<text text-anchor="middle" x="99.88" y="-120.25" font-family="Helvetica,sans-Serif" font-size="10.00"> </text>
<polyline fill="none" stroke="#666666" points="46.5,-114.5 153.25,-114.5"/>
<text text-anchor="middle" x="99.88" y="-101" font-family="Helvetica,sans-Serif" font-size="10.00"> </text>
</a>
</g>
</g>
<!-- Node2&#45;&gt;Node1 -->
<g id="edge1" class="edge">
<title>Node2&#45;&gt;Node1</title>
<path fill="none" stroke="#63b8ff" d="M99.88,-84.44C99.88,-75.63 99.88,-66.44 99.88,-58.18"/>
<polygon fill="none" stroke="#63b8ff" points="96.38,-84.3 99.88,-94.3 103.38,-84.3 96.38,-84.3"/>
</g>
</g>
</svg>
