<?xml version="1.0" encoding="UTF-8" standalone="no"?>
<!DOCTYPE svg PUBLIC "-//W3C//DTD SVG 1.1//EN"
 "http://www.w3.org/Graphics/SVG/1.1/DTD/svg11.dtd">
<!-- Generated by graphviz version 8.1.0 (20230707.0739)
 -->
<!-- Title: com.ringcentral.video.RemoteVideoStats Pages: 1 -->
<svg width="196pt" height="207pt"
 viewBox="0.00 0.00 196.00 207.00" xmlns="http://www.w3.org/2000/svg" xmlns:xlink="http://www.w3.org/1999/xlink">
<g id="graph0" class="graph" transform="scale(1 1) rotate(0) translate(4 203)">
<title>com.ringcentral.video.RemoteVideoStats</title>
<!-- Node1 -->
<g id="Node000001" class="node">
<title>Node1</title>
<g id="a_Node000001"><a xlink:title=" ">
<polygon fill="#999999" stroke="none" points="188,-199 0,-199 0,0 188,0 188,-199"/>
<text text-anchor="start" x="4.75" y="-185.5" font-family="Helvetica,sans-Serif" font-size="10.00">com.ringcentral.video.RemoteVideoStats</text>
<text text-anchor="start" x="92.5" y="-170.5" font-family="Helvetica,sans-Serif" font-size="10.00"> </text>
<text text-anchor="start" x="22.5" y="-155.5" font-family="Helvetica,sans-Serif" font-size="10.00">+</text>
<text text-anchor="start" x="51" y="-155.5" font-family="Helvetica,sans-Serif" font-size="10.00">getParticipant()</text>
<text text-anchor="start" x="22.5" y="-140.5" font-family="Helvetica,sans-Serif" font-size="10.00">+</text>
<text text-anchor="start" x="51" y="-140.5" font-family="Helvetica,sans-Serif" font-size="10.00">getCodec()</text>
<text text-anchor="start" x="22.5" y="-125.5" font-family="Helvetica,sans-Serif" font-size="10.00">+</text>
<text text-anchor="start" x="51" y="-125.5" font-family="Helvetica,sans-Serif" font-size="10.00">getFirCount()</text>
<text text-anchor="start" x="22.5" y="-110.5" font-family="Helvetica,sans-Serif" font-size="10.00">+</text>
<text text-anchor="start" x="51" y="-110.5" font-family="Helvetica,sans-Serif" font-size="10.00">getPliCount()</text>
<text text-anchor="start" x="22.5" y="-95.5" font-family="Helvetica,sans-Serif" font-size="10.00">+</text>
<text text-anchor="start" x="51" y="-95.5" font-family="Helvetica,sans-Serif" font-size="10.00">getPacketsReceived()</text>
<text text-anchor="start" x="22.5" y="-80.5" font-family="Helvetica,sans-Serif" font-size="10.00">+</text>
<text text-anchor="start" x="51" y="-80.5" font-family="Helvetica,sans-Serif" font-size="10.00">getBytesReceived()</text>
<text text-anchor="start" x="22.5" y="-65.5" font-family="Helvetica,sans-Serif" font-size="10.00">+</text>
<text text-anchor="start" x="51" y="-65.5" font-family="Helvetica,sans-Serif" font-size="10.00">getPacketsLost()</text>
<text text-anchor="start" x="22.5" y="-50.5" font-family="Helvetica,sans-Serif" font-size="10.00">+</text>
<text text-anchor="start" x="51" y="-50.5" font-family="Helvetica,sans-Serif" font-size="10.00">getWidth()</text>
<text text-anchor="start" x="22.5" y="-35.5" font-family="Helvetica,sans-Serif" font-size="10.00">+</text>
<text text-anchor="start" x="51" y="-35.5" font-family="Helvetica,sans-Serif" font-size="10.00">getHeight()</text>
<text text-anchor="start" x="22.5" y="-20.5" font-family="Helvetica,sans-Serif" font-size="10.00">+</text>
<text text-anchor="start" x="51" y="-20.5" font-family="Helvetica,sans-Serif" font-size="10.00">getBitrate()</text>
<text text-anchor="start" x="22.5" y="-5.5" font-family="Helvetica,sans-Serif" font-size="10.00">+</text>
<text text-anchor="start" x="51" y="-5.5" font-family="Helvetica,sans-Serif" font-size="10.00">getFps()</text>
<polygon fill="#666666" stroke="#666666" points="0,-182 0,-182 188,-182 188,-182 0,-182"/>
<polygon fill="#666666" stroke="#666666" points="0,-167 0,-167 188,-167 188,-167 0,-167"/>
<polygon fill="none" stroke="#666666" points="0,0 0,-199 188,-199 188,0 0,0"/>
</a>
</g>
</g>
</g>
</svg>
