<?xml version="1.0" encoding="UTF-8" standalone="no"?>
<!DOCTYPE svg PUBLIC "-//W3C//DTD SVG 1.1//EN"
 "http://www.w3.org/Graphics/SVG/1.1/DTD/svg11.dtd">
<!-- Generated by graphviz version 2.30.1 (20201013.1554)
 -->
<!-- Title: com.ringcentral.video.RcvTextureViewRenderer Pages: 1 -->
<svg width="425pt" height="446pt"
 viewBox="0.00 0.00 425.00 446.00" xmlns="http://www.w3.org/2000/svg" xmlns:xlink="http://www.w3.org/1999/xlink">
<g id="graph0" class="graph" transform="scale(1 1) rotate(0) translate(4 442)">
<title>com.ringcentral.video.RcvTextureViewRenderer</title>
<polygon fill="white" stroke="white" points="-4,5 -4,-442 422,-442 422,5 -4,5"/>
<!-- Node1 -->
<g id="node1" class="node"><title>Node1</title>
<polygon fill="#bfbfbf" stroke="black" points="92.5,-0.5 92.5,-343.5 275.5,-343.5 275.5,-0.5 92.5,-0.5"/>
<text text-anchor="start" x="100.5" y="-331.5" font-family="Helvetica,sans-Serif" font-size="10.00">com.ringcentral.video.Rcv</text>
<text text-anchor="middle" x="184" y="-320.5" font-family="Helvetica,sans-Serif" font-size="10.00">TextureViewRenderer</text>
<polyline fill="none" stroke="black" points="92.5,-313.5 275.5,-313.5 "/>
<text text-anchor="middle" x="184" y="-301.5" font-family="Helvetica,sans-Serif" font-size="10.00"> </text>
<polyline fill="none" stroke="black" points="92.5,-294.5 275.5,-294.5 "/>
<text text-anchor="start" x="100.5" y="-282.5" font-family="Helvetica,sans-Serif" font-size="10.00">+ RcvTextureViewRenderer()</text>
<text text-anchor="start" x="100.5" y="-271.5" font-family="Helvetica,sans-Serif" font-size="10.00">+ RcvTextureViewRenderer()</text>
<text text-anchor="start" x="100.5" y="-260.5" font-family="Helvetica,sans-Serif" font-size="10.00">+ init()</text>
<text text-anchor="start" x="100.5" y="-249.5" font-family="Helvetica,sans-Serif" font-size="10.00">+ init()</text>
<text text-anchor="start" x="100.5" y="-238.5" font-family="Helvetica,sans-Serif" font-size="10.00">+ release()</text>
<text text-anchor="start" x="100.5" y="-227.5" font-family="Helvetica,sans-Serif" font-size="10.00">+ addFrameListener()</text>
<text text-anchor="start" x="100.5" y="-216.5" font-family="Helvetica,sans-Serif" font-size="10.00">+ addFrameListener()</text>
<text text-anchor="start" x="100.5" y="-205.5" font-family="Helvetica,sans-Serif" font-size="10.00">+ removeFrameListener()</text>
<text text-anchor="start" x="100.5" y="-194.5" font-family="Helvetica,sans-Serif" font-size="10.00">+ clearRendererEvents()</text>
<text text-anchor="start" x="100.5" y="-183.5" font-family="Helvetica,sans-Serif" font-size="10.00">+ setRendererEvents()</text>
<text text-anchor="start" x="100.5" y="-172.5" font-family="Helvetica,sans-Serif" font-size="10.00">+ setMirror()</text>
<text text-anchor="start" x="100.5" y="-161.5" font-family="Helvetica,sans-Serif" font-size="10.00">+ setRenderMode()</text>
<text text-anchor="start" x="100.5" y="-150.5" font-family="Helvetica,sans-Serif" font-size="10.00">+ setFpsReduction()</text>
<text text-anchor="start" x="100.5" y="-139.5" font-family="Helvetica,sans-Serif" font-size="10.00">+ disableFpsReduction()</text>
<text text-anchor="start" x="100.5" y="-128.5" font-family="Helvetica,sans-Serif" font-size="10.00">+ pauseVideo()</text>
<text text-anchor="start" x="100.5" y="-117.5" font-family="Helvetica,sans-Serif" font-size="10.00">+ onFrame()</text>
<text text-anchor="start" x="100.5" y="-106.5" font-family="Helvetica,sans-Serif" font-size="10.00">+ onSurfaceTextureAvailable()</text>
<text text-anchor="start" x="100.5" y="-95.5" font-family="Helvetica,sans-Serif" font-size="10.00">+ onSurfaceTextureSizeChanged()</text>
<text text-anchor="start" x="100.5" y="-84.5" font-family="Helvetica,sans-Serif" font-size="10.00">+ onSurfaceTextureDestroyed()</text>
<text text-anchor="start" x="100.5" y="-73.5" font-family="Helvetica,sans-Serif" font-size="10.00">+ onSurfaceTextureUpdated()</text>
<text text-anchor="start" x="100.5" y="-62.5" font-family="Helvetica,sans-Serif" font-size="10.00">+ clearImage()</text>
<text text-anchor="start" x="100.5" y="-51.5" font-family="Helvetica,sans-Serif" font-size="10.00">+ onFirstFrameRendered()</text>
<text text-anchor="start" x="100.5" y="-40.5" font-family="Helvetica,sans-Serif" font-size="10.00">+ onFrameResolutionChanged()</text>
<text text-anchor="start" x="100.5" y="-29.5" font-family="Helvetica,sans-Serif" font-size="10.00">+ postOrRun()</text>
<text text-anchor="start" x="100.5" y="-18.5" font-family="Helvetica,sans-Serif" font-size="10.00"># onMeasure()</text>
<text text-anchor="start" x="100.5" y="-7.5" font-family="Helvetica,sans-Serif" font-size="10.00"># onLayout()</text>
</g>
<!-- Node2 -->
<g id="node2" class="node"><title>Node2</title>
<polygon fill="white" stroke="#bfbfbf" points="-0.5,-380.5 -0.5,-437.5 76.5,-437.5 76.5,-380.5 -0.5,-380.5"/>
<text text-anchor="middle" x="38" y="-425.5" font-family="Helvetica,sans-Serif" font-size="10.00">TextureView</text>
<polyline fill="none" stroke="#bfbfbf" points="-0.5,-418.5 76.5,-418.5 "/>
<text text-anchor="middle" x="38" y="-406.5" font-family="Helvetica,sans-Serif" font-size="10.00"> </text>
<polyline fill="none" stroke="#bfbfbf" points="-0.5,-399.5 76.5,-399.5 "/>
<text text-anchor="middle" x="38" y="-387.5" font-family="Helvetica,sans-Serif" font-size="10.00"> </text>
</g>
<!-- Node2&#45;&gt;Node1 -->
<g id="edge1" class="edge"><title>Node2&#45;&gt;Node1</title>
<path fill="none" stroke="midnightblue" d="M60.6662,-371.517C69.6834,-357.003 80.6974,-339.275 92.3942,-320.448"/>
<polygon fill="none" stroke="midnightblue" points="57.6258,-369.778 55.3214,-380.12 63.5717,-373.472 57.6258,-369.778"/>
</g>
<!-- Node3 -->
<g id="node3" class="node"><title>Node3</title>
<polygon fill="white" stroke="#bfbfbf" points="94.5,-380.5 94.5,-437.5 159.5,-437.5 159.5,-380.5 94.5,-380.5"/>
<text text-anchor="middle" x="127" y="-425.5" font-family="Helvetica,sans-Serif" font-size="10.00">VideoSink</text>
<polyline fill="none" stroke="#bfbfbf" points="94.5,-418.5 159.5,-418.5 "/>
<text text-anchor="middle" x="127" y="-406.5" font-family="Helvetica,sans-Serif" font-size="10.00"> </text>
<polyline fill="none" stroke="#bfbfbf" points="94.5,-399.5 159.5,-399.5 "/>
<text text-anchor="middle" x="127" y="-387.5" font-family="Helvetica,sans-Serif" font-size="10.00"> </text>
</g>
<!-- Node3&#45;&gt;Node1 -->
<g id="edge2" class="edge"><title>Node3&#45;&gt;Node1</title>
<path fill="none" stroke="midnightblue" d="M136.17,-370.194C138.105,-362.215 140.265,-353.309 142.568,-343.814"/>
<polygon fill="none" stroke="midnightblue" points="132.718,-369.576 133.762,-380.12 139.521,-371.226 132.718,-369.576"/>
</g>
<!-- Node4 -->
<g id="node4" class="node"><title>Node4</title>
<polygon fill="white" stroke="#bfbfbf" points="178,-380.5 178,-437.5 306,-437.5 306,-380.5 178,-380.5"/>
<text text-anchor="middle" x="242" y="-425.5" font-family="Helvetica,sans-Serif" font-size="10.00">SurfaceTextureListener</text>
<polyline fill="none" stroke="#bfbfbf" points="178,-418.5 306,-418.5 "/>
<text text-anchor="middle" x="242" y="-406.5" font-family="Helvetica,sans-Serif" font-size="10.00"> </text>
<polyline fill="none" stroke="#bfbfbf" points="178,-399.5 306,-399.5 "/>
<text text-anchor="middle" x="242" y="-387.5" font-family="Helvetica,sans-Serif" font-size="10.00"> </text>
</g>
<!-- Node4&#45;&gt;Node1 -->
<g id="edge3" class="edge"><title>Node4&#45;&gt;Node1</title>
<path fill="none" stroke="midnightblue" d="M232.669,-370.194C230.7,-362.215 228.502,-353.309 226.158,-343.814"/>
<polygon fill="none" stroke="midnightblue" points="229.325,-371.25 235.119,-380.12 236.121,-369.572 229.325,-371.25"/>
</g>
<!-- Node5 -->
<g id="node5" class="node"><title>Node5</title>
<polygon fill="white" stroke="#bfbfbf" points="324.5,-380.5 324.5,-437.5 417.5,-437.5 417.5,-380.5 324.5,-380.5"/>
<text text-anchor="middle" x="371" y="-425.5" font-family="Helvetica,sans-Serif" font-size="10.00">RendererEvents</text>
<polyline fill="none" stroke="#bfbfbf" points="324.5,-418.5 417.5,-418.5 "/>
<text text-anchor="middle" x="371" y="-406.5" font-family="Helvetica,sans-Serif" font-size="10.00"> </text>
<polyline fill="none" stroke="#bfbfbf" points="324.5,-399.5 417.5,-399.5 "/>
<text text-anchor="middle" x="371" y="-387.5" font-family="Helvetica,sans-Serif" font-size="10.00"> </text>
</g>
<!-- Node5&#45;&gt;Node1 -->
<g id="edge4" class="edge"><title>Node5&#45;&gt;Node1</title>
<path fill="none" stroke="midnightblue" d="M342.452,-372.125C324.364,-349.393 299.865,-318.606 275.543,-288.041"/>
<polygon fill="none" stroke="midnightblue" points="339.849,-374.474 348.814,-380.12 345.326,-370.115 339.849,-374.474"/>
</g>
</g>
</svg>
