<?xml version="1.0" encoding="UTF-8" standalone="no"?>
<!DOCTYPE svg PUBLIC "-//W3C//DTD SVG 1.1//EN"
 "http://www.w3.org/Graphics/SVG/1.1/DTD/svg11.dtd">
<!-- Generated by graphviz version 8.0.5 (20230430.1635)
 -->
<!-- Title: com.ringcentral.video.RcvTextureViewRenderer Pages: 1 -->
<!--zoomable 517 -->

<svg id="main" version="1.1" xmlns="http://www.w3.org/2000/svg" xmlns:xlink="http://www.w3.org/1999/xlink" xml:space="preserve" onload="init(evt)">
<style type="text/css"><![CDATA[
.node, .edge {opacity: 0.7;}
.node.selected, .edge.selected {opacity: 1;}
.edge:hover path { stroke: red; }
.edge:hover polygon { stroke: red; fill: red; }
]]></style>

<defs>
  <circle id="rim" cx="0" cy="0" r="7"/>
  <circle id="rim2" cx="0" cy="0" r="3.5"/>
  <g id="zoomPlus">
    <use xlink:href="#rim" fill="#404040"><set attributeName="fill" to="#808080" begin="zoomplus.mouseover" end="zoomplus.mouseout"/></use>
    <path d="M-4,0h8M0,-4v8" fill="none" stroke="white" stroke-width="1.5" pointer-events="none"/>
  </g>
  <g id="zoomMin">
    <use xlink:href="#rim" fill="#404040"><set attributeName="fill" to="#808080" begin="zoomminus.mouseover" end="zoomminus.mouseout"/></use>
    <path d="M-4,0h8" fill="none" stroke="white" stroke-width="1.5" pointer-events="none"/>
  </g>
  <g id="arrowUp" transform="translate(30 24)">
    <use xlink:href="#rim"/>
    <path pointer-events="none" fill="none" stroke="white" stroke-width="1.5" d="M0,-3.0v7 M-2.5,-0.5L0,-3.0L2.5,-0.5"/>
  </g>
  <g id="arrowRight" transform="rotate(90) translate(36 -43)">
    <use xlink:href="#rim"/>
    <path pointer-events="none" fill="none" stroke="white" stroke-width="1.5" d="M0,-3.0v7 M-2.5,-0.5L0,-3.0L2.5,-0.5"/>
  </g>
  <g id="arrowDown" transform="rotate(180) translate(-30 -48)">
    <use xlink:href="#rim"/>
    <path pointer-events="none" fill="none" stroke="white" stroke-width="1.5" d="M0,-3.0v7 M-2.5,-0.5L0,-3.0L2.5,-0.5"/>
  </g>
  <g id="arrowLeft" transform="rotate(270) translate(-36 17)">
    <use xlink:href="#rim"/>
    <path pointer-events="none" fill="none" stroke="white" stroke-width="1.5" d="M0,-3.0v7 M-2.5,-0.5L0,-3.0L2.5,-0.5"/>
  </g>
  <g id="resetDef">
    <use xlink:href="#rim2" fill="#404040"><set attributeName="fill" to="#808080" begin="reset.mouseover" end="reset.mouseout"/></use>
  </g>
</defs>
<script type="application/ecmascript">
var viewWidth = 370;
var viewHeight = 517;
var sectionId = 'dynsection-1';
</script>
<script type="application/ecmascript" xlink:href="svg.min.js"/>
<svg id="graph" class="graph">
<g id="viewport">
<title>com.ringcentral.video.RcvTextureViewRenderer</title>
<!-- Node1 -->
<g id="Node000001" class="node">
<title>Node1</title>
<g id="a_Node000001"><a xlink:title=" ">
<polygon fill="#999999" stroke="none" points="267.5,-424 50.5,-424 50.5,0 267.5,0 267.5,-424"/>
<text text-anchor="start" x="55.12" y="-410.5" font-family="Helvetica,sans-Serif" font-size="10.00">com.ringcentral.video.RcvTextureViewRenderer</text>
<text text-anchor="start" x="157.5" y="-395.5" font-family="Helvetica,sans-Serif" font-size="10.00"> </text>
<text text-anchor="start" x="69" y="-380.5" font-family="Helvetica,sans-Serif" font-size="10.00">+</text>
<text text-anchor="start" x="93.5" y="-380.5" font-family="Helvetica,sans-Serif" font-size="10.00">RcvTextureViewRenderer()</text>
<text text-anchor="start" x="69" y="-365.5" font-family="Helvetica,sans-Serif" font-size="10.00">+</text>
<text text-anchor="start" x="93.5" y="-365.5" font-family="Helvetica,sans-Serif" font-size="10.00">RcvTextureViewRenderer()</text>
<text text-anchor="start" x="69" y="-350.5" font-family="Helvetica,sans-Serif" font-size="10.00">+</text>
<text text-anchor="start" x="93.5" y="-350.5" font-family="Helvetica,sans-Serif" font-size="10.00">init()</text>
<text text-anchor="start" x="69" y="-335.5" font-family="Helvetica,sans-Serif" font-size="10.00">+</text>
<text text-anchor="start" x="93.5" y="-335.5" font-family="Helvetica,sans-Serif" font-size="10.00">init()</text>
<text text-anchor="start" x="69" y="-320.5" font-family="Helvetica,sans-Serif" font-size="10.00">+</text>
<text text-anchor="start" x="93.5" y="-320.5" font-family="Helvetica,sans-Serif" font-size="10.00">release()</text>
<text text-anchor="start" x="69" y="-305.5" font-family="Helvetica,sans-Serif" font-size="10.00">+</text>
<text text-anchor="start" x="93.5" y="-305.5" font-family="Helvetica,sans-Serif" font-size="10.00">addFrameListener()</text>
<text text-anchor="start" x="69" y="-290.5" font-family="Helvetica,sans-Serif" font-size="10.00">+</text>
<text text-anchor="start" x="93.5" y="-290.5" font-family="Helvetica,sans-Serif" font-size="10.00">addFrameListener()</text>
<text text-anchor="start" x="69" y="-275.5" font-family="Helvetica,sans-Serif" font-size="10.00">+</text>
<text text-anchor="start" x="93.5" y="-275.5" font-family="Helvetica,sans-Serif" font-size="10.00">removeFrameListener()</text>
<text text-anchor="start" x="69" y="-260.5" font-family="Helvetica,sans-Serif" font-size="10.00">+</text>
<text text-anchor="start" x="93.5" y="-260.5" font-family="Helvetica,sans-Serif" font-size="10.00">clearRendererEvents()</text>
<text text-anchor="start" x="69" y="-245.5" font-family="Helvetica,sans-Serif" font-size="10.00">+</text>
<text text-anchor="start" x="93.5" y="-245.5" font-family="Helvetica,sans-Serif" font-size="10.00">setRendererEvents()</text>
<text text-anchor="start" x="69" y="-230.5" font-family="Helvetica,sans-Serif" font-size="10.00">+</text>
<text text-anchor="start" x="93.5" y="-230.5" font-family="Helvetica,sans-Serif" font-size="10.00">setMirror()</text>
<text text-anchor="start" x="69" y="-215.5" font-family="Helvetica,sans-Serif" font-size="10.00">+</text>
<text text-anchor="start" x="93.5" y="-215.5" font-family="Helvetica,sans-Serif" font-size="10.00">setRenderMode()</text>
<text text-anchor="start" x="69" y="-200.5" font-family="Helvetica,sans-Serif" font-size="10.00">+</text>
<text text-anchor="start" x="93.5" y="-200.5" font-family="Helvetica,sans-Serif" font-size="10.00">setFpsReduction()</text>
<text text-anchor="start" x="69" y="-185.5" font-family="Helvetica,sans-Serif" font-size="10.00">+</text>
<text text-anchor="start" x="93.5" y="-185.5" font-family="Helvetica,sans-Serif" font-size="10.00">disableFpsReduction()</text>
<text text-anchor="start" x="69" y="-170.5" font-family="Helvetica,sans-Serif" font-size="10.00">+</text>
<text text-anchor="start" x="93.5" y="-170.5" font-family="Helvetica,sans-Serif" font-size="10.00">pauseVideo()</text>
<text text-anchor="start" x="69" y="-155.5" font-family="Helvetica,sans-Serif" font-size="10.00">+</text>
<text text-anchor="start" x="93.5" y="-155.5" font-family="Helvetica,sans-Serif" font-size="10.00">onFrame()</text>
<text text-anchor="start" x="69" y="-140.5" font-family="Helvetica,sans-Serif" font-size="10.00">+</text>
<text text-anchor="start" x="93.5" y="-140.5" font-family="Helvetica,sans-Serif" font-size="10.00">onSurfaceTextureAvailable()</text>
<text text-anchor="start" x="69" y="-125.5" font-family="Helvetica,sans-Serif" font-size="10.00">+</text>
<text text-anchor="start" x="93.5" y="-125.5" font-family="Helvetica,sans-Serif" font-size="10.00">onSurfaceTextureSizeChanged()</text>
<text text-anchor="start" x="69" y="-110.5" font-family="Helvetica,sans-Serif" font-size="10.00">+</text>
<text text-anchor="start" x="93.5" y="-110.5" font-family="Helvetica,sans-Serif" font-size="10.00">onSurfaceTextureDestroyed()</text>
<text text-anchor="start" x="69" y="-95.5" font-family="Helvetica,sans-Serif" font-size="10.00">+</text>
<text text-anchor="start" x="93.5" y="-95.5" font-family="Helvetica,sans-Serif" font-size="10.00">onSurfaceTextureUpdated()</text>
<text text-anchor="start" x="69" y="-80.5" font-family="Helvetica,sans-Serif" font-size="10.00">+</text>
<text text-anchor="start" x="93.5" y="-80.5" font-family="Helvetica,sans-Serif" font-size="10.00">clearImage()</text>
<text text-anchor="start" x="69" y="-65.5" font-family="Helvetica,sans-Serif" font-size="10.00">+</text>
<text text-anchor="start" x="93.5" y="-65.5" font-family="Helvetica,sans-Serif" font-size="10.00">onFirstFrameRendered()</text>
<text text-anchor="start" x="69" y="-50.5" font-family="Helvetica,sans-Serif" font-size="10.00">+</text>
<text text-anchor="start" x="93.5" y="-50.5" font-family="Helvetica,sans-Serif" font-size="10.00">onFrameResolutionChanged()</text>
<text text-anchor="start" x="69" y="-35.5" font-family="Helvetica,sans-Serif" font-size="10.00">+</text>
<text text-anchor="start" x="93.5" y="-35.5" font-family="Helvetica,sans-Serif" font-size="10.00">postOrRun()</text>
<text text-anchor="start" x="69.38" y="-20.5" font-family="Helvetica,sans-Serif" font-size="10.00">#</text>
<text text-anchor="start" x="93.5" y="-20.5" font-family="Helvetica,sans-Serif" font-size="10.00">onMeasure()</text>
<text text-anchor="start" x="69.38" y="-5.5" font-family="Helvetica,sans-Serif" font-size="10.00">#</text>
<text text-anchor="start" x="93.5" y="-5.5" font-family="Helvetica,sans-Serif" font-size="10.00">onLayout()</text>
<polygon fill="#666666" stroke="#666666" points="50.5,-407 50.5,-407 267.5,-407 267.5,-407 50.5,-407"/>
<polygon fill="#666666" stroke="#666666" points="50.5,-392 50.5,-392 267.5,-392 267.5,-392 50.5,-392"/>
<polygon fill="none" stroke="#666666" points="50.5,0 50.5,-424 267.5,-424 267.5,0 50.5,0"/>
</a>
</g>
</g>
<!-- Node2 -->
<g id="Node000002" class="node">
<title>Node2</title>
<g id="a_Node000002"><a xlink:title=" ">
<polygon fill="white" stroke="none" points="64,-509 0,-509 0,-460 64,-460 64,-509"/>
<text text-anchor="start" x="5" y="-495.5" font-family="Helvetica,sans-Serif" font-size="10.00">TextureView</text>
<text text-anchor="start" x="30.5" y="-480.5" font-family="Helvetica,sans-Serif" font-size="10.00"> </text>
<text text-anchor="start" x="30.5" y="-465.5" font-family="Helvetica,sans-Serif" font-size="10.00"> </text>
<polygon fill="#666666" stroke="#666666" points="0,-492 0,-492 64,-492 64,-492 0,-492"/>
<polygon fill="#666666" stroke="#666666" points="0,-477 0,-477 64,-477 64,-477 0,-477"/>
<polygon fill="none" stroke="#666666" points="0,-460 0,-509 64,-509 64,-460 0,-460"/>
</a>
</g>
</g>
<!-- Node2&#45;&gt;Node1 -->
<g id="edge1_Node000001_Node000002" class="edge">
<title>Node2&#45;&gt;Node1</title>
<g id="a_edge1_Node000001_Node000002"><a xlink:title=" ">
<path fill="none" stroke="#63b8ff" d="M47.41,-450.67C51.15,-442.72 55.41,-433.63 60.05,-423.75"/>
<polygon fill="none" stroke="#63b8ff" points="43.91,-448.9 42.83,-459.44 50.25,-451.87 43.91,-448.9"/>
</a>
</g>
</g>
<!-- Node3 -->
<g id="Node000003" class="node">
<title>Node3</title>
<g id="a_Node000003"><a xlink:title=" ">
<polygon fill="white" stroke="none" points="136,-509 82,-509 82,-460 136,-460 136,-509"/>
<text text-anchor="start" x="86.88" y="-495.5" font-family="Helvetica,sans-Serif" font-size="10.00">VideoSink</text>
<text text-anchor="start" x="107.5" y="-480.5" font-family="Helvetica,sans-Serif" font-size="10.00"> </text>
<text text-anchor="start" x="107.5" y="-465.5" font-family="Helvetica,sans-Serif" font-size="10.00"> </text>
<polygon fill="#666666" stroke="#666666" points="82,-492 82,-492 136,-492 136,-492 82,-492"/>
<polygon fill="#666666" stroke="#666666" points="82,-477 82,-477 136,-477 136,-477 82,-477"/>
<polygon fill="none" stroke="#666666" points="82,-460 82,-509 136,-509 136,-460 82,-460"/>
</a>
</g>
</g>
<!-- Node3&#45;&gt;Node1 -->
<g id="edge2_Node000001_Node000003" class="edge">
<title>Node3&#45;&gt;Node1</title>
<g id="a_edge2_Node000001_Node000003"><a xlink:title=" ">
<path fill="none" stroke="#63b8ff" d="M115.22,-449.86C116.65,-442.11 118.28,-433.3 120.04,-423.75"/>
<polygon fill="none" stroke="#63b8ff" points="111.64,-448.97 113.26,-459.44 118.52,-450.24 111.64,-448.97"/>
</a>
</g>
</g>
<!-- Node4 -->
<g id="Node000004" class="node">
<title>Node4</title>
<g id="a_Node000004"><a xlink:title=" ">
<polygon fill="white" stroke="none" points="264,-509 154,-509 154,-460 264,-460 264,-509"/>
<text text-anchor="start" x="158.75" y="-495.5" font-family="Helvetica,sans-Serif" font-size="10.00">SurfaceTextureListener</text>
<text text-anchor="start" x="207.5" y="-480.5" font-family="Helvetica,sans-Serif" font-size="10.00"> </text>
<text text-anchor="start" x="207.5" y="-465.5" font-family="Helvetica,sans-Serif" font-size="10.00"> </text>
<polygon fill="#666666" stroke="#666666" points="154,-492 154,-492 264,-492 264,-492 154,-492"/>
<polygon fill="#666666" stroke="#666666" points="154,-477 154,-477 264,-477 264,-477 154,-477"/>
<polygon fill="none" stroke="#666666" points="154,-460 154,-509 264,-509 264,-460 154,-460"/>
</a>
</g>
</g>
<!-- Node4&#45;&gt;Node1 -->
<g id="edge3_Node000001_Node000004" class="edge">
<title>Node4&#45;&gt;Node1</title>
<g id="a_edge3_Node000001_Node000004"><a xlink:title=" ">
<path fill="none" stroke="#63b8ff" d="M202.78,-449.86C201.35,-442.11 199.72,-433.3 197.96,-423.75"/>
<polygon fill="none" stroke="#63b8ff" points="199.48,-450.24 204.74,-459.44 206.36,-448.97 199.48,-450.24"/>
</a>
</g>
</g>
<!-- Node5 -->
<g id="Node000005" class="node">
<title>Node5</title>
<g id="a_Node000005"><a xlink:title=" ">
<polygon fill="white" stroke="none" points="362,-509 282,-509 282,-460 362,-460 362,-509"/>
<text text-anchor="start" x="286.75" y="-495.5" font-family="Helvetica,sans-Serif" font-size="10.00">RendererEvents</text>
<text text-anchor="start" x="320.5" y="-480.5" font-family="Helvetica,sans-Serif" font-size="10.00"> </text>
<text text-anchor="start" x="320.5" y="-465.5" font-family="Helvetica,sans-Serif" font-size="10.00"> </text>
<polygon fill="#666666" stroke="#666666" points="282,-492 282,-492 362,-492 362,-492 282,-492"/>
<polygon fill="#666666" stroke="#666666" points="282,-477 282,-477 362,-477 362,-477 282,-477"/>
<polygon fill="none" stroke="#666666" points="282,-460 282,-509 362,-509 362,-460 282,-460"/>
</a>
</g>
</g>
<!-- Node5&#45;&gt;Node1 -->
<g id="edge4_Node000001_Node000005" class="edge">
<title>Node5&#45;&gt;Node1</title>
<g id="a_edge4_Node000001_Node000005"><a xlink:title=" ">
<path fill="none" stroke="#63b8ff" d="M302.56,-451.23C293.05,-435.46 280.78,-415.1 267.43,-392.95"/>
<polygon fill="none" stroke="#63b8ff" points="299.94,-452.68 308.1,-459.44 305.94,-449.07 299.94,-452.68"/>
</a>
</g>
</g>
</g>
</svg>

<g id="navigator" transform="translate(0 0)" fill="#404254">
  <rect fill="#f2f5e9" fill-opacity="0.5" stroke="#606060" stroke-width=".5" x="0" y="0" width="60" height="60"/>
  <use id="zoomplus" xlink:href="#zoomPlus" x="17" y="9" onmousedown="handleZoom(evt,'in')"/>
  <use id="zoomminus" xlink:href="#zoomMin" x="42" y="9" onmousedown="handleZoom(evt,'out')"/>
  <use id="reset" xlink:href="#resetDef" x="30" y="36" onmousedown="handleReset()"/>
   <use id="arrowup" xlink:href="#arrowUp" x="0" y="0" onmousedown="handlePan(0,-1)"/>
  <use id="arrowright" xlink:href="#arrowRight" x="0" y="0" onmousedown="handlePan(1,0)"/>
  <use id="arrowdown" xlink:href="#arrowDown" x="0" y="0" onmousedown="handlePan(0,1)"/>
  <use id="arrowleft" xlink:href="#arrowLeft" x="0" y="0" onmousedown="handlePan(-1,0)"/>
</g>
<svg viewBox="0 0 15 15" width="100%" height="30px" preserveAspectRatio="xMaxYMin meet">
 <g id="arrow_out" transform="scale(0.3 0.3)">
  <a xlink:href="classcom_1_1ringcentral_1_1video_1_1_rcv_texture_view_renderer__coll__graph_org.svg" target="_base">
   <rect id="button" ry="5" rx="5" y="6" x="6" height="38" width="38"
        fill="#f2f5e9" fill-opacity="0.5" stroke="#606060" stroke-width="1.0"/>
   <path id="arrow"
     d="M 11.500037,31.436501 C 11.940474,20.09759 22.043105,11.32322 32.158766,21.979434 L 37.068811,17.246167 C 37.068811,17.246167 37.088388,32 37.088388,32 L 22.160133,31.978069 C 22.160133,31.978069 26.997745,27.140456 26.997745,27.140456 C 18.528582,18.264221 13.291696,25.230495 11.500037,31.436501 z"
     style="fill:#404040;"/>
  </a>
 </g>
</svg>

<style type='text/css'>
<![CDATA[
[data-mouse-over-selected='false'] { opacity: 0.7; }
[data-mouse-over-selected='true']  { opacity: 1.0; }
]]>
</style>
<script type="application/ecmascript"><![CDATA[
document.addEventListener('DOMContentLoaded', (event) => {
  highlightEdges();
  highlightAdjacentNodes();
});
]]></script>
</svg>
