<?xml version="1.0" encoding="UTF-8" standalone="no"?>
<!DOCTYPE svg PUBLIC "-//W3C//DTD SVG 1.1//EN"
 "http://www.w3.org/Graphics/SVG/1.1/DTD/svg11.dtd">
<!-- Generated by graphviz version 2.30.1 (20201013.1554)
 -->
<!-- Title: com.ringcentral.video.LocalVideoStats Pages: 1 -->
<svg width="160pt" height="382pt"
 viewBox="0.00 0.00 160.00 382.00" xmlns="http://www.w3.org/2000/svg" xmlns:xlink="http://www.w3.org/1999/xlink">
<g id="graph0" class="graph" transform="scale(1 1) rotate(0) translate(4 378)">
<title>com.ringcentral.video.LocalVideoStats</title>
<polygon fill="white" stroke="white" points="-4,5 -4,-378 157,-378 157,5 -4,5"/>
<!-- Node1 -->
<g id="node1" class="node"><title>Node1</title>
<polygon fill="#bfbfbf" stroke="black" points="0,-217 0,-373 152,-373 152,-217 0,-217"/>
<text text-anchor="start" x="8" y="-361" font-family="Helvetica,sans-Serif" font-size="10.00">com.ringcentral.video.Local</text>
<text text-anchor="middle" x="76" y="-350" font-family="Helvetica,sans-Serif" font-size="10.00">VideoStats</text>
<polyline fill="none" stroke="black" points="0,-343 152,-343 "/>
<text text-anchor="middle" x="76" y="-331" font-family="Helvetica,sans-Serif" font-size="10.00"> </text>
<polyline fill="none" stroke="black" points="0,-324 152,-324 "/>
<text text-anchor="start" x="8" y="-312" font-family="Helvetica,sans-Serif" font-size="10.00">+ getCodec()</text>
<text text-anchor="start" x="8" y="-301" font-family="Helvetica,sans-Serif" font-size="10.00">+ getClockRate()</text>
<text text-anchor="start" x="8" y="-290" font-family="Helvetica,sans-Serif" font-size="10.00">+ getFirCount()</text>
<text text-anchor="start" x="8" y="-279" font-family="Helvetica,sans-Serif" font-size="10.00">+ getPliCount()</text>
<text text-anchor="start" x="8" y="-268" font-family="Helvetica,sans-Serif" font-size="10.00">+ getPacketsSent()</text>
<text text-anchor="start" x="8" y="-257" font-family="Helvetica,sans-Serif" font-size="10.00">+ getBytesSent()</text>
<text text-anchor="start" x="8" y="-246" font-family="Helvetica,sans-Serif" font-size="10.00">+ getPacketsLost()</text>
<text text-anchor="start" x="8" y="-235" font-family="Helvetica,sans-Serif" font-size="10.00">+ getWidth()</text>
<text text-anchor="start" x="8" y="-224" font-family="Helvetica,sans-Serif" font-size="10.00">+ getHeight()</text>
</g>
<!-- Node2 -->
<g id="node2" class="node"><title>Node2</title>
<polygon fill="white" stroke="#bfbfbf" points="0,-1 0,-179 152,-179 152,-1 0,-1"/>
<text text-anchor="start" x="8" y="-167" font-family="Helvetica,sans-Serif" font-size="10.00">com.ringcentral.video.Local</text>
<text text-anchor="middle" x="76" y="-156" font-family="Helvetica,sans-Serif" font-size="10.00">VideoStats.CppProxy</text>
<polyline fill="none" stroke="#bfbfbf" points="0,-149 152,-149 "/>
<text text-anchor="middle" x="76" y="-137" font-family="Helvetica,sans-Serif" font-size="10.00"> </text>
<polyline fill="none" stroke="#bfbfbf" points="0,-130 152,-130 "/>
<text text-anchor="start" x="8" y="-118" font-family="Helvetica,sans-Serif" font-size="10.00">+ _djinni_private_destroy()</text>
<text text-anchor="start" x="8" y="-107" font-family="Helvetica,sans-Serif" font-size="10.00">+ getCodec()</text>
<text text-anchor="start" x="8" y="-96" font-family="Helvetica,sans-Serif" font-size="10.00">+ getClockRate()</text>
<text text-anchor="start" x="8" y="-85" font-family="Helvetica,sans-Serif" font-size="10.00">+ getFirCount()</text>
<text text-anchor="start" x="8" y="-74" font-family="Helvetica,sans-Serif" font-size="10.00">+ getPliCount()</text>
<text text-anchor="start" x="8" y="-63" font-family="Helvetica,sans-Serif" font-size="10.00">+ getPacketsSent()</text>
<text text-anchor="start" x="8" y="-52" font-family="Helvetica,sans-Serif" font-size="10.00">+ getBytesSent()</text>
<text text-anchor="start" x="8" y="-41" font-family="Helvetica,sans-Serif" font-size="10.00">+ getPacketsLost()</text>
<text text-anchor="start" x="8" y="-30" font-family="Helvetica,sans-Serif" font-size="10.00">+ getWidth()</text>
<text text-anchor="start" x="8" y="-19" font-family="Helvetica,sans-Serif" font-size="10.00">+ getHeight()</text>
<text text-anchor="start" x="8" y="-8" font-family="Helvetica,sans-Serif" font-size="10.00"># finalize()</text>
</g>
<!-- Node1&#45;&gt;Node2 -->
<g id="edge1" class="edge"><title>Node1&#45;&gt;Node2</title>
<path fill="none" stroke="midnightblue" d="M76,-206.745C76,-197.62 76,-188.338 76,-179.203"/>
<polygon fill="none" stroke="midnightblue" points="72.5001,-206.965 76,-216.965 79.5001,-206.965 72.5001,-206.965"/>
</g>
</g>
</svg>
