<?xml version="1.0" encoding="UTF-8" standalone="no"?>
<!DOCTYPE svg PUBLIC "-//W3C//DTD SVG 1.1//EN"
 "http://www.w3.org/Graphics/SVG/1.1/DTD/svg11.dtd">
<!-- Generated by graphviz version 8.0.5 (20230430.1635)
 -->
<!-- Title: com.ringcentral.video.VideoDeviceManager Pages: 1 -->
<svg width="207pt" height="147pt"
 viewBox="0.00 0.00 207.00 147.00" xmlns="http://www.w3.org/2000/svg" xmlns:xlink="http://www.w3.org/1999/xlink">
<g id="graph0" class="graph" transform="scale(1 1) rotate(0) translate(4 143)">
<title>com.ringcentral.video.VideoDeviceManager</title>
<!-- Node1 -->
<g id="Node000001" class="node">
<title>Node1</title>
<g id="a_Node000001"><a xlink:title=" ">
<polygon fill="#999999" stroke="none" points="199,-139 0,-139 0,0 199,0 199,-139"/>
<text text-anchor="start" x="5" y="-125.5" font-family="Helvetica,sans-Serif" font-size="10.00">com.ringcentral.video.VideoDeviceManager</text>
<text text-anchor="start" x="98" y="-110.5" font-family="Helvetica,sans-Serif" font-size="10.00"> </text>
<text text-anchor="start" x="22" y="-95.5" font-family="Helvetica,sans-Serif" font-size="10.00">+</text>
<text text-anchor="start" x="50" y="-95.5" font-family="Helvetica,sans-Serif" font-size="10.00">registerEventHandler()</text>
<text text-anchor="start" x="22" y="-80.5" font-family="Helvetica,sans-Serif" font-size="10.00">+</text>
<text text-anchor="start" x="50" y="-80.5" font-family="Helvetica,sans-Serif" font-size="10.00">unregisterEventHandler()</text>
<text text-anchor="start" x="22" y="-65.5" font-family="Helvetica,sans-Serif" font-size="10.00">+</text>
<text text-anchor="start" x="50" y="-65.5" font-family="Helvetica,sans-Serif" font-size="10.00">enumerateDevices()</text>
<text text-anchor="start" x="22" y="-50.5" font-family="Helvetica,sans-Serif" font-size="10.00">+</text>
<text text-anchor="start" x="50" y="-50.5" font-family="Helvetica,sans-Serif" font-size="10.00">setDevice()</text>
<text text-anchor="start" x="22" y="-35.5" font-family="Helvetica,sans-Serif" font-size="10.00">+</text>
<text text-anchor="start" x="50" y="-35.5" font-family="Helvetica,sans-Serif" font-size="10.00">getDevice()</text>
<text text-anchor="start" x="22" y="-20.5" font-family="Helvetica,sans-Serif" font-size="10.00">+</text>
<text text-anchor="start" x="50" y="-20.5" font-family="Helvetica,sans-Serif" font-size="10.00">startDeviceTest()</text>
<text text-anchor="start" x="22" y="-5.5" font-family="Helvetica,sans-Serif" font-size="10.00">+</text>
<text text-anchor="start" x="50" y="-5.5" font-family="Helvetica,sans-Serif" font-size="10.00">stopDeviceTest()</text>
<polygon fill="#666666" stroke="#666666" points="0,-122 0,-122 199,-122 199,-122 0,-122"/>
<polygon fill="#666666" stroke="#666666" points="0,-107 0,-107 199,-107 199,-107 0,-107"/>
<polygon fill="none" stroke="#666666" points="0,0 0,-139 199,-139 199,0 0,0"/>
</a>
</g>
</g>
</g>
</svg>
