<?xml version="1.0" encoding="UTF-8" standalone="no"?>
<!DOCTYPE svg PUBLIC "-//W3C//DTD SVG 1.1//EN"
 "http://www.w3.org/Graphics/SVG/1.1/DTD/svg11.dtd">
<!-- Generated by graphviz version 2.30.1 (20201013.1554)
 -->
<!-- Title: com.ringcentral.video.RcvVideoCanvas Pages: 1 -->
<svg width="356pt" height="568pt"
 viewBox="0.00 0.00 356.00 568.00" xmlns="http://www.w3.org/2000/svg" xmlns:xlink="http://www.w3.org/1999/xlink">
<g id="graph0" class="graph" transform="scale(1 1) rotate(0) translate(4 564)">
<title>com.ringcentral.video.RcvVideoCanvas</title>
<polygon fill="white" stroke="white" points="-4,5 -4,-564 353,-564 353,5 -4,5"/>
<!-- Node1 -->
<g id="node1" class="node"><title>Node1</title>
<polygon fill="#bfbfbf" stroke="black" points="133.5,-1 133.5,-377 304.5,-377 304.5,-1 133.5,-1"/>
<text text-anchor="start" x="141.5" y="-365" font-family="Helvetica,sans-Serif" font-size="10.00">com.ringcentral.video.Rcv</text>
<text text-anchor="middle" x="219" y="-354" font-family="Helvetica,sans-Serif" font-size="10.00">VideoCanvas</text>
<polyline fill="none" stroke="black" points="133.5,-347 304.5,-347 "/>
<text text-anchor="middle" x="219" y="-335" font-family="Helvetica,sans-Serif" font-size="10.00"> </text>
<polyline fill="none" stroke="black" points="133.5,-328 304.5,-328 "/>
<text text-anchor="start" x="141.5" y="-316" font-family="Helvetica,sans-Serif" font-size="10.00">+ createVideoTypeMap()</text>
<text text-anchor="start" x="141.5" y="-305" font-family="Helvetica,sans-Serif" font-size="10.00">+ RcvVideoCanvas()</text>
<text text-anchor="start" x="141.5" y="-294" font-family="Helvetica,sans-Serif" font-size="10.00">+ RcvVideoCanvas()</text>
<text text-anchor="start" x="141.5" y="-283" font-family="Helvetica,sans-Serif" font-size="10.00">+ RcvVideoCanvas()</text>
<text text-anchor="start" x="141.5" y="-272" font-family="Helvetica,sans-Serif" font-size="10.00">+ RcvVideoCanvas()</text>
<text text-anchor="start" x="141.5" y="-261" font-family="Helvetica,sans-Serif" font-size="10.00">+ initCanvas()</text>
<text text-anchor="start" x="141.5" y="-250" font-family="Helvetica,sans-Serif" font-size="10.00">+ setFrameResolutionChange</text>
<text text-anchor="start" x="141.5" y="-239" font-family="Helvetica,sans-Serif" font-size="10.00">Listener()</text>
<text text-anchor="start" x="141.5" y="-228" font-family="Helvetica,sans-Serif" font-size="10.00">+ attachView()</text>
<text text-anchor="start" x="141.5" y="-217" font-family="Helvetica,sans-Serif" font-size="10.00">+ detachView()</text>
<text text-anchor="start" x="141.5" y="-206" font-family="Helvetica,sans-Serif" font-size="10.00">+ getView()</text>
<text text-anchor="start" x="141.5" y="-195" font-family="Helvetica,sans-Serif" font-size="10.00">+ setUid()</text>
<text text-anchor="start" x="141.5" y="-184" font-family="Helvetica,sans-Serif" font-size="10.00">+ getUid()</text>
<text text-anchor="start" x="141.5" y="-173" font-family="Helvetica,sans-Serif" font-size="10.00">+ setRenderMode()</text>
<text text-anchor="start" x="141.5" y="-162" font-family="Helvetica,sans-Serif" font-size="10.00">+ getRenderMode()</text>
<text text-anchor="start" x="141.5" y="-151" font-family="Helvetica,sans-Serif" font-size="10.00">+ setMirrorMode()</text>
<text text-anchor="start" x="141.5" y="-140" font-family="Helvetica,sans-Serif" font-size="10.00">+ isMirrorMode()</text>
<text text-anchor="start" x="141.5" y="-129" font-family="Helvetica,sans-Serif" font-size="10.00">+ attach()</text>
<text text-anchor="start" x="141.5" y="-118" font-family="Helvetica,sans-Serif" font-size="10.00">+ attachTrack()</text>
<text text-anchor="start" x="141.5" y="-107" font-family="Helvetica,sans-Serif" font-size="10.00">+ detach()</text>
<text text-anchor="start" x="141.5" y="-96" font-family="Helvetica,sans-Serif" font-size="10.00">+ detachTrack()</text>
<text text-anchor="start" x="141.5" y="-85" font-family="Helvetica,sans-Serif" font-size="10.00">+ onFirstFrameRendered()</text>
<text text-anchor="start" x="141.5" y="-74" font-family="Helvetica,sans-Serif" font-size="10.00">+ onFrameResolutionChanged()</text>
<text text-anchor="start" x="141.5" y="-63" font-family="Helvetica,sans-Serif" font-size="10.00">+ onFrame()</text>
<text text-anchor="start" x="141.5" y="-52" font-family="Helvetica,sans-Serif" font-size="10.00">~ setup()</text>
<text text-anchor="start" x="141.5" y="-41" font-family="Helvetica,sans-Serif" font-size="10.00">~ attachRenderer()</text>
<text text-anchor="start" x="141.5" y="-30" font-family="Helvetica,sans-Serif" font-size="10.00">~ detachRenderer()</text>
<text text-anchor="start" x="141.5" y="-19" font-family="Helvetica,sans-Serif" font-size="10.00">~ updateRenderMode()</text>
<text text-anchor="start" x="141.5" y="-8" font-family="Helvetica,sans-Serif" font-size="10.00"># finalize()</text>
</g>
<!-- Node2 -->
<g id="node2" class="node"><title>Node2</title>
<g id="a_node2"><a xlink:href="classcom_1_1ringcentral_1_1video_1_1VideoCanvas.html" target="_top" xlink:title="{com.ringcentral.video.Video\lCanvas\n||+ setUid()\l+ getUid()\l+ setRenderMode()\l+ getRenderMode()\l+ setMirrorMode()\l+ isMirrorMode()\l+ attachTrack()\l+ detachTrack()\l}">
<polygon fill="white" stroke="black" points="0,-414.5 0,-559.5 154,-559.5 154,-414.5 0,-414.5"/>
<text text-anchor="start" x="8" y="-547.5" font-family="Helvetica,sans-Serif" font-size="10.00">com.ringcentral.video.Video</text>
<text text-anchor="middle" x="77" y="-536.5" font-family="Helvetica,sans-Serif" font-size="10.00">Canvas</text>
<polyline fill="none" stroke="black" points="0,-529.5 154,-529.5 "/>
<text text-anchor="middle" x="77" y="-517.5" font-family="Helvetica,sans-Serif" font-size="10.00"> </text>
<polyline fill="none" stroke="black" points="0,-510.5 154,-510.5 "/>
<text text-anchor="start" x="8" y="-498.5" font-family="Helvetica,sans-Serif" font-size="10.00">+ setUid()</text>
<text text-anchor="start" x="8" y="-487.5" font-family="Helvetica,sans-Serif" font-size="10.00">+ getUid()</text>
<text text-anchor="start" x="8" y="-476.5" font-family="Helvetica,sans-Serif" font-size="10.00">+ setRenderMode()</text>
<text text-anchor="start" x="8" y="-465.5" font-family="Helvetica,sans-Serif" font-size="10.00">+ getRenderMode()</text>
<text text-anchor="start" x="8" y="-454.5" font-family="Helvetica,sans-Serif" font-size="10.00">+ setMirrorMode()</text>
<text text-anchor="start" x="8" y="-443.5" font-family="Helvetica,sans-Serif" font-size="10.00">+ isMirrorMode()</text>
<text text-anchor="start" x="8" y="-432.5" font-family="Helvetica,sans-Serif" font-size="10.00">+ attachTrack()</text>
<text text-anchor="start" x="8" y="-421.5" font-family="Helvetica,sans-Serif" font-size="10.00">+ detachTrack()</text>
</a>
</g>
</g>
<!-- Node2&#45;&gt;Node1 -->
<g id="edge1" class="edge"><title>Node2&#45;&gt;Node1</title>
<path fill="none" stroke="midnightblue" d="M115.791,-405.139C121.395,-393.459 127.337,-381.071 133.43,-368.372"/>
<polygon fill="none" stroke="midnightblue" points="112.544,-403.817 111.374,-414.347 118.855,-406.844 112.544,-403.817"/>
</g>
<!-- Node3 -->
<g id="node3" class="node"><title>Node3</title>
<polygon fill="white" stroke="#bfbfbf" points="172.5,-458.5 172.5,-515.5 265.5,-515.5 265.5,-458.5 172.5,-458.5"/>
<text text-anchor="middle" x="219" y="-503.5" font-family="Helvetica,sans-Serif" font-size="10.00">RendererEvents</text>
<polyline fill="none" stroke="#bfbfbf" points="172.5,-496.5 265.5,-496.5 "/>
<text text-anchor="middle" x="219" y="-484.5" font-family="Helvetica,sans-Serif" font-size="10.00"> </text>
<polyline fill="none" stroke="#bfbfbf" points="172.5,-477.5 265.5,-477.5 "/>
<text text-anchor="middle" x="219" y="-465.5" font-family="Helvetica,sans-Serif" font-size="10.00"> </text>
</g>
<!-- Node3&#45;&gt;Node1 -->
<g id="edge2" class="edge"><title>Node3&#45;&gt;Node1</title>
<path fill="none" stroke="midnightblue" d="M219,-448.322C219,-429.031 219,-403.957 219,-377.026"/>
<polygon fill="none" stroke="midnightblue" points="215.5,-448.419 219,-458.419 222.5,-448.419 215.5,-448.419"/>
</g>
<!-- Node4 -->
<g id="node4" class="node"><title>Node4</title>
<polygon fill="white" stroke="#bfbfbf" points="283.5,-458.5 283.5,-515.5 348.5,-515.5 348.5,-458.5 283.5,-458.5"/>
<text text-anchor="middle" x="316" y="-503.5" font-family="Helvetica,sans-Serif" font-size="10.00">VideoSink</text>
<polyline fill="none" stroke="#bfbfbf" points="283.5,-496.5 348.5,-496.5 "/>
<text text-anchor="middle" x="316" y="-484.5" font-family="Helvetica,sans-Serif" font-size="10.00"> </text>
<polyline fill="none" stroke="#bfbfbf" points="283.5,-477.5 348.5,-477.5 "/>
<text text-anchor="middle" x="316" y="-465.5" font-family="Helvetica,sans-Serif" font-size="10.00"> </text>
</g>
<!-- Node4&#45;&gt;Node1 -->
<g id="edge3" class="edge"><title>Node4&#45;&gt;Node1</title>
<path fill="none" stroke="midnightblue" d="M303.828,-448.856C297.483,-429.495 289.196,-404.206 280.289,-377.026"/>
<polygon fill="none" stroke="midnightblue" points="300.521,-450.006 306.962,-458.419 307.173,-447.826 300.521,-450.006"/>
</g>
</g>
</svg>
