<?xml version="1.0" encoding="UTF-8" standalone="no"?>
<!DOCTYPE svg PUBLIC "-//W3C//DTD SVG 1.1//EN"
 "http://www.w3.org/Graphics/SVG/1.1/DTD/svg11.dtd">
<!-- Generated by graphviz version 2.30.1 (20201013.1554)
 -->
<!-- Title: com.ringcentral.video.MeetingContextController Pages: 1 -->
<svg width="198pt" height="250pt"
 viewBox="0.00 0.00 198.00 250.00" xmlns="http://www.w3.org/2000/svg" xmlns:xlink="http://www.w3.org/1999/xlink">
<g id="graph0" class="graph" transform="scale(1 1) rotate(0) translate(4 246)">
<title>com.ringcentral.video.MeetingContextController</title>
<polygon fill="white" stroke="white" points="-4,5 -4,-246 195,-246 195,5 -4,5"/>
<!-- Node1 -->
<g id="node1" class="node"><title>Node1</title>
<polygon fill="#bfbfbf" stroke="black" points="0,-151 0,-241 190,-241 190,-151 0,-151"/>
<text text-anchor="start" x="8" y="-229" font-family="Helvetica,sans-Serif" font-size="10.00">com.ringcentral.video.Meeting</text>
<text text-anchor="middle" x="95" y="-218" font-family="Helvetica,sans-Serif" font-size="10.00">ContextController</text>
<polyline fill="none" stroke="black" points="0,-211 190,-211 "/>
<text text-anchor="middle" x="95" y="-199" font-family="Helvetica,sans-Serif" font-size="10.00"> </text>
<polyline fill="none" stroke="black" points="0,-192 190,-192 "/>
<text text-anchor="start" x="8" y="-180" font-family="Helvetica,sans-Serif" font-size="10.00">+ updatePersonalMeetingSettings()</text>
<text text-anchor="start" x="8" y="-169" font-family="Helvetica,sans-Serif" font-size="10.00">+ loadPersonalMeetingSettings()</text>
<text text-anchor="start" x="8" y="-158" font-family="Helvetica,sans-Serif" font-size="10.00">+ scheduleMeeting()</text>
</g>
<!-- Node2 -->
<g id="node2" class="node"><title>Node2</title>
<polygon fill="white" stroke="#bfbfbf" points="0,-1 0,-113 190,-113 190,-1 0,-1"/>
<text text-anchor="start" x="8" y="-101" font-family="Helvetica,sans-Serif" font-size="10.00">com.ringcentral.video.Meeting</text>
<text text-anchor="middle" x="95" y="-90" font-family="Helvetica,sans-Serif" font-size="10.00">ContextController.CppProxy</text>
<polyline fill="none" stroke="#bfbfbf" points="0,-83 190,-83 "/>
<text text-anchor="middle" x="95" y="-71" font-family="Helvetica,sans-Serif" font-size="10.00"> </text>
<polyline fill="none" stroke="#bfbfbf" points="0,-64 190,-64 "/>
<text text-anchor="start" x="8" y="-52" font-family="Helvetica,sans-Serif" font-size="10.00">+ _djinni_private_destroy()</text>
<text text-anchor="start" x="8" y="-41" font-family="Helvetica,sans-Serif" font-size="10.00">+ updatePersonalMeetingSettings()</text>
<text text-anchor="start" x="8" y="-30" font-family="Helvetica,sans-Serif" font-size="10.00">+ loadPersonalMeetingSettings()</text>
<text text-anchor="start" x="8" y="-19" font-family="Helvetica,sans-Serif" font-size="10.00">+ scheduleMeeting()</text>
<text text-anchor="start" x="8" y="-8" font-family="Helvetica,sans-Serif" font-size="10.00"># finalize()</text>
</g>
<!-- Node1&#45;&gt;Node2 -->
<g id="edge1" class="edge"><title>Node1&#45;&gt;Node2</title>
<path fill="none" stroke="midnightblue" d="M95,-140.793C95,-131.678 95,-122.209 95,-113.072"/>
<polygon fill="none" stroke="midnightblue" points="91.5001,-140.898 95,-150.898 98.5001,-140.898 91.5001,-140.898"/>
</g>
</g>
</svg>
