<?xml version="1.0" encoding="UTF-8" standalone="no"?>
<!DOCTYPE svg PUBLIC "-//W3C//DTD SVG 1.1//EN"
 "http://www.w3.org/Graphics/SVG/1.1/DTD/svg11.dtd">
<!-- Generated by graphviz version 8.0.5 (20230430.1635)
 -->
<!-- Title: com.ringcentral.video.LocalVideoStats Pages: 1 -->
<svg width="185pt" height="177pt"
 viewBox="0.00 0.00 185.00 177.00" xmlns="http://www.w3.org/2000/svg" xmlns:xlink="http://www.w3.org/1999/xlink">
<g id="graph0" class="graph" transform="scale(1 1) rotate(0) translate(4 173)">
<title>com.ringcentral.video.LocalVideoStats</title>
<!-- Node1 -->
<g id="Node000001" class="node">
<title>Node1</title>
<g id="a_Node000001"><a xlink:title=" ">
<polygon fill="#999999" stroke="none" points="177,-169 0,-169 0,0 177,0 177,-169"/>
<text text-anchor="start" x="4.88" y="-155.5" font-family="Helvetica,sans-Serif" font-size="10.00">com.ringcentral.video.LocalVideoStats</text>
<text text-anchor="start" x="87" y="-140.5" font-family="Helvetica,sans-Serif" font-size="10.00"> </text>
<text text-anchor="start" x="25" y="-125.5" font-family="Helvetica,sans-Serif" font-size="10.00">+</text>
<text text-anchor="start" x="56" y="-125.5" font-family="Helvetica,sans-Serif" font-size="10.00">getCodec()</text>
<text text-anchor="start" x="25" y="-110.5" font-family="Helvetica,sans-Serif" font-size="10.00">+</text>
<text text-anchor="start" x="56" y="-110.5" font-family="Helvetica,sans-Serif" font-size="10.00">getClockRate()</text>
<text text-anchor="start" x="25" y="-95.5" font-family="Helvetica,sans-Serif" font-size="10.00">+</text>
<text text-anchor="start" x="56" y="-95.5" font-family="Helvetica,sans-Serif" font-size="10.00">getFirCount()</text>
<text text-anchor="start" x="25" y="-80.5" font-family="Helvetica,sans-Serif" font-size="10.00">+</text>
<text text-anchor="start" x="56" y="-80.5" font-family="Helvetica,sans-Serif" font-size="10.00">getPliCount()</text>
<text text-anchor="start" x="25" y="-65.5" font-family="Helvetica,sans-Serif" font-size="10.00">+</text>
<text text-anchor="start" x="56" y="-65.5" font-family="Helvetica,sans-Serif" font-size="10.00">getPacketsSent()</text>
<text text-anchor="start" x="25" y="-50.5" font-family="Helvetica,sans-Serif" font-size="10.00">+</text>
<text text-anchor="start" x="56" y="-50.5" font-family="Helvetica,sans-Serif" font-size="10.00">getBytesSent()</text>
<text text-anchor="start" x="25" y="-35.5" font-family="Helvetica,sans-Serif" font-size="10.00">+</text>
<text text-anchor="start" x="56" y="-35.5" font-family="Helvetica,sans-Serif" font-size="10.00">getPacketsLost()</text>
<text text-anchor="start" x="25" y="-20.5" font-family="Helvetica,sans-Serif" font-size="10.00">+</text>
<text text-anchor="start" x="56" y="-20.5" font-family="Helvetica,sans-Serif" font-size="10.00">getWidth()</text>
<text text-anchor="start" x="25" y="-5.5" font-family="Helvetica,sans-Serif" font-size="10.00">+</text>
<text text-anchor="start" x="56" y="-5.5" font-family="Helvetica,sans-Serif" font-size="10.00">getHeight()</text>
<polygon fill="#666666" stroke="#666666" points="0,-152 0,-152 177,-152 177,-152 0,-152"/>
<polygon fill="#666666" stroke="#666666" points="0,-137 0,-137 177,-137 177,-137 0,-137"/>
<polygon fill="none" stroke="#666666" points="0,0 0,-169 177,-169 177,0 0,0"/>
</a>
</g>
</g>
</g>
</svg>
