<?xml version="1.0" encoding="UTF-8" standalone="no"?>
<!DOCTYPE svg PUBLIC "-//W3C//DTD SVG 1.1//EN"
 "http://www.w3.org/Graphics/SVG/1.1/DTD/svg11.dtd">
<!-- Generated by graphviz version 8.1.0 (20230707.0739)
 -->
<!-- Title: com.ringcentral.video.RcvVideoCanvas Pages: 1 -->
<svg width="342pt" height="652pt"
 viewBox="0.00 0.00 342.00 652.00" xmlns="http://www.w3.org/2000/svg" xmlns:xlink="http://www.w3.org/1999/xlink">
<g id="graph0" class="graph" transform="scale(1 1) rotate(0) translate(4 648)">
<title>com.ringcentral.video.RcvVideoCanvas</title>
<!-- Node1 -->
<g id="Node000001" class="node">
<title>Node1</title>
<g id="a_Node000001"><a xlink:title=" ">
<polygon fill="#999999" stroke="none" points="313,-454 131,-454 131,0 313,0 313,-454"/>
<text text-anchor="start" x="135.75" y="-440.5" font-family="Helvetica,sans-Serif" font-size="10.00">com.ringcentral.video.RcvVideoCanvas</text>
<text text-anchor="start" x="220.5" y="-425.5" font-family="Helvetica,sans-Serif" font-size="10.00"> </text>
<text text-anchor="start" x="135.5" y="-410.5" font-family="Helvetica,sans-Serif" font-size="10.00">+</text>
<text text-anchor="start" x="146" y="-410.5" font-family="Helvetica,sans-Serif" font-size="10.00">createVideoTypeMap()</text>
<text text-anchor="start" x="135.5" y="-395.5" font-family="Helvetica,sans-Serif" font-size="10.00">+</text>
<text text-anchor="start" x="146" y="-395.5" font-family="Helvetica,sans-Serif" font-size="10.00">RcvVideoCanvas()</text>
<text text-anchor="start" x="135.5" y="-380.5" font-family="Helvetica,sans-Serif" font-size="10.00">+</text>
<text text-anchor="start" x="146" y="-380.5" font-family="Helvetica,sans-Serif" font-size="10.00">RcvVideoCanvas()</text>
<text text-anchor="start" x="135.5" y="-365.5" font-family="Helvetica,sans-Serif" font-size="10.00">+</text>
<text text-anchor="start" x="146" y="-365.5" font-family="Helvetica,sans-Serif" font-size="10.00">RcvVideoCanvas()</text>
<text text-anchor="start" x="135.5" y="-350.5" font-family="Helvetica,sans-Serif" font-size="10.00">+</text>
<text text-anchor="start" x="146" y="-350.5" font-family="Helvetica,sans-Serif" font-size="10.00">RcvVideoCanvas()</text>
<text text-anchor="start" x="135.5" y="-335.5" font-family="Helvetica,sans-Serif" font-size="10.00">+</text>
<text text-anchor="start" x="146" y="-335.5" font-family="Helvetica,sans-Serif" font-size="10.00">initCanvas()</text>
<text text-anchor="start" x="135.5" y="-320.5" font-family="Helvetica,sans-Serif" font-size="10.00">+</text>
<text text-anchor="start" x="146" y="-320.5" font-family="Helvetica,sans-Serif" font-size="10.00">setFrameResolutionChangeListener()</text>
<text text-anchor="start" x="135.5" y="-305.5" font-family="Helvetica,sans-Serif" font-size="10.00">+</text>
<text text-anchor="start" x="146" y="-305.5" font-family="Helvetica,sans-Serif" font-size="10.00">attachView()</text>
<text text-anchor="start" x="135.5" y="-290.5" font-family="Helvetica,sans-Serif" font-size="10.00">+</text>
<text text-anchor="start" x="146" y="-290.5" font-family="Helvetica,sans-Serif" font-size="10.00">detachView()</text>
<text text-anchor="start" x="135.5" y="-275.5" font-family="Helvetica,sans-Serif" font-size="10.00">+</text>
<text text-anchor="start" x="146" y="-275.5" font-family="Helvetica,sans-Serif" font-size="10.00">getView()</text>
<text text-anchor="start" x="135.5" y="-260.5" font-family="Helvetica,sans-Serif" font-size="10.00">+</text>
<text text-anchor="start" x="146" y="-260.5" font-family="Helvetica,sans-Serif" font-size="10.00">setUid()</text>
<text text-anchor="start" x="135.5" y="-245.5" font-family="Helvetica,sans-Serif" font-size="10.00">+</text>
<text text-anchor="start" x="146" y="-245.5" font-family="Helvetica,sans-Serif" font-size="10.00">getUid()</text>
<text text-anchor="start" x="135.5" y="-230.5" font-family="Helvetica,sans-Serif" font-size="10.00">+</text>
<text text-anchor="start" x="146" y="-230.5" font-family="Helvetica,sans-Serif" font-size="10.00">setRenderMode()</text>
<text text-anchor="start" x="135.5" y="-215.5" font-family="Helvetica,sans-Serif" font-size="10.00">+</text>
<text text-anchor="start" x="146" y="-215.5" font-family="Helvetica,sans-Serif" font-size="10.00">getRenderMode()</text>
<text text-anchor="start" x="135.5" y="-200.5" font-family="Helvetica,sans-Serif" font-size="10.00">+</text>
<text text-anchor="start" x="146" y="-200.5" font-family="Helvetica,sans-Serif" font-size="10.00">setMirrorMode()</text>
<text text-anchor="start" x="135.5" y="-185.5" font-family="Helvetica,sans-Serif" font-size="10.00">+</text>
<text text-anchor="start" x="146" y="-185.5" font-family="Helvetica,sans-Serif" font-size="10.00">isMirrorMode()</text>
<text text-anchor="start" x="135.5" y="-170.5" font-family="Helvetica,sans-Serif" font-size="10.00">+</text>
<text text-anchor="start" x="146" y="-170.5" font-family="Helvetica,sans-Serif" font-size="10.00">attach()</text>
<text text-anchor="start" x="135.5" y="-155.5" font-family="Helvetica,sans-Serif" font-size="10.00">+</text>
<text text-anchor="start" x="146" y="-155.5" font-family="Helvetica,sans-Serif" font-size="10.00">attachTrack()</text>
<text text-anchor="start" x="135.5" y="-140.5" font-family="Helvetica,sans-Serif" font-size="10.00">+</text>
<text text-anchor="start" x="146" y="-140.5" font-family="Helvetica,sans-Serif" font-size="10.00">detach()</text>
<text text-anchor="start" x="135.5" y="-125.5" font-family="Helvetica,sans-Serif" font-size="10.00">+</text>
<text text-anchor="start" x="146" y="-125.5" font-family="Helvetica,sans-Serif" font-size="10.00">detachTrack()</text>
<text text-anchor="start" x="135.5" y="-110.5" font-family="Helvetica,sans-Serif" font-size="10.00">+</text>
<text text-anchor="start" x="146" y="-110.5" font-family="Helvetica,sans-Serif" font-size="10.00">onFirstFrameRendered()</text>
<text text-anchor="start" x="135.5" y="-95.5" font-family="Helvetica,sans-Serif" font-size="10.00">+</text>
<text text-anchor="start" x="146" y="-95.5" font-family="Helvetica,sans-Serif" font-size="10.00">onFrameResolutionChanged()</text>
<text text-anchor="start" x="135.5" y="-80.5" font-family="Helvetica,sans-Serif" font-size="10.00">+</text>
<text text-anchor="start" x="146" y="-80.5" font-family="Helvetica,sans-Serif" font-size="10.00">onFrame()</text>
<text text-anchor="start" x="135.5" y="-65.5" font-family="Helvetica,sans-Serif" font-size="10.00">~</text>
<text text-anchor="start" x="146" y="-65.5" font-family="Helvetica,sans-Serif" font-size="10.00">setup()</text>
<text text-anchor="start" x="135.5" y="-50.5" font-family="Helvetica,sans-Serif" font-size="10.00">~</text>
<text text-anchor="start" x="146" y="-50.5" font-family="Helvetica,sans-Serif" font-size="10.00">attachRenderer()</text>
<text text-anchor="start" x="135.5" y="-35.5" font-family="Helvetica,sans-Serif" font-size="10.00">~</text>
<text text-anchor="start" x="146" y="-35.5" font-family="Helvetica,sans-Serif" font-size="10.00">detachRenderer()</text>
<text text-anchor="start" x="135.5" y="-20.5" font-family="Helvetica,sans-Serif" font-size="10.00">~</text>
<text text-anchor="start" x="146" y="-20.5" font-family="Helvetica,sans-Serif" font-size="10.00">updateRenderMode()</text>
<text text-anchor="start" x="135.88" y="-5.5" font-family="Helvetica,sans-Serif" font-size="10.00">#</text>
<text text-anchor="start" x="146" y="-5.5" font-family="Helvetica,sans-Serif" font-size="10.00">finalize()</text>
<polygon fill="#666666" stroke="#666666" points="131,-437 131,-437 313,-437 313,-437 131,-437"/>
<polygon fill="#666666" stroke="#666666" points="131,-422 131,-422 313,-422 313,-422 131,-422"/>
<polygon fill="none" stroke="#666666" points="131,0 131,-454 313,-454 313,0 131,0"/>
</a>
</g>
</g>
<!-- Node2 -->
<g id="Node000002" class="node">
<title>Node2</title>
<g id="a_Node000002"><a xlink:href="classcom_1_1ringcentral_1_1video_1_1_video_canvas.html" target="_top" xlink:title=" ">
<polygon fill="white" stroke="none" points="164,-644 0,-644 0,-490 164,-490 164,-644"/>
<text text-anchor="start" x="4.75" y="-630.5" font-family="Helvetica,sans-Serif" font-size="10.00">com.ringcentral.video.VideoCanvas</text>
<text text-anchor="start" x="80.5" y="-615.5" font-family="Helvetica,sans-Serif" font-size="10.00"> </text>
<text text-anchor="start" x="21.5" y="-600.5" font-family="Helvetica,sans-Serif" font-size="10.00">+</text>
<text text-anchor="start" x="49" y="-600.5" font-family="Helvetica,sans-Serif" font-size="10.00">setUid()</text>
<text text-anchor="start" x="21.5" y="-585.5" font-family="Helvetica,sans-Serif" font-size="10.00">+</text>
<text text-anchor="start" x="49" y="-585.5" font-family="Helvetica,sans-Serif" font-size="10.00">getUid()</text>
<text text-anchor="start" x="21.5" y="-570.5" font-family="Helvetica,sans-Serif" font-size="10.00">+</text>
<text text-anchor="start" x="49" y="-570.5" font-family="Helvetica,sans-Serif" font-size="10.00">setRenderMode()</text>
<text text-anchor="start" x="21.5" y="-555.5" font-family="Helvetica,sans-Serif" font-size="10.00">+</text>
<text text-anchor="start" x="49" y="-555.5" font-family="Helvetica,sans-Serif" font-size="10.00">getRenderMode()</text>
<text text-anchor="start" x="21.5" y="-540.5" font-family="Helvetica,sans-Serif" font-size="10.00">+</text>
<text text-anchor="start" x="49" y="-540.5" font-family="Helvetica,sans-Serif" font-size="10.00">setMirrorMode()</text>
<text text-anchor="start" x="21.5" y="-525.5" font-family="Helvetica,sans-Serif" font-size="10.00">+</text>
<text text-anchor="start" x="49" y="-525.5" font-family="Helvetica,sans-Serif" font-size="10.00">isMirrorMode()</text>
<text text-anchor="start" x="21.5" y="-510.5" font-family="Helvetica,sans-Serif" font-size="10.00">+</text>
<text text-anchor="start" x="49" y="-510.5" font-family="Helvetica,sans-Serif" font-size="10.00">attachTrack()</text>
<text text-anchor="start" x="21.5" y="-495.5" font-family="Helvetica,sans-Serif" font-size="10.00">+</text>
<text text-anchor="start" x="49" y="-495.5" font-family="Helvetica,sans-Serif" font-size="10.00">detachTrack()</text>
<polygon fill="#666666" stroke="#666666" points="0,-627 0,-627 164,-627 164,-627 0,-627"/>
<polygon fill="#666666" stroke="#666666" points="0,-612 0,-612 164,-612 164,-612 0,-612"/>
<polygon fill="none" stroke="#666666" points="0,-490 0,-644 164,-644 164,-490 0,-490"/>
</a>
</g>
</g>
<!-- Node2&#45;&gt;Node1 -->
<g id="edge1_Node000001_Node000002" class="edge">
<title>Node2&#45;&gt;Node1</title>
<g id="a_edge1_Node000001_Node000002"><a xlink:title=" ">
<path fill="none" stroke="#63b8ff" d="M117.61,-480.02C121.89,-469.7 126.39,-458.84 131.02,-447.64"/>
<polygon fill="none" stroke="#63b8ff" points="114.01,-478.57 113.42,-489.15 120.48,-481.25 114.01,-478.57"/>
</a>
</g>
</g>
<!-- Node3 -->
<g id="Node000003" class="node">
<title>Node3</title>
<g id="a_Node000003"><a xlink:title=" ">
<polygon fill="white" stroke="none" points="262,-591.5 182,-591.5 182,-542.5 262,-542.5 262,-591.5"/>
<text text-anchor="start" x="186.75" y="-578" font-family="Helvetica,sans-Serif" font-size="10.00">RendererEvents</text>
<text text-anchor="start" x="220.5" y="-563" font-family="Helvetica,sans-Serif" font-size="10.00"> </text>
<text text-anchor="start" x="220.5" y="-548" font-family="Helvetica,sans-Serif" font-size="10.00"> </text>
<polygon fill="#666666" stroke="#666666" points="182,-574.5 182,-574.5 262,-574.5 262,-574.5 182,-574.5"/>
<polygon fill="#666666" stroke="#666666" points="182,-559.5 182,-559.5 262,-559.5 262,-559.5 182,-559.5"/>
<polygon fill="none" stroke="#666666" points="182,-542.5 182,-591.5 262,-591.5 262,-542.5 182,-542.5"/>
</a>
</g>
</g>
<!-- Node3&#45;&gt;Node1 -->
<g id="edge2_Node000001_Node000003" class="edge">
<title>Node3&#45;&gt;Node1</title>
<g id="a_edge2_Node000001_Node000003"><a xlink:title=" ">
<path fill="none" stroke="#63b8ff" d="M222,-531.51C222,-511.37 222,-484.04 222,-453.99"/>
<polygon fill="none" stroke="#63b8ff" points="218.5,-531.5 222,-541.5 225.5,-531.5 218.5,-531.5"/>
</a>
</g>
</g>
<!-- Node4 -->
<g id="Node000004" class="node">
<title>Node4</title>
<g id="a_Node000004"><a xlink:title=" ">
<polygon fill="white" stroke="none" points="334,-591.5 280,-591.5 280,-542.5 334,-542.5 334,-591.5"/>
<text text-anchor="start" x="284.88" y="-578" font-family="Helvetica,sans-Serif" font-size="10.00">VideoSink</text>
<text text-anchor="start" x="305.5" y="-563" font-family="Helvetica,sans-Serif" font-size="10.00"> </text>
<text text-anchor="start" x="305.5" y="-548" font-family="Helvetica,sans-Serif" font-size="10.00"> </text>
<polygon fill="#666666" stroke="#666666" points="280,-574.5 280,-574.5 334,-574.5 334,-574.5 280,-574.5"/>
<polygon fill="#666666" stroke="#666666" points="280,-559.5 280,-559.5 334,-559.5 334,-559.5 280,-559.5"/>
<polygon fill="none" stroke="#666666" points="280,-542.5 280,-591.5 334,-591.5 334,-542.5 280,-542.5"/>
</a>
</g>
</g>
<!-- Node4&#45;&gt;Node1 -->
<g id="edge3_Node000001_Node000004" class="edge">
<title>Node4&#45;&gt;Node1</title>
<g id="a_edge3_Node000001_Node000004"><a xlink:title=" ">
<path fill="none" stroke="#63b8ff" d="M298.47,-532.07C293.39,-511.88 286.46,-484.32 278.83,-453.99"/>
<polygon fill="none" stroke="#63b8ff" points="295.26,-532.66 301.09,-541.5 302.05,-530.95 295.26,-532.66"/>
</a>
</g>
</g>
</g>
</svg>
