<?xml version="1.0" encoding="UTF-8" standalone="no"?>
<!DOCTYPE svg PUBLIC "-//W3C//DTD SVG 1.1//EN"
 "http://www.w3.org/Graphics/SVG/1.1/DTD/svg11.dtd">
<!-- Generated by graphviz version 2.30.1 (20201013.1554)
 -->
<!-- Title: com.ringcentral.video.MeetingChatController Pages: 1 -->
<svg width="172pt" height="270pt"
 viewBox="0.00 0.00 172.00 270.00" xmlns="http://www.w3.org/2000/svg" xmlns:xlink="http://www.w3.org/1999/xlink">
<g id="graph0" class="graph" transform="scale(1 1) rotate(0) translate(4 266)">
<title>com.ringcentral.video.MeetingChatController</title>
<polygon fill="white" stroke="white" points="-4,5 -4,-266 169,-266 169,5 -4,5"/>
<!-- Node1 -->
<g id="node1" class="node"><title>Node1</title>
<polygon fill="#bfbfbf" stroke="black" points="-0.5,-160.5 -0.5,-261.5 164.5,-261.5 164.5,-160.5 -0.5,-160.5"/>
<text text-anchor="start" x="7.5" y="-249.5" font-family="Helvetica,sans-Serif" font-size="10.00">com.ringcentral.video.Meeting</text>
<text text-anchor="middle" x="82" y="-238.5" font-family="Helvetica,sans-Serif" font-size="10.00">ChatController</text>
<polyline fill="none" stroke="black" points="-0.5,-231.5 164.5,-231.5 "/>
<text text-anchor="middle" x="82" y="-219.5" font-family="Helvetica,sans-Serif" font-size="10.00"> </text>
<polyline fill="none" stroke="black" points="-0.5,-212.5 164.5,-212.5 "/>
<text text-anchor="start" x="7.5" y="-200.5" font-family="Helvetica,sans-Serif" font-size="10.00">+ sendMessageToUser()</text>
<text text-anchor="start" x="7.5" y="-189.5" font-family="Helvetica,sans-Serif" font-size="10.00">+ sendMessageToAll()</text>
<text text-anchor="start" x="7.5" y="-178.5" font-family="Helvetica,sans-Serif" font-size="10.00">+ getCurrentChatPrivilege()</text>
<text text-anchor="start" x="7.5" y="-167.5" font-family="Helvetica,sans-Serif" font-size="10.00">+ setChatPrivilege()</text>
</g>
<!-- Node2 -->
<g id="node2" class="node"><title>Node2</title>
<polygon fill="white" stroke="#bfbfbf" points="-0.5,-0.5 -0.5,-123.5 164.5,-123.5 164.5,-0.5 -0.5,-0.5"/>
<text text-anchor="start" x="7.5" y="-111.5" font-family="Helvetica,sans-Serif" font-size="10.00">com.ringcentral.video.Meeting</text>
<text text-anchor="middle" x="82" y="-100.5" font-family="Helvetica,sans-Serif" font-size="10.00">ChatController.CppProxy</text>
<polyline fill="none" stroke="#bfbfbf" points="-0.5,-93.5 164.5,-93.5 "/>
<text text-anchor="middle" x="82" y="-81.5" font-family="Helvetica,sans-Serif" font-size="10.00"> </text>
<polyline fill="none" stroke="#bfbfbf" points="-0.5,-74.5 164.5,-74.5 "/>
<text text-anchor="start" x="7.5" y="-62.5" font-family="Helvetica,sans-Serif" font-size="10.00">+ _djinni_private_destroy()</text>
<text text-anchor="start" x="7.5" y="-51.5" font-family="Helvetica,sans-Serif" font-size="10.00">+ sendMessageToUser()</text>
<text text-anchor="start" x="7.5" y="-40.5" font-family="Helvetica,sans-Serif" font-size="10.00">+ sendMessageToAll()</text>
<text text-anchor="start" x="7.5" y="-29.5" font-family="Helvetica,sans-Serif" font-size="10.00">+ getCurrentChatPrivilege()</text>
<text text-anchor="start" x="7.5" y="-18.5" font-family="Helvetica,sans-Serif" font-size="10.00">+ setChatPrivilege()</text>
<text text-anchor="start" x="7.5" y="-7.5" font-family="Helvetica,sans-Serif" font-size="10.00"># finalize()</text>
</g>
<!-- Node1&#45;&gt;Node2 -->
<g id="edge1" class="edge"><title>Node1&#45;&gt;Node2</title>
<path fill="none" stroke="midnightblue" d="M82,-150.139C82,-141.411 82,-132.417 82,-123.672"/>
<polygon fill="none" stroke="midnightblue" points="78.5001,-150.232 82,-160.233 85.5001,-150.233 78.5001,-150.232"/>
</g>
</g>
</svg>
