<?xml version="1.0" encoding="UTF-8" standalone="no"?>
<!DOCTYPE svg PUBLIC "-//W3C//DTD SVG 1.1//EN"
 "http://www.w3.org/Graphics/SVG/1.1/DTD/svg11.dtd">
<!-- Generated by graphviz version 8.1.0 (20230707.0739)
 -->
<!-- Title: com.ringcentral.video.RcvVideoView Pages: 1 -->
<svg width="179pt" height="337pt"
 viewBox="0.00 0.00 179.00 337.00" xmlns="http://www.w3.org/2000/svg" xmlns:xlink="http://www.w3.org/1999/xlink">

<svg id="main" version="1.1" xmlns="http://www.w3.org/2000/svg" xmlns:xlink="http://www.w3.org/1999/xlink" xml:space="preserve" onload="init(evt)">
<style type="text/css"><![CDATA[
.node, .edge {opacity: 0.7;}
.node.selected, .edge.selected {opacity: 1;}
.edge:hover path { stroke: red; }
.edge:hover polygon { stroke: red; fill: red; }
]]></style>
<script type="application/ecmascript" xlink:href="svg.min.js"/>
<svg id="graph" class="graph">
<g id="graph0" class="graph" transform="scale(1 1) rotate(0) translate(4 333)">
<title>com.ringcentral.video.RcvVideoView</title>
<!-- Node1 -->
<g id="Node000001" class="node">
<title>Node1</title>
<g id="a_Node000001"><a xlink:title=" ">
<polygon fill="#999999" stroke="none" points="170,-244 0,-244 0,0 170,0 170,-244"/>
<text text-anchor="start" x="4.75" y="-230.5" font-family="Helvetica,sans-Serif" font-size="10.00">com.ringcentral.video.RcvVideoView</text>
<text text-anchor="start" x="20" y="-215.5" font-family="Helvetica,sans-Serif" font-size="10.00">+</text>
<text text-anchor="start" x="46" y="-215.5" font-family="Helvetica,sans-Serif" font-size="10.00">MATCH_PARENT</text>
<text text-anchor="start" x="20" y="-200.5" font-family="Helvetica,sans-Serif" font-size="10.00">+</text>
<text text-anchor="start" x="46" y="-200.5" font-family="Helvetica,sans-Serif" font-size="10.00">WRAP_CONTENT</text>
<text text-anchor="start" x="20" y="-185.5" font-family="Helvetica,sans-Serif" font-size="10.00">+</text>
<text text-anchor="start" x="46" y="-185.5" font-family="Helvetica,sans-Serif" font-size="10.00">RcvVideoView()</text>
<text text-anchor="start" x="20" y="-170.5" font-family="Helvetica,sans-Serif" font-size="10.00">+</text>
<text text-anchor="start" x="46" y="-170.5" font-family="Helvetica,sans-Serif" font-size="10.00">RcvVideoView()</text>
<text text-anchor="start" x="20" y="-155.5" font-family="Helvetica,sans-Serif" font-size="10.00">+</text>
<text text-anchor="start" x="46" y="-155.5" font-family="Helvetica,sans-Serif" font-size="10.00">RcvVideoView()</text>
<text text-anchor="start" x="20" y="-140.5" font-family="Helvetica,sans-Serif" font-size="10.00">+</text>
<text text-anchor="start" x="46" y="-140.5" font-family="Helvetica,sans-Serif" font-size="10.00">RcvVideoView()</text>
<text text-anchor="start" x="20" y="-125.5" font-family="Helvetica,sans-Serif" font-size="10.00">+</text>
<text text-anchor="start" x="46" y="-125.5" font-family="Helvetica,sans-Serif" font-size="10.00">onRelease()</text>
<text text-anchor="start" x="20" y="-110.5" font-family="Helvetica,sans-Serif" font-size="10.00">+</text>
<text text-anchor="start" x="46" y="-110.5" font-family="Helvetica,sans-Serif" font-size="10.00">release()</text>
<text text-anchor="start" x="20" y="-95.5" font-family="Helvetica,sans-Serif" font-size="10.00">+</text>
<text text-anchor="start" x="46" y="-95.5" font-family="Helvetica,sans-Serif" font-size="10.00">setMirror()</text>
<text text-anchor="start" x="20" y="-80.5" font-family="Helvetica,sans-Serif" font-size="10.00">+</text>
<text text-anchor="start" x="46" y="-80.5" font-family="Helvetica,sans-Serif" font-size="10.00">setRenderMode()</text>
<text text-anchor="start" x="20" y="-65.5" font-family="Helvetica,sans-Serif" font-size="10.00">+</text>
<text text-anchor="start" x="46" y="-65.5" font-family="Helvetica,sans-Serif" font-size="10.00">setRendererLayout()</text>
<text text-anchor="start" x="20" y="-50.5" font-family="Helvetica,sans-Serif" font-size="10.00">+</text>
<text text-anchor="start" x="46" y="-50.5" font-family="Helvetica,sans-Serif" font-size="10.00">getRenderer()</text>
<text text-anchor="start" x="20.38" y="-35.5" font-family="Helvetica,sans-Serif" font-size="10.00">#</text>
<text text-anchor="start" x="46" y="-35.5" font-family="Helvetica,sans-Serif" font-size="10.00">onMeasure()</text>
<text text-anchor="start" x="20.38" y="-20.5" font-family="Helvetica,sans-Serif" font-size="10.00">#</text>
<text text-anchor="start" x="46" y="-20.5" font-family="Helvetica,sans-Serif" font-size="10.00">onLayout()</text>
<text text-anchor="start" x="20.38" y="-5.5" font-family="Helvetica,sans-Serif" font-size="10.00">#</text>
<text text-anchor="start" x="46" y="-5.5" font-family="Helvetica,sans-Serif" font-size="10.00">getLayoutId()</text>
<polygon fill="#666666" stroke="#666666" points="0,-227 0,-227 170,-227 170,-227 0,-227"/>
<polygon fill="#666666" stroke="#666666" points="0,-197 0,-197 44,-197 44,-197 0,-197"/>
<polygon fill="#666666" stroke="#666666" points="44,-197 44,-197 170,-197 170,-197 44,-197"/>
<polygon fill="none" stroke="#666666" points="0,0 0,-244 170,-244 170,0 0,0"/>
</a>
</g>
</g>
<!-- Node2 -->
<g id="Node000002" class="node">
<title>Node2</title>
<g id="a_Node000002"><a xlink:title=" ">
<polygon fill="white" stroke="none" points="72.5,-329 5.5,-329 5.5,-280 72.5,-280 72.5,-329"/>
<text text-anchor="start" x="10.5" y="-315.5" font-family="Helvetica,sans-Serif" font-size="10.00">FrameLayout</text>
<text text-anchor="start" x="37.5" y="-300.5" font-family="Helvetica,sans-Serif" font-size="10.00"> </text>
<text text-anchor="start" x="37.5" y="-285.5" font-family="Helvetica,sans-Serif" font-size="10.00"> </text>
<polygon fill="#666666" stroke="#666666" points="5.5,-312 5.5,-312 72.5,-312 72.5,-312 5.5,-312"/>
<polygon fill="#666666" stroke="#666666" points="5.5,-297 5.5,-297 72.5,-297 72.5,-297 5.5,-297"/>
<polygon fill="none" stroke="#666666" points="5.5,-280 5.5,-329 72.5,-329 72.5,-280 5.5,-280"/>
</a>
</g>
</g>
<!-- Node2&#45;&gt;Node1 -->
<g id="edge1_Node000001_Node000002" class="edge">
<title>Node2&#45;&gt;Node1</title>
<g id="a_edge1_Node000001_Node000002"><a xlink:title=" ">
<path fill="none" stroke="#63b8ff" d="M47.58,-269.83C49.59,-261.96 51.84,-253.13 54.21,-243.8"/>
<polygon fill="none" stroke="#63b8ff" points="44,-268.72 44.92,-279.27 50.78,-270.45 44,-268.72"/>
</a>
</g>
</g>
<!-- Node3 -->
<g id="Node000003" class="node">
<title>Node3</title>
<g id="a_Node000003"><a xlink:title=" ">
<polygon fill="white" stroke="none" points="171,-329 91,-329 91,-280 171,-280 171,-329"/>
<text text-anchor="start" x="95.75" y="-315.5" font-family="Helvetica,sans-Serif" font-size="10.00">ReleasableView</text>
<text text-anchor="start" x="129.5" y="-300.5" font-family="Helvetica,sans-Serif" font-size="10.00"> </text>
<text text-anchor="start" x="129.5" y="-285.5" font-family="Helvetica,sans-Serif" font-size="10.00"> </text>
<polygon fill="#666666" stroke="#666666" points="91,-312 91,-312 171,-312 171,-312 91,-312"/>
<polygon fill="#666666" stroke="#666666" points="91,-297 91,-297 171,-297 171,-297 91,-297"/>
<polygon fill="none" stroke="#666666" points="91,-280 91,-329 171,-329 171,-280 91,-280"/>
</a>
</g>
</g>
<!-- Node3&#45;&gt;Node1 -->
<g id="edge2_Node000001_Node000003" class="edge">
<title>Node3&#45;&gt;Node1</title>
<g id="a_edge2_Node000001_Node000003"><a xlink:title=" ">
<path fill="none" stroke="#63b8ff" d="M122.42,-269.83C120.41,-261.96 118.16,-253.13 115.79,-243.8"/>
<polygon fill="none" stroke="#63b8ff" points="119.22,-270.45 125.08,-279.27 126,-268.72 119.22,-270.45"/>
</a>
</g>
</g>
</g>
</svg>
</svg>

<style type='text/css'>
<![CDATA[
[data-mouse-over-selected='false'] { opacity: 0.7; }
[data-mouse-over-selected='true']  { opacity: 1.0; }
]]>
</style>
<script type="application/ecmascript"><![CDATA[
document.addEventListener('DOMContentLoaded', (event) => {
  highlightEdges();
  highlightAdjacentNodes();
});
]]></script>
</svg>
