<?xml version="1.0" encoding="UTF-8" standalone="no"?>
<!DOCTYPE svg PUBLIC "-//W3C//DTD SVG 1.1//EN"
 "http://www.w3.org/Graphics/SVG/1.1/DTD/svg11.dtd">
<!-- Generated by graphviz version 2.30.1 (20201013.1554)
 -->
<!-- Title: com.ringcentral.video.RcvVideoView Pages: 1 -->
<svg width="200pt" height="292pt"
 viewBox="0.00 0.00 200.00 292.00" xmlns="http://www.w3.org/2000/svg" xmlns:xlink="http://www.w3.org/1999/xlink">
<g id="graph0" class="graph" transform="scale(1 1) rotate(0) translate(4 288)">
<title>com.ringcentral.video.RcvVideoView</title>
<polygon fill="white" stroke="white" points="-4,5 -4,-288 197,-288 197,5 -4,5"/>
<!-- Node1 -->
<g id="node1" class="node"><title>Node1</title>
<polygon fill="#bfbfbf" stroke="black" points="20,-0.5 20,-189.5 164,-189.5 164,-0.5 20,-0.5"/>
<text text-anchor="start" x="28" y="-177.5" font-family="Helvetica,sans-Serif" font-size="10.00">com.ringcentral.video.Rcv</text>
<text text-anchor="middle" x="92" y="-166.5" font-family="Helvetica,sans-Serif" font-size="10.00">VideoView</text>
<polyline fill="none" stroke="black" points="20,-159.5 164,-159.5 "/>
<text text-anchor="start" x="28" y="-147.5" font-family="Helvetica,sans-Serif" font-size="10.00">+ MATCH_PARENT</text>
<text text-anchor="start" x="28" y="-136.5" font-family="Helvetica,sans-Serif" font-size="10.00">+ WRAP_CONTENT</text>
<polyline fill="none" stroke="black" points="20,-129.5 164,-129.5 "/>
<text text-anchor="start" x="28" y="-117.5" font-family="Helvetica,sans-Serif" font-size="10.00">+ RcvVideoView()</text>
<text text-anchor="start" x="28" y="-106.5" font-family="Helvetica,sans-Serif" font-size="10.00">+ RcvVideoView()</text>
<text text-anchor="start" x="28" y="-95.5" font-family="Helvetica,sans-Serif" font-size="10.00">+ RcvVideoView()</text>
<text text-anchor="start" x="28" y="-84.5" font-family="Helvetica,sans-Serif" font-size="10.00">+ RcvVideoView()</text>
<text text-anchor="start" x="28" y="-73.5" font-family="Helvetica,sans-Serif" font-size="10.00">+ onRelease()</text>
<text text-anchor="start" x="28" y="-62.5" font-family="Helvetica,sans-Serif" font-size="10.00">+ release()</text>
<text text-anchor="start" x="28" y="-51.5" font-family="Helvetica,sans-Serif" font-size="10.00">+ setMirror()</text>
<text text-anchor="start" x="28" y="-40.5" font-family="Helvetica,sans-Serif" font-size="10.00">+ setRenderMode()</text>
<text text-anchor="start" x="28" y="-29.5" font-family="Helvetica,sans-Serif" font-size="10.00">+ setRendererLayout()</text>
<text text-anchor="start" x="28" y="-18.5" font-family="Helvetica,sans-Serif" font-size="10.00">+ getRenderer()</text>
<text text-anchor="start" x="28" y="-7.5" font-family="Helvetica,sans-Serif" font-size="10.00"># getLayoutId()</text>
</g>
<!-- Node2 -->
<g id="node2" class="node"><title>Node2</title>
<polygon fill="white" stroke="#bfbfbf" points="0,-226.5 0,-283.5 80,-283.5 80,-226.5 0,-226.5"/>
<text text-anchor="middle" x="40" y="-271.5" font-family="Helvetica,sans-Serif" font-size="10.00">FrameLayout</text>
<polyline fill="none" stroke="#bfbfbf" points="0,-264.5 80,-264.5 "/>
<text text-anchor="middle" x="40" y="-252.5" font-family="Helvetica,sans-Serif" font-size="10.00"> </text>
<polyline fill="none" stroke="#bfbfbf" points="0,-245.5 80,-245.5 "/>
<text text-anchor="middle" x="40" y="-233.5" font-family="Helvetica,sans-Serif" font-size="10.00"> </text>
</g>
<!-- Node2&#45;&gt;Node1 -->
<g id="edge1" class="edge"><title>Node2&#45;&gt;Node1</title>
<path fill="none" stroke="midnightblue" d="M52.254,-216.767C55.0017,-208.418 58.0369,-199.195 61.1691,-189.678"/>
<polygon fill="none" stroke="midnightblue" points="48.8594,-215.886 49.0577,-226.479 55.5085,-218.074 48.8594,-215.886"/>
</g>
<!-- Node3 -->
<g id="node3" class="node"><title>Node3</title>
<polygon fill="white" stroke="#bfbfbf" points="98,-226.5 98,-283.5 192,-283.5 192,-226.5 98,-226.5"/>
<text text-anchor="middle" x="145" y="-271.5" font-family="Helvetica,sans-Serif" font-size="10.00">ReleasableView</text>
<polyline fill="none" stroke="#bfbfbf" points="98,-264.5 192,-264.5 "/>
<text text-anchor="middle" x="145" y="-252.5" font-family="Helvetica,sans-Serif" font-size="10.00"> </text>
<polyline fill="none" stroke="#bfbfbf" points="98,-245.5 192,-245.5 "/>
<text text-anchor="middle" x="145" y="-233.5" font-family="Helvetica,sans-Serif" font-size="10.00"> </text>
</g>
<!-- Node3&#45;&gt;Node1 -->
<g id="edge2" class="edge"><title>Node3&#45;&gt;Node1</title>
<path fill="none" stroke="midnightblue" d="M132.51,-216.767C129.71,-208.418 126.616,-199.195 123.424,-189.678"/>
<polygon fill="none" stroke="midnightblue" points="129.269,-218.111 135.768,-226.479 135.906,-215.885 129.269,-218.111"/>
</g>
</g>
</svg>
