<?xml version="1.0" encoding="UTF-8" standalone="no"?>
<!DOCTYPE svg PUBLIC "-//W3C//DTD SVG 1.1//EN"
 "http://www.w3.org/Graphics/SVG/1.1/DTD/svg11.dtd">
<!-- Generated by graphviz version 8.1.0 (20230707.0739)
 -->
<!-- Title: com.ringcentral.video.RcvVideoView Pages: 1 -->
<svg width="179pt" height="307pt"
 viewBox="0.00 0.00 179.00 307.00" xmlns="http://www.w3.org/2000/svg" xmlns:xlink="http://www.w3.org/1999/xlink">
<g id="graph0" class="graph" transform="scale(1 1) rotate(0) translate(4 303)">
<title>com.ringcentral.video.RcvVideoView</title>
<!-- Node1 -->
<g id="Node000001" class="node">
<title>Node1</title>
<g id="a_Node000001"><a xlink:title=" ">
<polygon fill="#999999" stroke="none" points="170,-214 0,-214 0,0 170,0 170,-214"/>
<text text-anchor="start" x="4.75" y="-200.5" font-family="Helvetica,sans-Serif" font-size="10.00">com.ringcentral.video.RcvVideoView</text>
<text text-anchor="start" x="20" y="-185.5" font-family="Helvetica,sans-Serif" font-size="10.00">+</text>
<text text-anchor="start" x="46" y="-185.5" font-family="Helvetica,sans-Serif" font-size="10.00">MATCH_PARENT</text>
<text text-anchor="start" x="20" y="-170.5" font-family="Helvetica,sans-Serif" font-size="10.00">+</text>
<text text-anchor="start" x="46" y="-170.5" font-family="Helvetica,sans-Serif" font-size="10.00">WRAP_CONTENT</text>
<text text-anchor="start" x="20" y="-155.5" font-family="Helvetica,sans-Serif" font-size="10.00">+</text>
<text text-anchor="start" x="46" y="-155.5" font-family="Helvetica,sans-Serif" font-size="10.00">RcvVideoView()</text>
<text text-anchor="start" x="20" y="-140.5" font-family="Helvetica,sans-Serif" font-size="10.00">+</text>
<text text-anchor="start" x="46" y="-140.5" font-family="Helvetica,sans-Serif" font-size="10.00">RcvVideoView()</text>
<text text-anchor="start" x="20" y="-125.5" font-family="Helvetica,sans-Serif" font-size="10.00">+</text>
<text text-anchor="start" x="46" y="-125.5" font-family="Helvetica,sans-Serif" font-size="10.00">RcvVideoView()</text>
<text text-anchor="start" x="20" y="-110.5" font-family="Helvetica,sans-Serif" font-size="10.00">+</text>
<text text-anchor="start" x="46" y="-110.5" font-family="Helvetica,sans-Serif" font-size="10.00">RcvVideoView()</text>
<text text-anchor="start" x="20" y="-95.5" font-family="Helvetica,sans-Serif" font-size="10.00">+</text>
<text text-anchor="start" x="46" y="-95.5" font-family="Helvetica,sans-Serif" font-size="10.00">onRelease()</text>
<text text-anchor="start" x="20" y="-80.5" font-family="Helvetica,sans-Serif" font-size="10.00">+</text>
<text text-anchor="start" x="46" y="-80.5" font-family="Helvetica,sans-Serif" font-size="10.00">release()</text>
<text text-anchor="start" x="20" y="-65.5" font-family="Helvetica,sans-Serif" font-size="10.00">+</text>
<text text-anchor="start" x="46" y="-65.5" font-family="Helvetica,sans-Serif" font-size="10.00">setMirror()</text>
<text text-anchor="start" x="20" y="-50.5" font-family="Helvetica,sans-Serif" font-size="10.00">+</text>
<text text-anchor="start" x="46" y="-50.5" font-family="Helvetica,sans-Serif" font-size="10.00">setRenderMode()</text>
<text text-anchor="start" x="20" y="-35.5" font-family="Helvetica,sans-Serif" font-size="10.00">+</text>
<text text-anchor="start" x="46" y="-35.5" font-family="Helvetica,sans-Serif" font-size="10.00">setRendererLayout()</text>
<text text-anchor="start" x="20" y="-20.5" font-family="Helvetica,sans-Serif" font-size="10.00">+</text>
<text text-anchor="start" x="46" y="-20.5" font-family="Helvetica,sans-Serif" font-size="10.00">getRenderer()</text>
<text text-anchor="start" x="20.38" y="-5.5" font-family="Helvetica,sans-Serif" font-size="10.00">#</text>
<text text-anchor="start" x="46" y="-5.5" font-family="Helvetica,sans-Serif" font-size="10.00">getLayoutId()</text>
<polygon fill="#666666" stroke="#666666" points="0,-197 0,-197 170,-197 170,-197 0,-197"/>
<polygon fill="#666666" stroke="#666666" points="0,-167 0,-167 44,-167 44,-167 0,-167"/>
<polygon fill="#666666" stroke="#666666" points="44,-167 44,-167 170,-167 170,-167 44,-167"/>
<polygon fill="none" stroke="#666666" points="0,0 0,-214 170,-214 170,0 0,0"/>
</a>
</g>
</g>
<!-- Node2 -->
<g id="Node000002" class="node">
<title>Node2</title>
<g id="a_Node000002"><a xlink:title=" ">
<polygon fill="white" stroke="none" points="72.5,-299 5.5,-299 5.5,-250 72.5,-250 72.5,-299"/>
<text text-anchor="start" x="10.5" y="-285.5" font-family="Helvetica,sans-Serif" font-size="10.00">FrameLayout</text>
<text text-anchor="start" x="37.5" y="-270.5" font-family="Helvetica,sans-Serif" font-size="10.00"> </text>
<text text-anchor="start" x="37.5" y="-255.5" font-family="Helvetica,sans-Serif" font-size="10.00"> </text>
<polygon fill="#666666" stroke="#666666" points="5.5,-282 5.5,-282 72.5,-282 72.5,-282 5.5,-282"/>
<polygon fill="#666666" stroke="#666666" points="5.5,-267 5.5,-267 72.5,-267 72.5,-267 5.5,-267"/>
<polygon fill="none" stroke="#666666" points="5.5,-250 5.5,-299 72.5,-299 72.5,-250 5.5,-250"/>
</a>
</g>
</g>
<!-- Node2&#45;&gt;Node1 -->
<g id="edge1_Node000001_Node000002" class="edge">
<title>Node2&#45;&gt;Node1</title>
<g id="a_edge1_Node000001_Node000002"><a xlink:title=" ">
<path fill="none" stroke="#63b8ff" d="M48.41,-239.65C50.6,-231.77 53.05,-222.95 55.61,-213.72"/>
<polygon fill="none" stroke="#63b8ff" points="44.8,-238.57 45.49,-249.14 51.54,-240.44 44.8,-238.57"/>
</a>
</g>
</g>
<!-- Node3 -->
<g id="Node000003" class="node">
<title>Node3</title>
<g id="a_Node000003"><a xlink:title=" ">
<polygon fill="white" stroke="none" points="171,-299 91,-299 91,-250 171,-250 171,-299"/>
<text text-anchor="start" x="95.75" y="-285.5" font-family="Helvetica,sans-Serif" font-size="10.00">ReleasableView</text>
<text text-anchor="start" x="129.5" y="-270.5" font-family="Helvetica,sans-Serif" font-size="10.00"> </text>
<text text-anchor="start" x="129.5" y="-255.5" font-family="Helvetica,sans-Serif" font-size="10.00"> </text>
<polygon fill="#666666" stroke="#666666" points="91,-282 91,-282 171,-282 171,-282 91,-282"/>
<polygon fill="#666666" stroke="#666666" points="91,-267 91,-267 171,-267 171,-267 91,-267"/>
<polygon fill="none" stroke="#666666" points="91,-250 91,-299 171,-299 171,-250 91,-250"/>
</a>
</g>
</g>
<!-- Node3&#45;&gt;Node1 -->
<g id="edge2_Node000001_Node000003" class="edge">
<title>Node3&#45;&gt;Node1</title>
<g id="a_edge2_Node000001_Node000003"><a xlink:title=" ">
<path fill="none" stroke="#63b8ff" d="M121.59,-239.65C119.4,-231.77 116.95,-222.95 114.39,-213.72"/>
<polygon fill="none" stroke="#63b8ff" points="118.46,-240.44 124.51,-249.14 125.2,-238.57 118.46,-240.44"/>
</a>
</g>
</g>
</g>
</svg>
