<?xml version="1.0" encoding="UTF-8" standalone="no"?>
<!DOCTYPE svg PUBLIC "-//W3C//DTD SVG 1.1//EN"
 "http://www.w3.org/Graphics/SVG/1.1/DTD/svg11.dtd">
<!-- Generated by graphviz version 8.1.0 (20230707.0739)
 -->
<!-- Title: com.ringcentral.video.RcvTextureViewRenderer Pages: 1 -->
<svg width="370pt" height="517pt"
 viewBox="0.00 0.00 370.00 517.00" xmlns="http://www.w3.org/2000/svg" xmlns:xlink="http://www.w3.org/1999/xlink">
<g id="graph0" class="graph" transform="scale(1 1) rotate(0) translate(4 513)">
<title>com.ringcentral.video.RcvTextureViewRenderer</title>
<!-- Node1 -->
<g id="Node000001" class="node">
<title>Node1</title>
<g id="a_Node000001"><a xlink:title=" ">
<polygon fill="#999999" stroke="none" points="267.5,-424 50.5,-424 50.5,0 267.5,0 267.5,-424"/>
<text text-anchor="start" x="55.12" y="-410.5" font-family="Helvetica,sans-Serif" font-size="10.00">com.ringcentral.video.RcvTextureViewRenderer</text>
<text text-anchor="start" x="157.5" y="-395.5" font-family="Helvetica,sans-Serif" font-size="10.00"> </text>
<text text-anchor="start" x="69" y="-380.5" font-family="Helvetica,sans-Serif" font-size="10.00">+</text>
<text text-anchor="start" x="93.5" y="-380.5" font-family="Helvetica,sans-Serif" font-size="10.00">RcvTextureViewRenderer()</text>
<text text-anchor="start" x="69" y="-365.5" font-family="Helvetica,sans-Serif" font-size="10.00">+</text>
<text text-anchor="start" x="93.5" y="-365.5" font-family="Helvetica,sans-Serif" font-size="10.00">RcvTextureViewRenderer()</text>
<text text-anchor="start" x="69" y="-350.5" font-family="Helvetica,sans-Serif" font-size="10.00">+</text>
<text text-anchor="start" x="93.5" y="-350.5" font-family="Helvetica,sans-Serif" font-size="10.00">init()</text>
<text text-anchor="start" x="69" y="-335.5" font-family="Helvetica,sans-Serif" font-size="10.00">+</text>
<text text-anchor="start" x="93.5" y="-335.5" font-family="Helvetica,sans-Serif" font-size="10.00">init()</text>
<text text-anchor="start" x="69" y="-320.5" font-family="Helvetica,sans-Serif" font-size="10.00">+</text>
<text text-anchor="start" x="93.5" y="-320.5" font-family="Helvetica,sans-Serif" font-size="10.00">release()</text>
<text text-anchor="start" x="69" y="-305.5" font-family="Helvetica,sans-Serif" font-size="10.00">+</text>
<text text-anchor="start" x="93.5" y="-305.5" font-family="Helvetica,sans-Serif" font-size="10.00">addFrameListener()</text>
<text text-anchor="start" x="69" y="-290.5" font-family="Helvetica,sans-Serif" font-size="10.00">+</text>
<text text-anchor="start" x="93.5" y="-290.5" font-family="Helvetica,sans-Serif" font-size="10.00">addFrameListener()</text>
<text text-anchor="start" x="69" y="-275.5" font-family="Helvetica,sans-Serif" font-size="10.00">+</text>
<text text-anchor="start" x="93.5" y="-275.5" font-family="Helvetica,sans-Serif" font-size="10.00">removeFrameListener()</text>
<text text-anchor="start" x="69" y="-260.5" font-family="Helvetica,sans-Serif" font-size="10.00">+</text>
<text text-anchor="start" x="93.5" y="-260.5" font-family="Helvetica,sans-Serif" font-size="10.00">clearRendererEvents()</text>
<text text-anchor="start" x="69" y="-245.5" font-family="Helvetica,sans-Serif" font-size="10.00">+</text>
<text text-anchor="start" x="93.5" y="-245.5" font-family="Helvetica,sans-Serif" font-size="10.00">setRendererEvents()</text>
<text text-anchor="start" x="69" y="-230.5" font-family="Helvetica,sans-Serif" font-size="10.00">+</text>
<text text-anchor="start" x="93.5" y="-230.5" font-family="Helvetica,sans-Serif" font-size="10.00">setMirror()</text>
<text text-anchor="start" x="69" y="-215.5" font-family="Helvetica,sans-Serif" font-size="10.00">+</text>
<text text-anchor="start" x="93.5" y="-215.5" font-family="Helvetica,sans-Serif" font-size="10.00">setRenderMode()</text>
<text text-anchor="start" x="69" y="-200.5" font-family="Helvetica,sans-Serif" font-size="10.00">+</text>
<text text-anchor="start" x="93.5" y="-200.5" font-family="Helvetica,sans-Serif" font-size="10.00">setFpsReduction()</text>
<text text-anchor="start" x="69" y="-185.5" font-family="Helvetica,sans-Serif" font-size="10.00">+</text>
<text text-anchor="start" x="93.5" y="-185.5" font-family="Helvetica,sans-Serif" font-size="10.00">disableFpsReduction()</text>
<text text-anchor="start" x="69" y="-170.5" font-family="Helvetica,sans-Serif" font-size="10.00">+</text>
<text text-anchor="start" x="93.5" y="-170.5" font-family="Helvetica,sans-Serif" font-size="10.00">pauseVideo()</text>
<text text-anchor="start" x="69" y="-155.5" font-family="Helvetica,sans-Serif" font-size="10.00">+</text>
<text text-anchor="start" x="93.5" y="-155.5" font-family="Helvetica,sans-Serif" font-size="10.00">onFrame()</text>
<text text-anchor="start" x="69" y="-140.5" font-family="Helvetica,sans-Serif" font-size="10.00">+</text>
<text text-anchor="start" x="93.5" y="-140.5" font-family="Helvetica,sans-Serif" font-size="10.00">onSurfaceTextureAvailable()</text>
<text text-anchor="start" x="69" y="-125.5" font-family="Helvetica,sans-Serif" font-size="10.00">+</text>
<text text-anchor="start" x="93.5" y="-125.5" font-family="Helvetica,sans-Serif" font-size="10.00">onSurfaceTextureSizeChanged()</text>
<text text-anchor="start" x="69" y="-110.5" font-family="Helvetica,sans-Serif" font-size="10.00">+</text>
<text text-anchor="start" x="93.5" y="-110.5" font-family="Helvetica,sans-Serif" font-size="10.00">onSurfaceTextureDestroyed()</text>
<text text-anchor="start" x="69" y="-95.5" font-family="Helvetica,sans-Serif" font-size="10.00">+</text>
<text text-anchor="start" x="93.5" y="-95.5" font-family="Helvetica,sans-Serif" font-size="10.00">onSurfaceTextureUpdated()</text>
<text text-anchor="start" x="69" y="-80.5" font-family="Helvetica,sans-Serif" font-size="10.00">+</text>
<text text-anchor="start" x="93.5" y="-80.5" font-family="Helvetica,sans-Serif" font-size="10.00">clearImage()</text>
<text text-anchor="start" x="69" y="-65.5" font-family="Helvetica,sans-Serif" font-size="10.00">+</text>
<text text-anchor="start" x="93.5" y="-65.5" font-family="Helvetica,sans-Serif" font-size="10.00">onFirstFrameRendered()</text>
<text text-anchor="start" x="69" y="-50.5" font-family="Helvetica,sans-Serif" font-size="10.00">+</text>
<text text-anchor="start" x="93.5" y="-50.5" font-family="Helvetica,sans-Serif" font-size="10.00">onFrameResolutionChanged()</text>
<text text-anchor="start" x="69" y="-35.5" font-family="Helvetica,sans-Serif" font-size="10.00">+</text>
<text text-anchor="start" x="93.5" y="-35.5" font-family="Helvetica,sans-Serif" font-size="10.00">postOrRun()</text>
<text text-anchor="start" x="69.38" y="-20.5" font-family="Helvetica,sans-Serif" font-size="10.00">#</text>
<text text-anchor="start" x="93.5" y="-20.5" font-family="Helvetica,sans-Serif" font-size="10.00">onMeasure()</text>
<text text-anchor="start" x="69.38" y="-5.5" font-family="Helvetica,sans-Serif" font-size="10.00">#</text>
<text text-anchor="start" x="93.5" y="-5.5" font-family="Helvetica,sans-Serif" font-size="10.00">onLayout()</text>
<polygon fill="#666666" stroke="#666666" points="50.5,-407 50.5,-407 267.5,-407 267.5,-407 50.5,-407"/>
<polygon fill="#666666" stroke="#666666" points="50.5,-392 50.5,-392 267.5,-392 267.5,-392 50.5,-392"/>
<polygon fill="none" stroke="#666666" points="50.5,0 50.5,-424 267.5,-424 267.5,0 50.5,0"/>
</a>
</g>
</g>
<!-- Node2 -->
<g id="Node000002" class="node">
<title>Node2</title>
<g id="a_Node000002"><a xlink:title=" ">
<polygon fill="white" stroke="none" points="64,-509 0,-509 0,-460 64,-460 64,-509"/>
<text text-anchor="start" x="5" y="-495.5" font-family="Helvetica,sans-Serif" font-size="10.00">TextureView</text>
<text text-anchor="start" x="30.5" y="-480.5" font-family="Helvetica,sans-Serif" font-size="10.00"> </text>
<text text-anchor="start" x="30.5" y="-465.5" font-family="Helvetica,sans-Serif" font-size="10.00"> </text>
<polygon fill="#666666" stroke="#666666" points="0,-492 0,-492 64,-492 64,-492 0,-492"/>
<polygon fill="#666666" stroke="#666666" points="0,-477 0,-477 64,-477 64,-477 0,-477"/>
<polygon fill="none" stroke="#666666" points="0,-460 0,-509 64,-509 64,-460 0,-460"/>
</a>
</g>
</g>
<!-- Node2&#45;&gt;Node1 -->
<g id="edge1_Node000001_Node000002" class="edge">
<title>Node2&#45;&gt;Node1</title>
<g id="a_edge1_Node000001_Node000002"><a xlink:title=" ">
<path fill="none" stroke="#63b8ff" d="M47.41,-450.67C51.15,-442.72 55.41,-433.63 60.05,-423.75"/>
<polygon fill="none" stroke="#63b8ff" points="43.91,-448.9 42.83,-459.44 50.25,-451.87 43.91,-448.9"/>
</a>
</g>
</g>
<!-- Node3 -->
<g id="Node000003" class="node">
<title>Node3</title>
<g id="a_Node000003"><a xlink:title=" ">
<polygon fill="white" stroke="none" points="136,-509 82,-509 82,-460 136,-460 136,-509"/>
<text text-anchor="start" x="86.88" y="-495.5" font-family="Helvetica,sans-Serif" font-size="10.00">VideoSink</text>
<text text-anchor="start" x="107.5" y="-480.5" font-family="Helvetica,sans-Serif" font-size="10.00"> </text>
<text text-anchor="start" x="107.5" y="-465.5" font-family="Helvetica,sans-Serif" font-size="10.00"> </text>
<polygon fill="#666666" stroke="#666666" points="82,-492 82,-492 136,-492 136,-492 82,-492"/>
<polygon fill="#666666" stroke="#666666" points="82,-477 82,-477 136,-477 136,-477 82,-477"/>
<polygon fill="none" stroke="#666666" points="82,-460 82,-509 136,-509 136,-460 82,-460"/>
</a>
</g>
</g>
<!-- Node3&#45;&gt;Node1 -->
<g id="edge2_Node000001_Node000003" class="edge">
<title>Node3&#45;&gt;Node1</title>
<g id="a_edge2_Node000001_Node000003"><a xlink:title=" ">
<path fill="none" stroke="#63b8ff" d="M115.22,-449.86C116.65,-442.11 118.28,-433.3 120.04,-423.75"/>
<polygon fill="none" stroke="#63b8ff" points="111.64,-448.97 113.26,-459.44 118.52,-450.24 111.64,-448.97"/>
</a>
</g>
</g>
<!-- Node4 -->
<g id="Node000004" class="node">
<title>Node4</title>
<g id="a_Node000004"><a xlink:title=" ">
<polygon fill="white" stroke="none" points="264,-509 154,-509 154,-460 264,-460 264,-509"/>
<text text-anchor="start" x="158.75" y="-495.5" font-family="Helvetica,sans-Serif" font-size="10.00">SurfaceTextureListener</text>
<text text-anchor="start" x="207.5" y="-480.5" font-family="Helvetica,sans-Serif" font-size="10.00"> </text>
<text text-anchor="start" x="207.5" y="-465.5" font-family="Helvetica,sans-Serif" font-size="10.00"> </text>
<polygon fill="#666666" stroke="#666666" points="154,-492 154,-492 264,-492 264,-492 154,-492"/>
<polygon fill="#666666" stroke="#666666" points="154,-477 154,-477 264,-477 264,-477 154,-477"/>
<polygon fill="none" stroke="#666666" points="154,-460 154,-509 264,-509 264,-460 154,-460"/>
</a>
</g>
</g>
<!-- Node4&#45;&gt;Node1 -->
<g id="edge3_Node000001_Node000004" class="edge">
<title>Node4&#45;&gt;Node1</title>
<g id="a_edge3_Node000001_Node000004"><a xlink:title=" ">
<path fill="none" stroke="#63b8ff" d="M202.78,-449.86C201.35,-442.11 199.72,-433.3 197.96,-423.75"/>
<polygon fill="none" stroke="#63b8ff" points="199.48,-450.24 204.74,-459.44 206.36,-448.97 199.48,-450.24"/>
</a>
</g>
</g>
<!-- Node5 -->
<g id="Node000005" class="node">
<title>Node5</title>
<g id="a_Node000005"><a xlink:title=" ">
<polygon fill="white" stroke="none" points="362,-509 282,-509 282,-460 362,-460 362,-509"/>
<text text-anchor="start" x="286.75" y="-495.5" font-family="Helvetica,sans-Serif" font-size="10.00">RendererEvents</text>
<text text-anchor="start" x="320.5" y="-480.5" font-family="Helvetica,sans-Serif" font-size="10.00"> </text>
<text text-anchor="start" x="320.5" y="-465.5" font-family="Helvetica,sans-Serif" font-size="10.00"> </text>
<polygon fill="#666666" stroke="#666666" points="282,-492 282,-492 362,-492 362,-492 282,-492"/>
<polygon fill="#666666" stroke="#666666" points="282,-477 282,-477 362,-477 362,-477 282,-477"/>
<polygon fill="none" stroke="#666666" points="282,-460 282,-509 362,-509 362,-460 282,-460"/>
</a>
</g>
</g>
<!-- Node5&#45;&gt;Node1 -->
<g id="edge4_Node000001_Node000005" class="edge">
<title>Node5&#45;&gt;Node1</title>
<g id="a_edge4_Node000001_Node000005"><a xlink:title=" ">
<path fill="none" stroke="#63b8ff" d="M302.56,-451.23C293.05,-435.46 280.78,-415.1 267.43,-392.95"/>
<polygon fill="none" stroke="#63b8ff" points="299.94,-452.68 308.1,-459.44 305.94,-449.07 299.94,-452.68"/>
</a>
</g>
</g>
</g>
</svg>
