<?xml version="1.0" encoding="UTF-8" standalone="no"?>
<!DOCTYPE svg PUBLIC "-//W3C//DTD SVG 1.1//EN"
 "http://www.w3.org/Graphics/SVG/1.1/DTD/svg11.dtd">
<!-- Generated by graphviz version 8.0.5 (20230430.1635)
 -->
<!-- Title: com.ringcentral.video.MeetingUserEventHandler Pages: 1 -->
<svg width="228pt" height="192pt"
 viewBox="0.00 0.00 228.00 192.00" xmlns="http://www.w3.org/2000/svg" xmlns:xlink="http://www.w3.org/1999/xlink">
<g id="graph0" class="graph" transform="scale(1 1) rotate(0) translate(4 188)">
<title>com.ringcentral.video.MeetingUserEventHandler</title>
<!-- Node1 -->
<g id="Node000001" class="node">
<title>Node1</title>
<g id="a_Node000001"><a xlink:title=" ">
<polygon fill="#999999" stroke="none" points="220,-184 0,-184 0,0 220,0 220,-184"/>
<text text-anchor="start" x="4.62" y="-170.5" font-family="Helvetica,sans-Serif" font-size="10.00">com.ringcentral.video.MeetingUserEventHandler</text>
<text text-anchor="start" x="108.5" y="-155.5" font-family="Helvetica,sans-Serif" font-size="10.00"> </text>
<text text-anchor="start" x="19.5" y="-140.5" font-family="Helvetica,sans-Serif" font-size="10.00">+</text>
<text text-anchor="start" x="45" y="-140.5" font-family="Helvetica,sans-Serif" font-size="10.00">onUserJoined()</text>
<text text-anchor="start" x="19.5" y="-125.5" font-family="Helvetica,sans-Serif" font-size="10.00">+</text>
<text text-anchor="start" x="45" y="-125.5" font-family="Helvetica,sans-Serif" font-size="10.00">onUserUpdated()</text>
<text text-anchor="start" x="19.5" y="-110.5" font-family="Helvetica,sans-Serif" font-size="10.00">+</text>
<text text-anchor="start" x="45" y="-110.5" font-family="Helvetica,sans-Serif" font-size="10.00">onUserLeave()</text>
<text text-anchor="start" x="19.5" y="-95.5" font-family="Helvetica,sans-Serif" font-size="10.00">+</text>
<text text-anchor="start" x="45" y="-95.5" font-family="Helvetica,sans-Serif" font-size="10.00">onUserRoleChanged()</text>
<text text-anchor="start" x="19.5" y="-80.5" font-family="Helvetica,sans-Serif" font-size="10.00">+</text>
<text text-anchor="start" x="45" y="-80.5" font-family="Helvetica,sans-Serif" font-size="10.00">onActiveSpeakerUserChanged()</text>
<text text-anchor="start" x="19.5" y="-65.5" font-family="Helvetica,sans-Serif" font-size="10.00">+</text>
<text text-anchor="start" x="45" y="-65.5" font-family="Helvetica,sans-Serif" font-size="10.00">onActiveVideoUserChanged()</text>
<text text-anchor="start" x="19.5" y="-50.5" font-family="Helvetica,sans-Serif" font-size="10.00">+</text>
<text text-anchor="start" x="45" y="-50.5" font-family="Helvetica,sans-Serif" font-size="10.00">onLocalNetworkQuality()</text>
<text text-anchor="start" x="19.5" y="-35.5" font-family="Helvetica,sans-Serif" font-size="10.00">+</text>
<text text-anchor="start" x="45" y="-35.5" font-family="Helvetica,sans-Serif" font-size="10.00">onRemoteNetworkQuality()</text>
<text text-anchor="start" x="19.5" y="-20.5" font-family="Helvetica,sans-Serif" font-size="10.00">+</text>
<text text-anchor="start" x="45" y="-20.5" font-family="Helvetica,sans-Serif" font-size="10.00">onCallOut()</text>
<text text-anchor="start" x="19.5" y="-5.5" font-family="Helvetica,sans-Serif" font-size="10.00">+</text>
<text text-anchor="start" x="45" y="-5.5" font-family="Helvetica,sans-Serif" font-size="10.00">onDeleteDial()</text>
<polygon fill="#666666" stroke="#666666" points="0,-167 0,-167 220,-167 220,-167 0,-167"/>
<polygon fill="#666666" stroke="#666666" points="0,-152 0,-152 220,-152 220,-152 0,-152"/>
<polygon fill="none" stroke="#666666" points="0,0 0,-184 220,-184 220,0 0,0"/>
</a>
</g>
</g>
</g>
</svg>
