<?xml version="1.0" encoding="UTF-8" standalone="no"?>
<!DOCTYPE svg PUBLIC "-//W3C//DTD SVG 1.1//EN"
 "http://www.w3.org/Graphics/SVG/1.1/DTD/svg11.dtd">
<!-- Generated by graphviz version 8.0.4 (20230421.1958)
 -->
<!-- Title: com.ringcentral.video.RcvVideoCanvas Pages: 1 -->
<svg width="361pt" height="544pt"
 viewBox="0.00 0.00 361.38 544.00" xmlns="http://www.w3.org/2000/svg" xmlns:xlink="http://www.w3.org/1999/xlink">
<g id="graph0" class="graph" transform="scale(1 1) rotate(0) translate(4 540)">
<title>com.ringcentral.video.RcvVideoCanvas</title>
<!-- Node1 -->
<g id="node1" class="node">
<title>Node1</title>
<g id="a_node1"><a xlink:title=" ">
<polygon fill="#999999" stroke="#666666" points="138,-0.5 138,-362 326.5,-362 326.5,-0.5 138,-0.5"/>
<text text-anchor="middle" x="232.25" y="-348.5" font-family="Helvetica,sans-Serif" font-size="10.00">com.ringcentral.video.RcvVideoCanvas</text>
<polyline fill="none" stroke="#666666" points="138,-342.75 326.5,-342.75"/>
<text text-anchor="middle" x="232.25" y="-329.25" font-family="Helvetica,sans-Serif" font-size="10.00"> </text>
<polyline fill="none" stroke="#666666" points="138,-323.5 326.5,-323.5"/>
<text text-anchor="start" x="146" y="-310" font-family="Helvetica,sans-Serif" font-size="10.00">+ createVideoTypeMap()</text>
<text text-anchor="start" x="146" y="-298.75" font-family="Helvetica,sans-Serif" font-size="10.00">+ RcvVideoCanvas()</text>
<text text-anchor="start" x="146" y="-287.5" font-family="Helvetica,sans-Serif" font-size="10.00">+ RcvVideoCanvas()</text>
<text text-anchor="start" x="146" y="-276.25" font-family="Helvetica,sans-Serif" font-size="10.00">+ RcvVideoCanvas()</text>
<text text-anchor="start" x="146" y="-265" font-family="Helvetica,sans-Serif" font-size="10.00">+ RcvVideoCanvas()</text>
<text text-anchor="start" x="146" y="-253.75" font-family="Helvetica,sans-Serif" font-size="10.00">+ initCanvas()</text>
<text text-anchor="start" x="146" y="-242.5" font-family="Helvetica,sans-Serif" font-size="10.00">+ setFrameResolutionChangeListener()</text>
<text text-anchor="start" x="146" y="-231.25" font-family="Helvetica,sans-Serif" font-size="10.00">+ attachView()</text>
<text text-anchor="start" x="146" y="-220" font-family="Helvetica,sans-Serif" font-size="10.00">+ detachView()</text>
<text text-anchor="start" x="146" y="-208.75" font-family="Helvetica,sans-Serif" font-size="10.00">+ getView()</text>
<text text-anchor="start" x="146" y="-197.5" font-family="Helvetica,sans-Serif" font-size="10.00">+ setUid()</text>
<text text-anchor="start" x="146" y="-186.25" font-family="Helvetica,sans-Serif" font-size="10.00">+ getUid()</text>
<text text-anchor="start" x="146" y="-175" font-family="Helvetica,sans-Serif" font-size="10.00">+ setRenderMode()</text>
<text text-anchor="start" x="146" y="-163.75" font-family="Helvetica,sans-Serif" font-size="10.00">+ getRenderMode()</text>
<text text-anchor="start" x="146" y="-152.5" font-family="Helvetica,sans-Serif" font-size="10.00">+ setMirrorMode()</text>
<text text-anchor="start" x="146" y="-141.25" font-family="Helvetica,sans-Serif" font-size="10.00">+ isMirrorMode()</text>
<text text-anchor="start" x="146" y="-130" font-family="Helvetica,sans-Serif" font-size="10.00">+ attach()</text>
<text text-anchor="start" x="146" y="-118.75" font-family="Helvetica,sans-Serif" font-size="10.00">+ attachTrack()</text>
<text text-anchor="start" x="146" y="-107.5" font-family="Helvetica,sans-Serif" font-size="10.00">+ detach()</text>
<text text-anchor="start" x="146" y="-96.25" font-family="Helvetica,sans-Serif" font-size="10.00">+ detachTrack()</text>
<text text-anchor="start" x="146" y="-85" font-family="Helvetica,sans-Serif" font-size="10.00">+ onFirstFrameRendered()</text>
<text text-anchor="start" x="146" y="-73.75" font-family="Helvetica,sans-Serif" font-size="10.00">+ onFrameResolutionChanged()</text>
<text text-anchor="start" x="146" y="-62.5" font-family="Helvetica,sans-Serif" font-size="10.00">+ onFrame()</text>
<text text-anchor="start" x="146" y="-51.25" font-family="Helvetica,sans-Serif" font-size="10.00">~ setup()</text>
<text text-anchor="start" x="146" y="-40" font-family="Helvetica,sans-Serif" font-size="10.00">~ attachRenderer()</text>
<text text-anchor="start" x="146" y="-28.75" font-family="Helvetica,sans-Serif" font-size="10.00">~ detachRenderer()</text>
<text text-anchor="start" x="146" y="-17.5" font-family="Helvetica,sans-Serif" font-size="10.00">~ updateRenderMode()</text>
<text text-anchor="start" x="146" y="-6.25" font-family="Helvetica,sans-Serif" font-size="10.00"># finalize()</text>
</a>
</g>
</g>
<!-- Node2 -->
<g id="node2" class="node">
<title>Node2</title>
<g id="a_node2"><a xlink:href="classcom_1_1ringcentral_1_1video_1_1_video_canvas.html" target="_top" xlink:title=" ">
<polygon fill="white" stroke="#666666" points="0,-399 0,-535.5 170.5,-535.5 170.5,-399 0,-399"/>
<text text-anchor="middle" x="85.25" y="-522" font-family="Helvetica,sans-Serif" font-size="10.00">com.ringcentral.video.VideoCanvas</text>
<polyline fill="none" stroke="#666666" points="0,-516.25 170.5,-516.25"/>
<text text-anchor="middle" x="85.25" y="-502.75" font-family="Helvetica,sans-Serif" font-size="10.00"> </text>
<polyline fill="none" stroke="#666666" points="0,-497 170.5,-497"/>
<text text-anchor="start" x="8" y="-483.5" font-family="Helvetica,sans-Serif" font-size="10.00">+ setUid()</text>
<text text-anchor="start" x="8" y="-472.25" font-family="Helvetica,sans-Serif" font-size="10.00">+ getUid()</text>
<text text-anchor="start" x="8" y="-461" font-family="Helvetica,sans-Serif" font-size="10.00">+ setRenderMode()</text>
<text text-anchor="start" x="8" y="-449.75" font-family="Helvetica,sans-Serif" font-size="10.00">+ getRenderMode()</text>
<text text-anchor="start" x="8" y="-438.5" font-family="Helvetica,sans-Serif" font-size="10.00">+ setMirrorMode()</text>
<text text-anchor="start" x="8" y="-427.25" font-family="Helvetica,sans-Serif" font-size="10.00">+ isMirrorMode()</text>
<text text-anchor="start" x="8" y="-416" font-family="Helvetica,sans-Serif" font-size="10.00">+ attachTrack()</text>
<text text-anchor="start" x="8" y="-404.75" font-family="Helvetica,sans-Serif" font-size="10.00">+ detachTrack()</text>
</a>
</g>
</g>
<!-- Node2&#45;&gt;Node1 -->
<g id="edge1" class="edge">
<title>Node2&#45;&gt;Node1</title>
<path fill="none" stroke="#63b8ff" d="M124.84,-389.77C129.47,-380.81 134.34,-371.41 139.34,-361.75"/>
<polygon fill="none" stroke="#63b8ff" points="121.39,-387.82 119.9,-398.31 127.61,-391.03 121.39,-387.82"/>
</g>
<!-- Node3 -->
<g id="node3" class="node">
<title>Node3</title>
<g id="a_node3"><a xlink:title=" ">
<polygon fill="white" stroke="#666666" points="189,-438.38 189,-496.12 275.5,-496.12 275.5,-438.38 189,-438.38"/>
<text text-anchor="middle" x="232.25" y="-482.62" font-family="Helvetica,sans-Serif" font-size="10.00">RendererEvents</text>
<polyline fill="none" stroke="#666666" points="189,-476.88 275.5,-476.88"/>
<text text-anchor="middle" x="232.25" y="-463.38" font-family="Helvetica,sans-Serif" font-size="10.00"> </text>
<polyline fill="none" stroke="#666666" points="189,-457.62 275.5,-457.62"/>
<text text-anchor="middle" x="232.25" y="-444.12" font-family="Helvetica,sans-Serif" font-size="10.00"> </text>
</a>
</g>
</g>
<!-- Node3&#45;&gt;Node1 -->
<g id="edge2" class="edge">
<title>Node3&#45;&gt;Node1</title>
<path fill="none" stroke="#63b8ff" d="M232.25,-427.61C232.25,-409.5 232.25,-386.49 232.25,-361.86"/>
<polygon fill="none" stroke="#63b8ff" points="228.75,-427.5 232.25,-437.5 235.75,-427.5 228.75,-427.5"/>
</g>
<!-- Node4 -->
<g id="node4" class="node">
<title>Node4</title>
<g id="a_node4"><a xlink:title=" ">
<polygon fill="white" stroke="#666666" points="293.12,-438.38 293.12,-496.12 353.38,-496.12 353.38,-438.38 293.12,-438.38"/>
<text text-anchor="middle" x="323.25" y="-482.62" font-family="Helvetica,sans-Serif" font-size="10.00">VideoSink</text>
<polyline fill="none" stroke="#666666" points="293.12,-476.88 353.38,-476.88"/>
<text text-anchor="middle" x="323.25" y="-463.38" font-family="Helvetica,sans-Serif" font-size="10.00"> </text>
<polyline fill="none" stroke="#666666" points="293.12,-457.62 353.38,-457.62"/>
<text text-anchor="middle" x="323.25" y="-444.12" font-family="Helvetica,sans-Serif" font-size="10.00"> </text>
</a>
</g>
</g>
<!-- Node4&#45;&gt;Node1 -->
<g id="edge3" class="edge">
<title>Node4&#45;&gt;Node1</title>
<path fill="none" stroke="#63b8ff" d="M311.03,-428.13C305.21,-409.94 297.77,-386.73 289.8,-361.86"/>
<polygon fill="none" stroke="#63b8ff" points="307.97,-429.05 314.36,-437.5 314.64,-426.91 307.97,-429.05"/>
</g>
</g>
</svg>
