<?xml version="1.0" encoding="UTF-8" standalone="no"?>
<!DOCTYPE svg PUBLIC "-//W3C//DTD SVG 1.1//EN"
 "http://www.w3.org/Graphics/SVG/1.1/DTD/svg11.dtd">
<!-- Generated by graphviz version 2.30.1 (20201013.1554)
 -->
<!-- Title: com.ringcentral.video.OauthOptions Pages: 1 -->
<svg width="162pt" height="426pt"
 viewBox="0.00 0.00 162.00 426.00" xmlns="http://www.w3.org/2000/svg" xmlns:xlink="http://www.w3.org/1999/xlink">
<g id="graph0" class="graph" transform="scale(1 1) rotate(0) translate(4 422)">
<title>com.ringcentral.video.OauthOptions</title>
<polygon fill="white" stroke="white" points="-4,5 -4,-422 159,-422 159,5 -4,5"/>
<!-- Node1 -->
<g id="node1" class="node"><title>Node1</title>
<polygon fill="#bfbfbf" stroke="black" points="-0.5,-239 -0.5,-417 154.5,-417 154.5,-239 -0.5,-239"/>
<text text-anchor="start" x="7.5" y="-405" font-family="Helvetica,sans-Serif" font-size="10.00">com.ringcentral.video.Oauth</text>
<text text-anchor="middle" x="77" y="-394" font-family="Helvetica,sans-Serif" font-size="10.00">Options</text>
<polyline fill="none" stroke="black" points="-0.5,-387 154.5,-387 "/>
<text text-anchor="middle" x="77" y="-375" font-family="Helvetica,sans-Serif" font-size="10.00"> </text>
<polyline fill="none" stroke="black" points="-0.5,-368 154.5,-368 "/>
<text text-anchor="start" x="7.5" y="-356" font-family="Helvetica,sans-Serif" font-size="10.00">+ setGrantType()</text>
<text text-anchor="start" x="7.5" y="-345" font-family="Helvetica,sans-Serif" font-size="10.00">+ getGrantType()</text>
<text text-anchor="start" x="7.5" y="-334" font-family="Helvetica,sans-Serif" font-size="10.00">+ setUserName()</text>
<text text-anchor="start" x="7.5" y="-323" font-family="Helvetica,sans-Serif" font-size="10.00">+ getUserName()</text>
<text text-anchor="start" x="7.5" y="-312" font-family="Helvetica,sans-Serif" font-size="10.00">+ setPassword()</text>
<text text-anchor="start" x="7.5" y="-301" font-family="Helvetica,sans-Serif" font-size="10.00">+ getPassword()</text>
<text text-anchor="start" x="7.5" y="-290" font-family="Helvetica,sans-Serif" font-size="10.00">+ setJwt()</text>
<text text-anchor="start" x="7.5" y="-279" font-family="Helvetica,sans-Serif" font-size="10.00">+ getJwt()</text>
<text text-anchor="start" x="7.5" y="-268" font-family="Helvetica,sans-Serif" font-size="10.00">+ setAutoRefresh()</text>
<text text-anchor="start" x="7.5" y="-257" font-family="Helvetica,sans-Serif" font-size="10.00">+ getAutoRefresh()</text>
<text text-anchor="start" x="7.5" y="-246" font-family="Helvetica,sans-Serif" font-size="10.00">+ create()</text>
</g>
<!-- Node2 -->
<g id="node2" class="node"><title>Node2</title>
<polygon fill="white" stroke="#bfbfbf" points="-0.5,-1 -0.5,-201 154.5,-201 154.5,-1 -0.5,-1"/>
<text text-anchor="start" x="7.5" y="-189" font-family="Helvetica,sans-Serif" font-size="10.00">com.ringcentral.video.Oauth</text>
<text text-anchor="middle" x="77" y="-178" font-family="Helvetica,sans-Serif" font-size="10.00">Options.CppProxy</text>
<polyline fill="none" stroke="#bfbfbf" points="-0.5,-171 154.5,-171 "/>
<text text-anchor="middle" x="77" y="-159" font-family="Helvetica,sans-Serif" font-size="10.00"> </text>
<polyline fill="none" stroke="#bfbfbf" points="-0.5,-152 154.5,-152 "/>
<text text-anchor="start" x="7.5" y="-140" font-family="Helvetica,sans-Serif" font-size="10.00">+ _djinni_private_destroy()</text>
<text text-anchor="start" x="7.5" y="-129" font-family="Helvetica,sans-Serif" font-size="10.00">+ setGrantType()</text>
<text text-anchor="start" x="7.5" y="-118" font-family="Helvetica,sans-Serif" font-size="10.00">+ getGrantType()</text>
<text text-anchor="start" x="7.5" y="-107" font-family="Helvetica,sans-Serif" font-size="10.00">+ setUserName()</text>
<text text-anchor="start" x="7.5" y="-96" font-family="Helvetica,sans-Serif" font-size="10.00">+ getUserName()</text>
<text text-anchor="start" x="7.5" y="-85" font-family="Helvetica,sans-Serif" font-size="10.00">+ setPassword()</text>
<text text-anchor="start" x="7.5" y="-74" font-family="Helvetica,sans-Serif" font-size="10.00">+ getPassword()</text>
<text text-anchor="start" x="7.5" y="-63" font-family="Helvetica,sans-Serif" font-size="10.00">+ setJwt()</text>
<text text-anchor="start" x="7.5" y="-52" font-family="Helvetica,sans-Serif" font-size="10.00">+ getJwt()</text>
<text text-anchor="start" x="7.5" y="-41" font-family="Helvetica,sans-Serif" font-size="10.00">+ setAutoRefresh()</text>
<text text-anchor="start" x="7.5" y="-30" font-family="Helvetica,sans-Serif" font-size="10.00">+ getAutoRefresh()</text>
<text text-anchor="start" x="7.5" y="-19" font-family="Helvetica,sans-Serif" font-size="10.00">+ create()</text>
<text text-anchor="start" x="7.5" y="-8" font-family="Helvetica,sans-Serif" font-size="10.00"># finalize()</text>
</g>
<!-- Node1&#45;&gt;Node2 -->
<g id="edge1" class="edge"><title>Node1&#45;&gt;Node2</title>
<path fill="none" stroke="midnightblue" d="M77,-228.542C77,-219.47 77,-210.274 77,-201.195"/>
<polygon fill="none" stroke="midnightblue" points="73.5001,-228.72 77,-238.72 80.5001,-228.72 73.5001,-228.72"/>
</g>
</g>
</svg>
