<?xml version="1.0" encoding="UTF-8" standalone="no"?>
<!DOCTYPE svg PUBLIC "-//W3C//DTD SVG 1.1//EN"
 "http://www.w3.org/Graphics/SVG/1.1/DTD/svg11.dtd">
<!-- Generated by graphviz version 8.0.4 (20230421.1958)
 -->
<!-- Title: com.ringcentral.video.RcvTextureViewRenderer Pages: 1 -->
<svg width="395pt" height="443pt"
 viewBox="0.00 0.00 395.25 442.75" xmlns="http://www.w3.org/2000/svg" xmlns:xlink="http://www.w3.org/1999/xlink">
<g id="graph0" class="graph" transform="scale(1 1) rotate(0) translate(4 438.75)">
<title>com.ringcentral.video.RcvTextureViewRenderer</title>
<!-- Node1 -->
<g id="node1" class="node">
<title>Node1</title>
<g id="a_node1"><a xlink:title=" ">
<polygon fill="#999999" stroke="#666666" points="59.12,-0.5 59.12,-339.5 282.88,-339.5 282.88,-0.5 59.12,-0.5"/>
<text text-anchor="middle" x="171" y="-326" font-family="Helvetica,sans-Serif" font-size="10.00">com.ringcentral.video.RcvTextureViewRenderer</text>
<polyline fill="none" stroke="#666666" points="59.12,-320.25 282.88,-320.25"/>
<text text-anchor="middle" x="171" y="-306.75" font-family="Helvetica,sans-Serif" font-size="10.00"> </text>
<polyline fill="none" stroke="#666666" points="59.12,-301 282.88,-301"/>
<text text-anchor="start" x="67.12" y="-287.5" font-family="Helvetica,sans-Serif" font-size="10.00">+ RcvTextureViewRenderer()</text>
<text text-anchor="start" x="67.12" y="-276.25" font-family="Helvetica,sans-Serif" font-size="10.00">+ RcvTextureViewRenderer()</text>
<text text-anchor="start" x="67.12" y="-265" font-family="Helvetica,sans-Serif" font-size="10.00">+ init()</text>
<text text-anchor="start" x="67.12" y="-253.75" font-family="Helvetica,sans-Serif" font-size="10.00">+ init()</text>
<text text-anchor="start" x="67.12" y="-242.5" font-family="Helvetica,sans-Serif" font-size="10.00">+ release()</text>
<text text-anchor="start" x="67.12" y="-231.25" font-family="Helvetica,sans-Serif" font-size="10.00">+ addFrameListener()</text>
<text text-anchor="start" x="67.12" y="-220" font-family="Helvetica,sans-Serif" font-size="10.00">+ addFrameListener()</text>
<text text-anchor="start" x="67.12" y="-208.75" font-family="Helvetica,sans-Serif" font-size="10.00">+ removeFrameListener()</text>
<text text-anchor="start" x="67.12" y="-197.5" font-family="Helvetica,sans-Serif" font-size="10.00">+ clearRendererEvents()</text>
<text text-anchor="start" x="67.12" y="-186.25" font-family="Helvetica,sans-Serif" font-size="10.00">+ setRendererEvents()</text>
<text text-anchor="start" x="67.12" y="-175" font-family="Helvetica,sans-Serif" font-size="10.00">+ setMirror()</text>
<text text-anchor="start" x="67.12" y="-163.75" font-family="Helvetica,sans-Serif" font-size="10.00">+ setRenderMode()</text>
<text text-anchor="start" x="67.12" y="-152.5" font-family="Helvetica,sans-Serif" font-size="10.00">+ setFpsReduction()</text>
<text text-anchor="start" x="67.12" y="-141.25" font-family="Helvetica,sans-Serif" font-size="10.00">+ disableFpsReduction()</text>
<text text-anchor="start" x="67.12" y="-130" font-family="Helvetica,sans-Serif" font-size="10.00">+ pauseVideo()</text>
<text text-anchor="start" x="67.12" y="-118.75" font-family="Helvetica,sans-Serif" font-size="10.00">+ onFrame()</text>
<text text-anchor="start" x="67.12" y="-107.5" font-family="Helvetica,sans-Serif" font-size="10.00">+ onSurfaceTextureAvailable()</text>
<text text-anchor="start" x="67.12" y="-96.25" font-family="Helvetica,sans-Serif" font-size="10.00">+ onSurfaceTextureSizeChanged()</text>
<text text-anchor="start" x="67.12" y="-85" font-family="Helvetica,sans-Serif" font-size="10.00">+ onSurfaceTextureDestroyed()</text>
<text text-anchor="start" x="67.12" y="-73.75" font-family="Helvetica,sans-Serif" font-size="10.00">+ onSurfaceTextureUpdated()</text>
<text text-anchor="start" x="67.12" y="-62.5" font-family="Helvetica,sans-Serif" font-size="10.00">+ clearImage()</text>
<text text-anchor="start" x="67.12" y="-51.25" font-family="Helvetica,sans-Serif" font-size="10.00">+ onFirstFrameRendered()</text>
<text text-anchor="start" x="67.12" y="-40" font-family="Helvetica,sans-Serif" font-size="10.00">+ onFrameResolutionChanged()</text>
<text text-anchor="start" x="67.12" y="-28.75" font-family="Helvetica,sans-Serif" font-size="10.00">+ postOrRun()</text>
<text text-anchor="start" x="67.12" y="-17.5" font-family="Helvetica,sans-Serif" font-size="10.00"># onMeasure()</text>
<text text-anchor="start" x="67.12" y="-6.25" font-family="Helvetica,sans-Serif" font-size="10.00"># onLayout()</text>
</a>
</g>
</g>
<!-- Node2 -->
<g id="node2" class="node">
<title>Node2</title>
<g id="a_node2"><a xlink:title=" ">
<polygon fill="white" stroke="#666666" points="0,-376.5 0,-434.25 70,-434.25 70,-376.5 0,-376.5"/>
<text text-anchor="middle" x="35" y="-420.75" font-family="Helvetica,sans-Serif" font-size="10.00">TextureView</text>
<polyline fill="none" stroke="#666666" points="0,-415 70,-415"/>
<text text-anchor="middle" x="35" y="-401.5" font-family="Helvetica,sans-Serif" font-size="10.00"> </text>
<polyline fill="none" stroke="#666666" points="0,-395.75 70,-395.75"/>
<text text-anchor="middle" x="35" y="-382.25" font-family="Helvetica,sans-Serif" font-size="10.00"> </text>
</a>
</g>
</g>
<!-- Node2&#45;&gt;Node1 -->
<g id="edge1" class="edge">
<title>Node2&#45;&gt;Node1</title>
<path fill="none" stroke="#63b8ff" d="M56.61,-367.29C61.53,-358.84 67.08,-349.33 73,-339.18"/>
<polygon fill="none" stroke="#63b8ff" points="53.15,-365.29 51.14,-375.69 59.19,-368.81 53.15,-365.29"/>
</g>
<!-- Node3 -->
<g id="node3" class="node">
<title>Node3</title>
<g id="a_node3"><a xlink:title=" ">
<polygon fill="white" stroke="#666666" points="87.88,-376.5 87.88,-434.25 148.12,-434.25 148.12,-376.5 87.88,-376.5"/>
<text text-anchor="middle" x="118" y="-420.75" font-family="Helvetica,sans-Serif" font-size="10.00">VideoSink</text>
<polyline fill="none" stroke="#666666" points="87.88,-415 148.12,-415"/>
<text text-anchor="middle" x="118" y="-401.5" font-family="Helvetica,sans-Serif" font-size="10.00"> </text>
<polyline fill="none" stroke="#666666" points="87.88,-395.75 148.12,-395.75"/>
<text text-anchor="middle" x="118" y="-382.25" font-family="Helvetica,sans-Serif" font-size="10.00"> </text>
</a>
</g>
</g>
<!-- Node3&#45;&gt;Node1 -->
<g id="edge2" class="edge">
<title>Node3&#45;&gt;Node1</title>
<path fill="none" stroke="#63b8ff" d="M126.67,-366.18C128.53,-358.01 130.6,-348.89 132.81,-339.18"/>
<polygon fill="none" stroke="#63b8ff" points="123.09,-365.16 124.29,-375.69 129.92,-366.71 123.09,-365.16"/>
</g>
<!-- Node4 -->
<g id="node4" class="node">
<title>Node4</title>
<g id="a_node4"><a xlink:title=" ">
<polygon fill="white" stroke="#666666" points="165.75,-376.5 165.75,-434.25 282.25,-434.25 282.25,-376.5 165.75,-376.5"/>
<text text-anchor="middle" x="224" y="-420.75" font-family="Helvetica,sans-Serif" font-size="10.00">SurfaceTextureListener</text>
<polyline fill="none" stroke="#666666" points="165.75,-415 282.25,-415"/>
<text text-anchor="middle" x="224" y="-401.5" font-family="Helvetica,sans-Serif" font-size="10.00"> </text>
<polyline fill="none" stroke="#666666" points="165.75,-395.75 282.25,-395.75"/>
<text text-anchor="middle" x="224" y="-382.25" font-family="Helvetica,sans-Serif" font-size="10.00"> </text>
</a>
</g>
</g>
<!-- Node4&#45;&gt;Node1 -->
<g id="edge3" class="edge">
<title>Node4&#45;&gt;Node1</title>
<path fill="none" stroke="#63b8ff" d="M215.33,-366.18C213.47,-358.01 211.4,-348.89 209.19,-339.18"/>
<polygon fill="none" stroke="#63b8ff" points="212.08,-366.71 217.71,-375.69 218.91,-365.16 212.08,-366.71"/>
</g>
<!-- Node5 -->
<g id="node5" class="node">
<title>Node5</title>
<g id="a_node5"><a xlink:title=" ">
<polygon fill="white" stroke="#666666" points="300.75,-376.5 300.75,-434.25 387.25,-434.25 387.25,-376.5 300.75,-376.5"/>
<text text-anchor="middle" x="344" y="-420.75" font-family="Helvetica,sans-Serif" font-size="10.00">RendererEvents</text>
<polyline fill="none" stroke="#666666" points="300.75,-415 387.25,-415"/>
<text text-anchor="middle" x="344" y="-401.5" font-family="Helvetica,sans-Serif" font-size="10.00"> </text>
<polyline fill="none" stroke="#666666" points="300.75,-395.75 387.25,-395.75"/>
<text text-anchor="middle" x="344" y="-382.25" font-family="Helvetica,sans-Serif" font-size="10.00"> </text>
</a>
</g>
</g>
<!-- Node5&#45;&gt;Node1 -->
<g id="edge4" class="edge">
<title>Node5&#45;&gt;Node1</title>
<path fill="none" stroke="#63b8ff" d="M317.01,-367.97C307.2,-354.73 295.4,-338.81 282.81,-321.84"/>
<polygon fill="none" stroke="#63b8ff" points="314.71,-369.74 323.48,-375.69 320.33,-365.57 314.71,-369.74"/>
</g>
</g>
</svg>
