<?xml version="1.0" encoding="UTF-8" standalone="no"?>
<!DOCTYPE svg PUBLIC "-//W3C//DTD SVG 1.1//EN"
 "http://www.w3.org/Graphics/SVG/1.1/DTD/svg11.dtd">
<!-- Generated by graphviz version 8.1.0 (20230707.0739)
 -->
<!-- Title: com.ringcentral.video.MeetingDialCountryInfo Pages: 1 -->
<svg width="216pt" height="102pt"
 viewBox="0.00 0.00 216.00 102.00" xmlns="http://www.w3.org/2000/svg" xmlns:xlink="http://www.w3.org/1999/xlink">
<g id="graph0" class="graph" transform="scale(1 1) rotate(0) translate(4 98)">
<title>com.ringcentral.video.MeetingDialCountryInfo</title>
<!-- Node1 -->
<g id="Node000001" class="node">
<title>Node1</title>
<g id="a_Node000001"><a xlink:title=" ">
<polygon fill="#999999" stroke="none" points="208,-94 0,-94 0,0 208,0 208,-94"/>
<text text-anchor="start" x="4.62" y="-80.5" font-family="Helvetica,sans-Serif" font-size="10.00">com.ringcentral.video.MeetingDialCountryInfo</text>
<text text-anchor="start" x="102.5" y="-65.5" font-family="Helvetica,sans-Serif" font-size="10.00"> </text>
<text text-anchor="start" x="37" y="-50.5" font-family="Helvetica,sans-Serif" font-size="10.00">+</text>
<text text-anchor="start" x="80" y="-50.5" font-family="Helvetica,sans-Serif" font-size="10.00">id()</text>
<text text-anchor="start" x="37" y="-35.5" font-family="Helvetica,sans-Serif" font-size="10.00">+</text>
<text text-anchor="start" x="80" y="-35.5" font-family="Helvetica,sans-Serif" font-size="10.00">name()</text>
<text text-anchor="start" x="37" y="-20.5" font-family="Helvetica,sans-Serif" font-size="10.00">+</text>
<text text-anchor="start" x="80" y="-20.5" font-family="Helvetica,sans-Serif" font-size="10.00">isoCode()</text>
<text text-anchor="start" x="37" y="-5.5" font-family="Helvetica,sans-Serif" font-size="10.00">+</text>
<text text-anchor="start" x="80" y="-5.5" font-family="Helvetica,sans-Serif" font-size="10.00">callingCode()</text>
<polygon fill="#666666" stroke="#666666" points="0,-77 0,-77 208,-77 208,-77 0,-77"/>
<polygon fill="#666666" stroke="#666666" points="0,-62 0,-62 208,-62 208,-62 0,-62"/>
<polygon fill="none" stroke="#666666" points="0,0 0,-94 208,-94 208,0 0,0"/>
</a>
</g>
</g>
</g>
</svg>
