<?xml version="1.0" encoding="UTF-8" standalone="no"?>
<!DOCTYPE svg PUBLIC "-//W3C//DTD SVG 1.1//EN"
 "http://www.w3.org/Graphics/SVG/1.1/DTD/svg11.dtd">
<!-- Generated by graphviz version 8.0.1 (20230327.1645)
 -->
<!-- Title: com.ringcentral.video.RcvVideoView Pages: 1 -->
<svg width="190pt" height="281pt"
 viewBox="0.00 0.00 190.00 281.00" xmlns="http://www.w3.org/2000/svg" xmlns:xlink="http://www.w3.org/1999/xlink">
<g id="graph0" class="graph" transform="scale(1 1) rotate(0) translate(4 277)">
<title>com.ringcentral.video.RcvVideoView</title>
<!-- Node1 -->
<g id="node1" class="node">
<title>Node1</title>
<g id="a_node1"><a xlink:title=" ">
<polygon fill="#999999" stroke="#666666" points="0,-0.5 0,-178.5 177,-178.5 177,-0.5 0,-0.5"/>
<text text-anchor="middle" x="88.5" y="-166.5" font-family="Helvetica,sans-Serif" font-size="10.00">com.ringcentral.video.RcvVideoView</text>
<polyline fill="none" stroke="#666666" points="0,-159.5 177,-159.5"/>
<text text-anchor="start" x="8" y="-147.5" font-family="Helvetica,sans-Serif" font-size="10.00">+ MATCH_PARENT</text>
<text text-anchor="start" x="8" y="-136.5" font-family="Helvetica,sans-Serif" font-size="10.00">+ WRAP_CONTENT</text>
<polyline fill="none" stroke="#666666" points="0,-129.5 177,-129.5"/>
<text text-anchor="start" x="8" y="-117.5" font-family="Helvetica,sans-Serif" font-size="10.00">+ RcvVideoView()</text>
<text text-anchor="start" x="8" y="-106.5" font-family="Helvetica,sans-Serif" font-size="10.00">+ RcvVideoView()</text>
<text text-anchor="start" x="8" y="-95.5" font-family="Helvetica,sans-Serif" font-size="10.00">+ RcvVideoView()</text>
<text text-anchor="start" x="8" y="-84.5" font-family="Helvetica,sans-Serif" font-size="10.00">+ RcvVideoView()</text>
<text text-anchor="start" x="8" y="-73.5" font-family="Helvetica,sans-Serif" font-size="10.00">+ onRelease()</text>
<text text-anchor="start" x="8" y="-62.5" font-family="Helvetica,sans-Serif" font-size="10.00">+ release()</text>
<text text-anchor="start" x="8" y="-51.5" font-family="Helvetica,sans-Serif" font-size="10.00">+ setMirror()</text>
<text text-anchor="start" x="8" y="-40.5" font-family="Helvetica,sans-Serif" font-size="10.00">+ setRenderMode()</text>
<text text-anchor="start" x="8" y="-29.5" font-family="Helvetica,sans-Serif" font-size="10.00">+ setRendererLayout()</text>
<text text-anchor="start" x="8" y="-18.5" font-family="Helvetica,sans-Serif" font-size="10.00">+ getRenderer()</text>
<text text-anchor="start" x="8" y="-7.5" font-family="Helvetica,sans-Serif" font-size="10.00"># getLayoutId()</text>
</a>
</g>
</g>
<!-- Node2 -->
<g id="node2" class="node">
<title>Node2</title>
<g id="a_node2"><a xlink:title=" ">
<polygon fill="white" stroke="#666666" points="2.5,-215.5 2.5,-272.5 76.5,-272.5 76.5,-215.5 2.5,-215.5"/>
<text text-anchor="middle" x="39.5" y="-260.5" font-family="Helvetica,sans-Serif" font-size="10.00">FrameLayout</text>
<polyline fill="none" stroke="#666666" points="2.5,-253.5 76.5,-253.5"/>
<text text-anchor="middle" x="39.5" y="-241.5" font-family="Helvetica,sans-Serif" font-size="10.00"> </text>
<polyline fill="none" stroke="#666666" points="2.5,-234.5 76.5,-234.5"/>
<text text-anchor="middle" x="39.5" y="-222.5" font-family="Helvetica,sans-Serif" font-size="10.00"> </text>
</a>
</g>
</g>
<!-- Node2&#45;&gt;Node1 -->
<g id="edge1" class="edge">
<title>Node2&#45;&gt;Node1</title>
<path fill="none" stroke="#63b8ff" d="M51.62,-205.29C54.3,-196.93 57.26,-187.74 60.29,-178.31"/>
<polygon fill="none" stroke="#63b8ff" points="47.99,-204.14 48.26,-214.74 54.65,-206.29 47.99,-204.14"/>
</g>
<!-- Node3 -->
<g id="node3" class="node">
<title>Node3</title>
<g id="a_node3"><a xlink:title=" ">
<polygon fill="white" stroke="#666666" points="95,-215.5 95,-272.5 182,-272.5 182,-215.5 95,-215.5"/>
<text text-anchor="middle" x="138.5" y="-260.5" font-family="Helvetica,sans-Serif" font-size="10.00">ReleasableView</text>
<polyline fill="none" stroke="#666666" points="95,-253.5 182,-253.5"/>
<text text-anchor="middle" x="138.5" y="-241.5" font-family="Helvetica,sans-Serif" font-size="10.00"> </text>
<polyline fill="none" stroke="#666666" points="95,-234.5 182,-234.5"/>
<text text-anchor="middle" x="138.5" y="-222.5" font-family="Helvetica,sans-Serif" font-size="10.00"> </text>
</a>
</g>
</g>
<!-- Node3&#45;&gt;Node1 -->
<g id="edge2" class="edge">
<title>Node3&#45;&gt;Node1</title>
<path fill="none" stroke="#63b8ff" d="M126.13,-205.29C123.4,-196.93 120.38,-187.74 117.29,-178.31"/>
<polygon fill="none" stroke="#63b8ff" points="123.12,-206.32 129.56,-214.74 129.77,-204.14 123.12,-206.32"/>
</g>
</g>
</svg>
