<?xml version="1.0" encoding="UTF-8" standalone="no"?>
<!DOCTYPE svg PUBLIC "-//W3C//DTD SVG 1.1//EN"
 "http://www.w3.org/Graphics/SVG/1.1/DTD/svg11.dtd">
<!-- Generated by graphviz version 8.0.5 (20230430.1635)
 -->
<!-- Title: com.ringcentral.video.VideoEventHandler Pages: 1 -->
<svg width="198pt" height="117pt"
 viewBox="0.00 0.00 198.00 117.00" xmlns="http://www.w3.org/2000/svg" xmlns:xlink="http://www.w3.org/1999/xlink">
<g id="graph0" class="graph" transform="scale(1 1) rotate(0) translate(4 113)">
<title>com.ringcentral.video.VideoEventHandler</title>
<!-- Node1 -->
<g id="Node000001" class="node">
<title>Node1</title>
<g id="a_Node000001"><a xlink:title=" ">
<polygon fill="#999999" stroke="none" points="190,-109 0,-109 0,0 190,0 190,-109"/>
<text text-anchor="start" x="5" y="-95.5" font-family="Helvetica,sans-Serif" font-size="10.00">com.ringcentral.video.VideoEventHandler</text>
<text text-anchor="start" x="93.5" y="-80.5" font-family="Helvetica,sans-Serif" font-size="10.00"> </text>
<text text-anchor="start" x="13" y="-65.5" font-family="Helvetica,sans-Serif" font-size="10.00">+</text>
<text text-anchor="start" x="32" y="-65.5" font-family="Helvetica,sans-Serif" font-size="10.00">onLocalVideoMuteChanged()</text>
<text text-anchor="start" x="13" y="-50.5" font-family="Helvetica,sans-Serif" font-size="10.00">+</text>
<text text-anchor="start" x="32" y="-50.5" font-family="Helvetica,sans-Serif" font-size="10.00">onRemoteVideoMuteChanged()</text>
<text text-anchor="start" x="13" y="-35.5" font-family="Helvetica,sans-Serif" font-size="10.00">+</text>
<text text-anchor="start" x="32" y="-35.5" font-family="Helvetica,sans-Serif" font-size="10.00">onUnmuteVideoDemand()</text>
<text text-anchor="start" x="13" y="-20.5" font-family="Helvetica,sans-Serif" font-size="10.00">+</text>
<text text-anchor="start" x="32" y="-20.5" font-family="Helvetica,sans-Serif" font-size="10.00">onFirstLocalVideoFrame()</text>
<text text-anchor="start" x="13" y="-5.5" font-family="Helvetica,sans-Serif" font-size="10.00">+</text>
<text text-anchor="start" x="32" y="-5.5" font-family="Helvetica,sans-Serif" font-size="10.00">onFirstRemoteVideoFrame()</text>
<polygon fill="#666666" stroke="#666666" points="0,-92 0,-92 190,-92 190,-92 0,-92"/>
<polygon fill="#666666" stroke="#666666" points="0,-77 0,-77 190,-77 190,-77 0,-77"/>
<polygon fill="none" stroke="#666666" points="0,0 0,-109 190,-109 190,0 0,0"/>
</a>
</g>
</g>
</g>
</svg>
