<?xml version="1.0" encoding="UTF-8" standalone="no"?>
<!DOCTYPE svg PUBLIC "-//W3C//DTD SVG 1.1//EN"
 "http://www.w3.org/Graphics/SVG/1.1/DTD/svg11.dtd">
<!-- Generated by graphviz version 8.0.1 (20230327.1645)
 -->
<!-- Title: com.ringcentral.video.RcvTextureViewRenderer Pages: 1 -->
<svg width="398pt" height="435pt"
 viewBox="0.00 0.00 398.00 435.00" xmlns="http://www.w3.org/2000/svg" xmlns:xlink="http://www.w3.org/1999/xlink">
<g id="graph0" class="graph" transform="scale(1 1) rotate(0) translate(4 431)">
<title>com.ringcentral.video.RcvTextureViewRenderer</title>
<!-- Node1 -->
<g id="node1" class="node">
<title>Node1</title>
<g id="a_node1"><a xlink:title=" ">
<polygon fill="#999999" stroke="#666666" points="60.5,-0.5 60.5,-332.5 284.5,-332.5 284.5,-0.5 60.5,-0.5"/>
<text text-anchor="middle" x="172.5" y="-320.5" font-family="Helvetica,sans-Serif" font-size="10.00">com.ringcentral.video.RcvTextureViewRenderer</text>
<polyline fill="none" stroke="#666666" points="60.5,-313.5 284.5,-313.5"/>
<text text-anchor="middle" x="172.5" y="-301.5" font-family="Helvetica,sans-Serif" font-size="10.00"> </text>
<polyline fill="none" stroke="#666666" points="60.5,-294.5 284.5,-294.5"/>
<text text-anchor="start" x="68.5" y="-282.5" font-family="Helvetica,sans-Serif" font-size="10.00">+ RcvTextureViewRenderer()</text>
<text text-anchor="start" x="68.5" y="-271.5" font-family="Helvetica,sans-Serif" font-size="10.00">+ RcvTextureViewRenderer()</text>
<text text-anchor="start" x="68.5" y="-260.5" font-family="Helvetica,sans-Serif" font-size="10.00">+ init()</text>
<text text-anchor="start" x="68.5" y="-249.5" font-family="Helvetica,sans-Serif" font-size="10.00">+ init()</text>
<text text-anchor="start" x="68.5" y="-238.5" font-family="Helvetica,sans-Serif" font-size="10.00">+ release()</text>
<text text-anchor="start" x="68.5" y="-227.5" font-family="Helvetica,sans-Serif" font-size="10.00">+ addFrameListener()</text>
<text text-anchor="start" x="68.5" y="-216.5" font-family="Helvetica,sans-Serif" font-size="10.00">+ addFrameListener()</text>
<text text-anchor="start" x="68.5" y="-205.5" font-family="Helvetica,sans-Serif" font-size="10.00">+ removeFrameListener()</text>
<text text-anchor="start" x="68.5" y="-194.5" font-family="Helvetica,sans-Serif" font-size="10.00">+ clearRendererEvents()</text>
<text text-anchor="start" x="68.5" y="-183.5" font-family="Helvetica,sans-Serif" font-size="10.00">+ setRendererEvents()</text>
<text text-anchor="start" x="68.5" y="-172.5" font-family="Helvetica,sans-Serif" font-size="10.00">+ setMirror()</text>
<text text-anchor="start" x="68.5" y="-161.5" font-family="Helvetica,sans-Serif" font-size="10.00">+ setRenderMode()</text>
<text text-anchor="start" x="68.5" y="-150.5" font-family="Helvetica,sans-Serif" font-size="10.00">+ setFpsReduction()</text>
<text text-anchor="start" x="68.5" y="-139.5" font-family="Helvetica,sans-Serif" font-size="10.00">+ disableFpsReduction()</text>
<text text-anchor="start" x="68.5" y="-128.5" font-family="Helvetica,sans-Serif" font-size="10.00">+ pauseVideo()</text>
<text text-anchor="start" x="68.5" y="-117.5" font-family="Helvetica,sans-Serif" font-size="10.00">+ onFrame()</text>
<text text-anchor="start" x="68.5" y="-106.5" font-family="Helvetica,sans-Serif" font-size="10.00">+ onSurfaceTextureAvailable()</text>
<text text-anchor="start" x="68.5" y="-95.5" font-family="Helvetica,sans-Serif" font-size="10.00">+ onSurfaceTextureSizeChanged()</text>
<text text-anchor="start" x="68.5" y="-84.5" font-family="Helvetica,sans-Serif" font-size="10.00">+ onSurfaceTextureDestroyed()</text>
<text text-anchor="start" x="68.5" y="-73.5" font-family="Helvetica,sans-Serif" font-size="10.00">+ onSurfaceTextureUpdated()</text>
<text text-anchor="start" x="68.5" y="-62.5" font-family="Helvetica,sans-Serif" font-size="10.00">+ clearImage()</text>
<text text-anchor="start" x="68.5" y="-51.5" font-family="Helvetica,sans-Serif" font-size="10.00">+ onFirstFrameRendered()</text>
<text text-anchor="start" x="68.5" y="-40.5" font-family="Helvetica,sans-Serif" font-size="10.00">+ onFrameResolutionChanged()</text>
<text text-anchor="start" x="68.5" y="-29.5" font-family="Helvetica,sans-Serif" font-size="10.00">+ postOrRun()</text>
<text text-anchor="start" x="68.5" y="-18.5" font-family="Helvetica,sans-Serif" font-size="10.00"># onMeasure()</text>
<text text-anchor="start" x="68.5" y="-7.5" font-family="Helvetica,sans-Serif" font-size="10.00"># onLayout()</text>
</a>
</g>
</g>
<!-- Node2 -->
<g id="node2" class="node">
<title>Node2</title>
<g id="a_node2"><a xlink:title=" ">
<polygon fill="white" stroke="#666666" points="0,-369.5 0,-426.5 71,-426.5 71,-369.5 0,-369.5"/>
<text text-anchor="middle" x="35.5" y="-414.5" font-family="Helvetica,sans-Serif" font-size="10.00">TextureView</text>
<polyline fill="none" stroke="#666666" points="0,-407.5 71,-407.5"/>
<text text-anchor="middle" x="35.5" y="-395.5" font-family="Helvetica,sans-Serif" font-size="10.00"> </text>
<polyline fill="none" stroke="#666666" points="0,-388.5 71,-388.5"/>
<text text-anchor="middle" x="35.5" y="-376.5" font-family="Helvetica,sans-Serif" font-size="10.00"> </text>
</a>
</g>
</g>
<!-- Node2&#45;&gt;Node1 -->
<g id="edge1" class="edge">
<title>Node2&#45;&gt;Node1</title>
<path fill="none" stroke="#63b8ff" d="M57.34,-360.42C62.36,-352.01 68.02,-342.53 74.06,-332.4"/>
<polygon fill="none" stroke="#63b8ff" points="53.87,-358.39 51.75,-368.77 59.88,-361.98 53.87,-358.39"/>
</g>
<!-- Node3 -->
<g id="node3" class="node">
<title>Node3</title>
<g id="a_node3"><a xlink:title=" ">
<polygon fill="white" stroke="#666666" points="89,-369.5 89,-426.5 150,-426.5 150,-369.5 89,-369.5"/>
<text text-anchor="middle" x="119.5" y="-414.5" font-family="Helvetica,sans-Serif" font-size="10.00">VideoSink</text>
<polyline fill="none" stroke="#666666" points="89,-407.5 150,-407.5"/>
<text text-anchor="middle" x="119.5" y="-395.5" font-family="Helvetica,sans-Serif" font-size="10.00"> </text>
<polyline fill="none" stroke="#666666" points="89,-388.5 150,-388.5"/>
<text text-anchor="middle" x="119.5" y="-376.5" font-family="Helvetica,sans-Serif" font-size="10.00"> </text>
</a>
</g>
</g>
<!-- Node3&#45;&gt;Node1 -->
<g id="edge2" class="edge">
<title>Node3&#45;&gt;Node1</title>
<path fill="none" stroke="#63b8ff" d="M128.2,-359.31C130.08,-351.18 132.18,-342.09 134.42,-332.4"/>
<polygon fill="none" stroke="#63b8ff" points="124.63,-358.24 125.79,-368.77 131.45,-359.82 124.63,-358.24"/>
</g>
<!-- Node4 -->
<g id="node4" class="node">
<title>Node4</title>
<g id="a_node4"><a xlink:title=" ">
<polygon fill="white" stroke="#666666" points="168,-369.5 168,-426.5 285,-426.5 285,-369.5 168,-369.5"/>
<text text-anchor="middle" x="226.5" y="-414.5" font-family="Helvetica,sans-Serif" font-size="10.00">SurfaceTextureListener</text>
<polyline fill="none" stroke="#666666" points="168,-407.5 285,-407.5"/>
<text text-anchor="middle" x="226.5" y="-395.5" font-family="Helvetica,sans-Serif" font-size="10.00"> </text>
<polyline fill="none" stroke="#666666" points="168,-388.5 285,-388.5"/>
<text text-anchor="middle" x="226.5" y="-376.5" font-family="Helvetica,sans-Serif" font-size="10.00"> </text>
</a>
</g>
</g>
<!-- Node4&#45;&gt;Node1 -->
<g id="edge3" class="edge">
<title>Node4&#45;&gt;Node1</title>
<path fill="none" stroke="#63b8ff" d="M217.63,-359.31C215.72,-351.18 213.58,-342.09 211.3,-332.4"/>
<polygon fill="none" stroke="#63b8ff" points="214.4,-359.84 220.09,-368.77 221.21,-358.24 214.4,-359.84"/>
</g>
<!-- Node5 -->
<g id="node5" class="node">
<title>Node5</title>
<g id="a_node5"><a xlink:title=" ">
<polygon fill="white" stroke="#666666" points="303,-369.5 303,-426.5 390,-426.5 390,-369.5 303,-369.5"/>
<text text-anchor="middle" x="346.5" y="-414.5" font-family="Helvetica,sans-Serif" font-size="10.00">RendererEvents</text>
<polyline fill="none" stroke="#666666" points="303,-407.5 390,-407.5"/>
<text text-anchor="middle" x="346.5" y="-395.5" font-family="Helvetica,sans-Serif" font-size="10.00"> </text>
<polyline fill="none" stroke="#666666" points="303,-388.5 390,-388.5"/>
<text text-anchor="middle" x="346.5" y="-376.5" font-family="Helvetica,sans-Serif" font-size="10.00"> </text>
</a>
</g>
</g>
<!-- Node5&#45;&gt;Node1 -->
<g id="edge4" class="edge">
<title>Node5&#45;&gt;Node1</title>
<path fill="none" stroke="#63b8ff" d="M319.27,-361.09C309.27,-347.89 297.22,-332 284.38,-315.07"/>
<polygon fill="none" stroke="#63b8ff" points="317.03,-362.92 325.86,-368.77 322.6,-358.69 317.03,-362.92"/>
</g>
</g>
</svg>
