<?xml version="1.0" encoding="UTF-8" standalone="no"?>
<!DOCTYPE svg PUBLIC "-//W3C//DTD SVG 1.1//EN"
 "http://www.w3.org/Graphics/SVG/1.1/DTD/svg11.dtd">
<!-- Generated by graphviz version 2.30.1 (20201013.1554)
 -->
<!-- Title: com.ringcentral.video.LocalizationProvider Pages: 1 -->
<svg width="192pt" height="172pt"
 viewBox="0.00 0.00 192.00 172.00" xmlns="http://www.w3.org/2000/svg" xmlns:xlink="http://www.w3.org/1999/xlink">
<g id="graph0" class="graph" transform="scale(1 1) rotate(0) translate(4 168)">
<title>com.ringcentral.video.LocalizationProvider</title>
<polygon fill="white" stroke="white" points="-4,5 -4,-168 189,-168 189,5 -4,5"/>
<!-- Node1 -->
<g id="node1" class="node"><title>Node1</title>
<polygon fill="#bfbfbf" stroke="black" points="-0.5,-1 -0.5,-69 184.5,-69 184.5,-1 -0.5,-1"/>
<text text-anchor="start" x="7.5" y="-57" font-family="Helvetica,sans-Serif" font-size="10.00">com.ringcentral.video.Localization</text>
<text text-anchor="middle" x="92" y="-46" font-family="Helvetica,sans-Serif" font-size="10.00">Provider</text>
<polyline fill="none" stroke="black" points="-0.5,-39 184.5,-39 "/>
<text text-anchor="middle" x="92" y="-27" font-family="Helvetica,sans-Serif" font-size="10.00"> </text>
<polyline fill="none" stroke="black" points="-0.5,-20 184.5,-20 "/>
<text text-anchor="start" x="7.5" y="-8" font-family="Helvetica,sans-Serif" font-size="10.00">+ getLocaleString()</text>
</g>
<!-- Node2 -->
<g id="node2" class="node"><title>Node2</title>
<polygon fill="white" stroke="#bfbfbf" points="32.5,-106.5 32.5,-163.5 151.5,-163.5 151.5,-106.5 32.5,-106.5"/>
<text text-anchor="middle" x="92" y="-151.5" font-family="Helvetica,sans-Serif" font-size="10.00">ILocalizationProvider</text>
<polyline fill="none" stroke="#bfbfbf" points="32.5,-144.5 151.5,-144.5 "/>
<text text-anchor="middle" x="92" y="-132.5" font-family="Helvetica,sans-Serif" font-size="10.00"> </text>
<polyline fill="none" stroke="#bfbfbf" points="32.5,-125.5 151.5,-125.5 "/>
<text text-anchor="middle" x="92" y="-113.5" font-family="Helvetica,sans-Serif" font-size="10.00"> </text>
</g>
<!-- Node2&#45;&gt;Node1 -->
<g id="edge1" class="edge"><title>Node2&#45;&gt;Node1</title>
<path fill="none" stroke="midnightblue" d="M92,-96.3023C92,-87.3951 92,-77.9608 92,-69.2659"/>
<polygon fill="none" stroke="midnightblue" points="88.5001,-96.4407 92,-106.441 95.5001,-96.4408 88.5001,-96.4407"/>
</g>
</g>
</svg>
