<?xml version="1.0" encoding="UTF-8" standalone="no"?>
<!DOCTYPE svg PUBLIC "-//W3C//DTD SVG 1.1//EN"
 "http://www.w3.org/Graphics/SVG/1.1/DTD/svg11.dtd">
<!-- Generated by graphviz version 8.0.4 (20230421.1958)
 -->
<!-- Title: com.ringcentral.video.RcvVideoView Pages: 1 -->
<svg width="189pt" height="285pt"
 viewBox="0.00 0.00 188.50 285.25" xmlns="http://www.w3.org/2000/svg" xmlns:xlink="http://www.w3.org/1999/xlink">
<g id="graph0" class="graph" transform="scale(1 1) rotate(0) translate(4 281.25)">
<title>com.ringcentral.video.RcvVideoView</title>
<!-- Node1 -->
<g id="node1" class="node">
<title>Node1</title>
<g id="a_node1"><a xlink:title=" ">
<polygon fill="#999999" stroke="#666666" points="0,-0.5 0,-182 176.5,-182 176.5,-0.5 0,-0.5"/>
<text text-anchor="middle" x="88.25" y="-168.5" font-family="Helvetica,sans-Serif" font-size="10.00">com.ringcentral.video.RcvVideoView</text>
<polyline fill="none" stroke="#666666" points="0,-162.75 176.5,-162.75"/>
<text text-anchor="start" x="8" y="-149.25" font-family="Helvetica,sans-Serif" font-size="10.00">+ MATCH_PARENT</text>
<text text-anchor="start" x="8" y="-138" font-family="Helvetica,sans-Serif" font-size="10.00">+ WRAP_CONTENT</text>
<polyline fill="none" stroke="#666666" points="0,-132.25 176.5,-132.25"/>
<text text-anchor="start" x="8" y="-118.75" font-family="Helvetica,sans-Serif" font-size="10.00">+ RcvVideoView()</text>
<text text-anchor="start" x="8" y="-107.5" font-family="Helvetica,sans-Serif" font-size="10.00">+ RcvVideoView()</text>
<text text-anchor="start" x="8" y="-96.25" font-family="Helvetica,sans-Serif" font-size="10.00">+ RcvVideoView()</text>
<text text-anchor="start" x="8" y="-85" font-family="Helvetica,sans-Serif" font-size="10.00">+ RcvVideoView()</text>
<text text-anchor="start" x="8" y="-73.75" font-family="Helvetica,sans-Serif" font-size="10.00">+ onRelease()</text>
<text text-anchor="start" x="8" y="-62.5" font-family="Helvetica,sans-Serif" font-size="10.00">+ release()</text>
<text text-anchor="start" x="8" y="-51.25" font-family="Helvetica,sans-Serif" font-size="10.00">+ setMirror()</text>
<text text-anchor="start" x="8" y="-40" font-family="Helvetica,sans-Serif" font-size="10.00">+ setRenderMode()</text>
<text text-anchor="start" x="8" y="-28.75" font-family="Helvetica,sans-Serif" font-size="10.00">+ setRendererLayout()</text>
<text text-anchor="start" x="8" y="-17.5" font-family="Helvetica,sans-Serif" font-size="10.00">+ getRenderer()</text>
<text text-anchor="start" x="8" y="-6.25" font-family="Helvetica,sans-Serif" font-size="10.00"># getLayoutId()</text>
</a>
</g>
</g>
<!-- Node2 -->
<g id="node2" class="node">
<title>Node2</title>
<g id="a_node2"><a xlink:title=" ">
<polygon fill="white" stroke="#666666" points="2.75,-219 2.75,-276.75 75.75,-276.75 75.75,-219 2.75,-219"/>
<text text-anchor="middle" x="39.25" y="-263.25" font-family="Helvetica,sans-Serif" font-size="10.00">FrameLayout</text>
<polyline fill="none" stroke="#666666" points="2.75,-257.5 75.75,-257.5"/>
<text text-anchor="middle" x="39.25" y="-244" font-family="Helvetica,sans-Serif" font-size="10.00"> </text>
<polyline fill="none" stroke="#666666" points="2.75,-238.25 75.75,-238.25"/>
<text text-anchor="middle" x="39.25" y="-224.75" font-family="Helvetica,sans-Serif" font-size="10.00"> </text>
</a>
</g>
</g>
<!-- Node2&#45;&gt;Node1 -->
<g id="edge1" class="edge">
<title>Node2&#45;&gt;Node1</title>
<path fill="none" stroke="#63b8ff" d="M51.31,-208.81C53.95,-200.49 56.85,-191.34 59.83,-181.94"/>
<polygon fill="none" stroke="#63b8ff" points="47.69,-207.64 48.01,-218.23 54.37,-209.76 47.69,-207.64"/>
</g>
<!-- Node3 -->
<g id="node3" class="node">
<title>Node3</title>
<g id="a_node3"><a xlink:title=" ">
<polygon fill="white" stroke="#666666" points="94,-219 94,-276.75 180.5,-276.75 180.5,-219 94,-219"/>
<text text-anchor="middle" x="137.25" y="-263.25" font-family="Helvetica,sans-Serif" font-size="10.00">ReleasableView</text>
<polyline fill="none" stroke="#666666" points="94,-257.5 180.5,-257.5"/>
<text text-anchor="middle" x="137.25" y="-244" font-family="Helvetica,sans-Serif" font-size="10.00"> </text>
<polyline fill="none" stroke="#666666" points="94,-238.25 180.5,-238.25"/>
<text text-anchor="middle" x="137.25" y="-224.75" font-family="Helvetica,sans-Serif" font-size="10.00"> </text>
</a>
</g>
</g>
<!-- Node3&#45;&gt;Node1 -->
<g id="edge2" class="edge">
<title>Node3&#45;&gt;Node1</title>
<path fill="none" stroke="#63b8ff" d="M125.19,-208.81C122.55,-200.49 119.65,-191.34 116.67,-181.94"/>
<polygon fill="none" stroke="#63b8ff" points="122.13,-209.76 128.49,-218.23 128.81,-207.64 122.13,-209.76"/>
</g>
</g>
</svg>
