<?xml version="1.0" encoding="UTF-8" standalone="no"?>
<!DOCTYPE svg PUBLIC "-//W3C//DTD SVG 1.1//EN"
 "http://www.w3.org/Graphics/SVG/1.1/DTD/svg11.dtd">
<!-- Generated by graphviz version 8.1.0 (20230707.0739)
 -->
<!-- Title: com.ringcentral.video.MeetingDialInfo Pages: 1 -->
<svg width="182pt" height="117pt"
 viewBox="0.00 0.00 182.00 117.00" xmlns="http://www.w3.org/2000/svg" xmlns:xlink="http://www.w3.org/1999/xlink">
<g id="graph0" class="graph" transform="scale(1 1) rotate(0) translate(4 113)">
<title>com.ringcentral.video.MeetingDialInfo</title>
<!-- Node1 -->
<g id="Node000001" class="node">
<title>Node1</title>
<g id="a_Node000001"><a xlink:title=" ">
<polygon fill="#999999" stroke="none" points="174,-109 0,-109 0,0 174,0 174,-109"/>
<text text-anchor="start" x="4.88" y="-95.5" font-family="Helvetica,sans-Serif" font-size="10.00">com.ringcentral.video.MeetingDialInfo</text>
<text text-anchor="start" x="85.5" y="-80.5" font-family="Helvetica,sans-Serif" font-size="10.00"> </text>
<text text-anchor="start" x="26.5" y="-65.5" font-family="Helvetica,sans-Serif" font-size="10.00">+</text>
<text text-anchor="start" x="59" y="-65.5" font-family="Helvetica,sans-Serif" font-size="10.00">phoneNumber()</text>
<text text-anchor="start" x="26.5" y="-50.5" font-family="Helvetica,sans-Serif" font-size="10.00">+</text>
<text text-anchor="start" x="59" y="-50.5" font-family="Helvetica,sans-Serif" font-size="10.00">location()</text>
<text text-anchor="start" x="26.5" y="-35.5" font-family="Helvetica,sans-Serif" font-size="10.00">+</text>
<text text-anchor="start" x="59" y="-35.5" font-family="Helvetica,sans-Serif" font-size="10.00">password()</text>
<text text-anchor="start" x="26.5" y="-20.5" font-family="Helvetica,sans-Serif" font-size="10.00">+</text>
<text text-anchor="start" x="59" y="-20.5" font-family="Helvetica,sans-Serif" font-size="10.00">accessCode()</text>
<text text-anchor="start" x="26.5" y="-5.5" font-family="Helvetica,sans-Serif" font-size="10.00">+</text>
<text text-anchor="start" x="59" y="-5.5" font-family="Helvetica,sans-Serif" font-size="10.00">country()</text>
<polygon fill="#666666" stroke="#666666" points="0,-92 0,-92 174,-92 174,-92 0,-92"/>
<polygon fill="#666666" stroke="#666666" points="0,-77 0,-77 174,-77 174,-77 0,-77"/>
<polygon fill="none" stroke="#666666" points="0,0 0,-109 174,-109 174,0 0,0"/>
</a>
</g>
</g>
</g>
</svg>
