<?xml version="1.0" encoding="UTF-8" standalone="no"?>
<!DOCTYPE svg PUBLIC "-//W3C//DTD SVG 1.1//EN"
 "http://www.w3.org/Graphics/SVG/1.1/DTD/svg11.dtd">
<!-- Generated by graphviz version 7.1.0 (20230121.1956)
 -->
<!-- Title: com.ringcentral.video.RcvVideoCanvas Pages: 1 -->
<svg width="363pt" height="534pt"
 viewBox="0.00 0.00 363.00 534.00" xmlns="http://www.w3.org/2000/svg" xmlns:xlink="http://www.w3.org/1999/xlink">
<g id="graph0" class="graph" transform="scale(1 1) rotate(0) translate(4 530)">
<title>com.ringcentral.video.RcvVideoCanvas</title>
<!-- Node1 -->
<g id="node1" class="node">
<title>Node1</title>
<g id="a_node1"><a xlink:title=" ">
<polygon fill="#999999" stroke="#666666" points="138,-0.5 138,-354.5 327,-354.5 327,-0.5 138,-0.5"/>
<text text-anchor="middle" x="232.5" y="-342.5" font-family="Helvetica,sans-Serif" font-size="10.00">com.ringcentral.video.RcvVideoCanvas</text>
<polyline fill="none" stroke="#666666" points="138,-335.5 327,-335.5"/>
<text text-anchor="middle" x="232.5" y="-323.5" font-family="Helvetica,sans-Serif" font-size="10.00"> </text>
<polyline fill="none" stroke="#666666" points="138,-316.5 327,-316.5"/>
<text text-anchor="start" x="146" y="-304.5" font-family="Helvetica,sans-Serif" font-size="10.00">+ createVideoTypeMap()</text>
<text text-anchor="start" x="146" y="-293.5" font-family="Helvetica,sans-Serif" font-size="10.00">+ RcvVideoCanvas()</text>
<text text-anchor="start" x="146" y="-282.5" font-family="Helvetica,sans-Serif" font-size="10.00">+ RcvVideoCanvas()</text>
<text text-anchor="start" x="146" y="-271.5" font-family="Helvetica,sans-Serif" font-size="10.00">+ RcvVideoCanvas()</text>
<text text-anchor="start" x="146" y="-260.5" font-family="Helvetica,sans-Serif" font-size="10.00">+ RcvVideoCanvas()</text>
<text text-anchor="start" x="146" y="-249.5" font-family="Helvetica,sans-Serif" font-size="10.00">+ initCanvas()</text>
<text text-anchor="start" x="146" y="-238.5" font-family="Helvetica,sans-Serif" font-size="10.00">+ setFrameResolutionChangeListener()</text>
<text text-anchor="start" x="146" y="-227.5" font-family="Helvetica,sans-Serif" font-size="10.00">+ attachView()</text>
<text text-anchor="start" x="146" y="-216.5" font-family="Helvetica,sans-Serif" font-size="10.00">+ detachView()</text>
<text text-anchor="start" x="146" y="-205.5" font-family="Helvetica,sans-Serif" font-size="10.00">+ getView()</text>
<text text-anchor="start" x="146" y="-194.5" font-family="Helvetica,sans-Serif" font-size="10.00">+ setUid()</text>
<text text-anchor="start" x="146" y="-183.5" font-family="Helvetica,sans-Serif" font-size="10.00">+ getUid()</text>
<text text-anchor="start" x="146" y="-172.5" font-family="Helvetica,sans-Serif" font-size="10.00">+ setRenderMode()</text>
<text text-anchor="start" x="146" y="-161.5" font-family="Helvetica,sans-Serif" font-size="10.00">+ getRenderMode()</text>
<text text-anchor="start" x="146" y="-150.5" font-family="Helvetica,sans-Serif" font-size="10.00">+ setMirrorMode()</text>
<text text-anchor="start" x="146" y="-139.5" font-family="Helvetica,sans-Serif" font-size="10.00">+ isMirrorMode()</text>
<text text-anchor="start" x="146" y="-128.5" font-family="Helvetica,sans-Serif" font-size="10.00">+ attach()</text>
<text text-anchor="start" x="146" y="-117.5" font-family="Helvetica,sans-Serif" font-size="10.00">+ attachTrack()</text>
<text text-anchor="start" x="146" y="-106.5" font-family="Helvetica,sans-Serif" font-size="10.00">+ detach()</text>
<text text-anchor="start" x="146" y="-95.5" font-family="Helvetica,sans-Serif" font-size="10.00">+ detachTrack()</text>
<text text-anchor="start" x="146" y="-84.5" font-family="Helvetica,sans-Serif" font-size="10.00">+ onFirstFrameRendered()</text>
<text text-anchor="start" x="146" y="-73.5" font-family="Helvetica,sans-Serif" font-size="10.00">+ onFrameResolutionChanged()</text>
<text text-anchor="start" x="146" y="-62.5" font-family="Helvetica,sans-Serif" font-size="10.00">+ onFrame()</text>
<text text-anchor="start" x="146" y="-51.5" font-family="Helvetica,sans-Serif" font-size="10.00">~ setup()</text>
<text text-anchor="start" x="146" y="-40.5" font-family="Helvetica,sans-Serif" font-size="10.00">~ attachRenderer()</text>
<text text-anchor="start" x="146" y="-29.5" font-family="Helvetica,sans-Serif" font-size="10.00">~ detachRenderer()</text>
<text text-anchor="start" x="146" y="-18.5" font-family="Helvetica,sans-Serif" font-size="10.00">~ updateRenderMode()</text>
<text text-anchor="start" x="146" y="-7.5" font-family="Helvetica,sans-Serif" font-size="10.00"># finalize()</text>
</a>
</g>
</g>
<!-- Node2 -->
<g id="node2" class="node">
<title>Node2</title>
<g id="a_node2"><a xlink:href="classcom_1_1ringcentral_1_1video_1_1_video_canvas.html" target="_top" xlink:title=" ">
<polygon fill="white" stroke="#666666" points="0,-391.5 0,-525.5 171,-525.5 171,-391.5 0,-391.5"/>
<text text-anchor="middle" x="85.5" y="-513.5" font-family="Helvetica,sans-Serif" font-size="10.00">com.ringcentral.video.VideoCanvas</text>
<polyline fill="none" stroke="#666666" points="0,-506.5 171,-506.5"/>
<text text-anchor="middle" x="85.5" y="-494.5" font-family="Helvetica,sans-Serif" font-size="10.00"> </text>
<polyline fill="none" stroke="#666666" points="0,-487.5 171,-487.5"/>
<text text-anchor="start" x="8" y="-475.5" font-family="Helvetica,sans-Serif" font-size="10.00">+ setUid()</text>
<text text-anchor="start" x="8" y="-464.5" font-family="Helvetica,sans-Serif" font-size="10.00">+ getUid()</text>
<text text-anchor="start" x="8" y="-453.5" font-family="Helvetica,sans-Serif" font-size="10.00">+ setRenderMode()</text>
<text text-anchor="start" x="8" y="-442.5" font-family="Helvetica,sans-Serif" font-size="10.00">+ getRenderMode()</text>
<text text-anchor="start" x="8" y="-431.5" font-family="Helvetica,sans-Serif" font-size="10.00">+ setMirrorMode()</text>
<text text-anchor="start" x="8" y="-420.5" font-family="Helvetica,sans-Serif" font-size="10.00">+ isMirrorMode()</text>
<text text-anchor="start" x="8" y="-409.5" font-family="Helvetica,sans-Serif" font-size="10.00">+ attachTrack()</text>
<text text-anchor="start" x="8" y="-398.5" font-family="Helvetica,sans-Serif" font-size="10.00">+ detachTrack()</text>
</a>
</g>
</g>
<!-- Node2&#45;&gt;Node1 -->
<g id="edge1" class="edge">
<title>Node2&#45;&gt;Node1</title>
<path fill="none" stroke="#63b8ff" d="M125.46,-381.66C130.07,-372.9 134.91,-363.72 139.87,-354.3"/>
<polygon fill="none" stroke="#63b8ff" points="122.42,-379.92 120.86,-390.4 128.61,-383.18 122.42,-379.92"/>
</g>
<!-- Node3 -->
<g id="node3" class="node">
<title>Node3</title>
<g id="a_node3"><a xlink:title=" ">
<polygon fill="white" stroke="#666666" points="189,-430 189,-487 276,-487 276,-430 189,-430"/>
<text text-anchor="middle" x="232.5" y="-475" font-family="Helvetica,sans-Serif" font-size="10.00">RendererEvents</text>
<polyline fill="none" stroke="#666666" points="189,-468 276,-468"/>
<text text-anchor="middle" x="232.5" y="-456" font-family="Helvetica,sans-Serif" font-size="10.00"> </text>
<polyline fill="none" stroke="#666666" points="189,-449 276,-449"/>
<text text-anchor="middle" x="232.5" y="-437" font-family="Helvetica,sans-Serif" font-size="10.00"> </text>
</a>
</g>
</g>
<!-- Node3&#45;&gt;Node1 -->
<g id="edge2" class="edge">
<title>Node3&#45;&gt;Node1</title>
<path fill="none" stroke="#63b8ff" d="M232.5,-418.95C232.5,-401.09 232.5,-378.48 232.5,-354.31"/>
<polygon fill="none" stroke="#63b8ff" points="229,-418.73 232.5,-428.73 236,-418.73 229,-418.73"/>
</g>
<!-- Node4 -->
<g id="node4" class="node">
<title>Node4</title>
<g id="a_node4"><a xlink:title=" ">
<polygon fill="white" stroke="#666666" points="294,-430 294,-487 355,-487 355,-430 294,-430"/>
<text text-anchor="middle" x="324.5" y="-475" font-family="Helvetica,sans-Serif" font-size="10.00">VideoSink</text>
<polyline fill="none" stroke="#666666" points="294,-468 355,-468"/>
<text text-anchor="middle" x="324.5" y="-456" font-family="Helvetica,sans-Serif" font-size="10.00"> </text>
<polyline fill="none" stroke="#666666" points="294,-449 355,-449"/>
<text text-anchor="middle" x="324.5" y="-437" font-family="Helvetica,sans-Serif" font-size="10.00"> </text>
</a>
</g>
</g>
<!-- Node4&#45;&gt;Node1 -->
<g id="edge3" class="edge">
<title>Node4&#45;&gt;Node1</title>
<path fill="none" stroke="#63b8ff" d="M311.96,-419.46C306.04,-401.52 298.52,-378.71 290.47,-354.31"/>
<polygon fill="none" stroke="#63b8ff" points="308.58,-420.4 315.04,-428.8 315.23,-418.21 308.58,-420.4"/>
</g>
</g>
</svg>
