<?xml version="1.0" encoding="UTF-8" standalone="no"?>
<!DOCTYPE svg PUBLIC "-//W3C//DTD SVG 1.1//EN"
 "http://www.w3.org/Graphics/SVG/1.1/DTD/svg11.dtd">
<!-- Generated by graphviz version 8.0.5 (20230430.1635)
 -->
<!-- Title: com.ringcentral.video.RecordingController Pages: 1 -->
<svg width="200pt" height="117pt"
 viewBox="0.00 0.00 200.00 117.00" xmlns="http://www.w3.org/2000/svg" xmlns:xlink="http://www.w3.org/1999/xlink">
<g id="graph0" class="graph" transform="scale(1 1) rotate(0) translate(4 113)">
<title>com.ringcentral.video.RecordingController</title>
<!-- Node1 -->
<g id="Node000001" class="node">
<title>Node1</title>
<g id="a_Node000001"><a xlink:title=" ">
<polygon fill="#999999" stroke="none" points="192,-109 0,-109 0,0 192,0 192,-109"/>
<text text-anchor="start" x="4.88" y="-95.5" font-family="Helvetica,sans-Serif" font-size="10.00">com.ringcentral.video.RecordingController</text>
<text text-anchor="start" x="94.5" y="-80.5" font-family="Helvetica,sans-Serif" font-size="10.00"> </text>
<text text-anchor="start" x="22.5" y="-65.5" font-family="Helvetica,sans-Serif" font-size="10.00">+</text>
<text text-anchor="start" x="51" y="-65.5" font-family="Helvetica,sans-Serif" font-size="10.00">isRecordingAllowed()</text>
<text text-anchor="start" x="22.5" y="-50.5" font-family="Helvetica,sans-Serif" font-size="10.00">+</text>
<text text-anchor="start" x="51" y="-50.5" font-family="Helvetica,sans-Serif" font-size="10.00">startRecording()</text>
<text text-anchor="start" x="22.5" y="-35.5" font-family="Helvetica,sans-Serif" font-size="10.00">+</text>
<text text-anchor="start" x="51" y="-35.5" font-family="Helvetica,sans-Serif" font-size="10.00">pauseRecording()</text>
<text text-anchor="start" x="22.5" y="-20.5" font-family="Helvetica,sans-Serif" font-size="10.00">+</text>
<text text-anchor="start" x="51" y="-20.5" font-family="Helvetica,sans-Serif" font-size="10.00">getRecordingState()</text>
<text text-anchor="start" x="22.5" y="-5.5" font-family="Helvetica,sans-Serif" font-size="10.00">+</text>
<text text-anchor="start" x="51" y="-5.5" font-family="Helvetica,sans-Serif" font-size="10.00">getRecordingDuration()</text>
<polygon fill="#666666" stroke="#666666" points="0,-92 0,-92 192,-92 192,-92 0,-92"/>
<polygon fill="#666666" stroke="#666666" points="0,-77 0,-77 192,-77 192,-77 0,-77"/>
<polygon fill="none" stroke="#666666" points="0,0 0,-109 192,-109 192,0 0,0"/>
</a>
</g>
</g>
</g>
</svg>
