<?xml version="1.0" encoding="UTF-8" standalone="no"?>
<!DOCTYPE svg PUBLIC "-//W3C//DTD SVG 1.1//EN"
 "http://www.w3.org/Graphics/SVG/1.1/DTD/svg11.dtd">
<!-- Generated by graphviz version 8.0.5 (20230430.1635)
 -->
<!-- Title: com.ringcentral.video.RcvVideoCanvas Pages: 1 -->
<!--zoomable 652 -->

<svg id="main" version="1.1" xmlns="http://www.w3.org/2000/svg" xmlns:xlink="http://www.w3.org/1999/xlink" xml:space="preserve" onload="init(evt)">
<style type="text/css"><![CDATA[
.node, .edge {opacity: 0.7;}
.node.selected, .edge.selected {opacity: 1;}
.edge:hover path { stroke: red; }
.edge:hover polygon { stroke: red; fill: red; }
]]></style>

<defs>
  <circle id="rim" cx="0" cy="0" r="7"/>
  <circle id="rim2" cx="0" cy="0" r="3.5"/>
  <g id="zoomPlus">
    <use xlink:href="#rim" fill="#404040"><set attributeName="fill" to="#808080" begin="zoomplus.mouseover" end="zoomplus.mouseout"/></use>
    <path d="M-4,0h8M0,-4v8" fill="none" stroke="white" stroke-width="1.5" pointer-events="none"/>
  </g>
  <g id="zoomMin">
    <use xlink:href="#rim" fill="#404040"><set attributeName="fill" to="#808080" begin="zoomminus.mouseover" end="zoomminus.mouseout"/></use>
    <path d="M-4,0h8" fill="none" stroke="white" stroke-width="1.5" pointer-events="none"/>
  </g>
  <g id="arrowUp" transform="translate(30 24)">
    <use xlink:href="#rim"/>
    <path pointer-events="none" fill="none" stroke="white" stroke-width="1.5" d="M0,-3.0v7 M-2.5,-0.5L0,-3.0L2.5,-0.5"/>
  </g>
  <g id="arrowRight" transform="rotate(90) translate(36 -43)">
    <use xlink:href="#rim"/>
    <path pointer-events="none" fill="none" stroke="white" stroke-width="1.5" d="M0,-3.0v7 M-2.5,-0.5L0,-3.0L2.5,-0.5"/>
  </g>
  <g id="arrowDown" transform="rotate(180) translate(-30 -48)">
    <use xlink:href="#rim"/>
    <path pointer-events="none" fill="none" stroke="white" stroke-width="1.5" d="M0,-3.0v7 M-2.5,-0.5L0,-3.0L2.5,-0.5"/>
  </g>
  <g id="arrowLeft" transform="rotate(270) translate(-36 17)">
    <use xlink:href="#rim"/>
    <path pointer-events="none" fill="none" stroke="white" stroke-width="1.5" d="M0,-3.0v7 M-2.5,-0.5L0,-3.0L2.5,-0.5"/>
  </g>
  <g id="resetDef">
    <use xlink:href="#rim2" fill="#404040"><set attributeName="fill" to="#808080" begin="reset.mouseover" end="reset.mouseout"/></use>
  </g>
</defs>
<script type="application/ecmascript">
var viewWidth = 342;
var viewHeight = 652;
var sectionId = 'dynsection-1';
</script>
<script type="application/ecmascript" xlink:href="svg.min.js"/>
<svg id="graph" class="graph">
<g id="viewport">
<title>com.ringcentral.video.RcvVideoCanvas</title>
<!-- Node1 -->
<g id="Node000001" class="node">
<title>Node1</title>
<g id="a_Node000001"><a xlink:title=" ">
<polygon fill="#999999" stroke="none" points="313,-454 131,-454 131,0 313,0 313,-454"/>
<text text-anchor="start" x="135.75" y="-440.5" font-family="Helvetica,sans-Serif" font-size="10.00">com.ringcentral.video.RcvVideoCanvas</text>
<text text-anchor="start" x="220.5" y="-425.5" font-family="Helvetica,sans-Serif" font-size="10.00"> </text>
<text text-anchor="start" x="135.5" y="-410.5" font-family="Helvetica,sans-Serif" font-size="10.00">+</text>
<text text-anchor="start" x="146" y="-410.5" font-family="Helvetica,sans-Serif" font-size="10.00">createVideoTypeMap()</text>
<text text-anchor="start" x="135.5" y="-395.5" font-family="Helvetica,sans-Serif" font-size="10.00">+</text>
<text text-anchor="start" x="146" y="-395.5" font-family="Helvetica,sans-Serif" font-size="10.00">RcvVideoCanvas()</text>
<text text-anchor="start" x="135.5" y="-380.5" font-family="Helvetica,sans-Serif" font-size="10.00">+</text>
<text text-anchor="start" x="146" y="-380.5" font-family="Helvetica,sans-Serif" font-size="10.00">RcvVideoCanvas()</text>
<text text-anchor="start" x="135.5" y="-365.5" font-family="Helvetica,sans-Serif" font-size="10.00">+</text>
<text text-anchor="start" x="146" y="-365.5" font-family="Helvetica,sans-Serif" font-size="10.00">RcvVideoCanvas()</text>
<text text-anchor="start" x="135.5" y="-350.5" font-family="Helvetica,sans-Serif" font-size="10.00">+</text>
<text text-anchor="start" x="146" y="-350.5" font-family="Helvetica,sans-Serif" font-size="10.00">RcvVideoCanvas()</text>
<text text-anchor="start" x="135.5" y="-335.5" font-family="Helvetica,sans-Serif" font-size="10.00">+</text>
<text text-anchor="start" x="146" y="-335.5" font-family="Helvetica,sans-Serif" font-size="10.00">initCanvas()</text>
<text text-anchor="start" x="135.5" y="-320.5" font-family="Helvetica,sans-Serif" font-size="10.00">+</text>
<text text-anchor="start" x="146" y="-320.5" font-family="Helvetica,sans-Serif" font-size="10.00">setFrameResolutionChangeListener()</text>
<text text-anchor="start" x="135.5" y="-305.5" font-family="Helvetica,sans-Serif" font-size="10.00">+</text>
<text text-anchor="start" x="146" y="-305.5" font-family="Helvetica,sans-Serif" font-size="10.00">attachView()</text>
<text text-anchor="start" x="135.5" y="-290.5" font-family="Helvetica,sans-Serif" font-size="10.00">+</text>
<text text-anchor="start" x="146" y="-290.5" font-family="Helvetica,sans-Serif" font-size="10.00">detachView()</text>
<text text-anchor="start" x="135.5" y="-275.5" font-family="Helvetica,sans-Serif" font-size="10.00">+</text>
<text text-anchor="start" x="146" y="-275.5" font-family="Helvetica,sans-Serif" font-size="10.00">getView()</text>
<text text-anchor="start" x="135.5" y="-260.5" font-family="Helvetica,sans-Serif" font-size="10.00">+</text>
<text text-anchor="start" x="146" y="-260.5" font-family="Helvetica,sans-Serif" font-size="10.00">setUid()</text>
<text text-anchor="start" x="135.5" y="-245.5" font-family="Helvetica,sans-Serif" font-size="10.00">+</text>
<text text-anchor="start" x="146" y="-245.5" font-family="Helvetica,sans-Serif" font-size="10.00">getUid()</text>
<text text-anchor="start" x="135.5" y="-230.5" font-family="Helvetica,sans-Serif" font-size="10.00">+</text>
<text text-anchor="start" x="146" y="-230.5" font-family="Helvetica,sans-Serif" font-size="10.00">setRenderMode()</text>
<text text-anchor="start" x="135.5" y="-215.5" font-family="Helvetica,sans-Serif" font-size="10.00">+</text>
<text text-anchor="start" x="146" y="-215.5" font-family="Helvetica,sans-Serif" font-size="10.00">getRenderMode()</text>
<text text-anchor="start" x="135.5" y="-200.5" font-family="Helvetica,sans-Serif" font-size="10.00">+</text>
<text text-anchor="start" x="146" y="-200.5" font-family="Helvetica,sans-Serif" font-size="10.00">setMirrorMode()</text>
<text text-anchor="start" x="135.5" y="-185.5" font-family="Helvetica,sans-Serif" font-size="10.00">+</text>
<text text-anchor="start" x="146" y="-185.5" font-family="Helvetica,sans-Serif" font-size="10.00">isMirrorMode()</text>
<text text-anchor="start" x="135.5" y="-170.5" font-family="Helvetica,sans-Serif" font-size="10.00">+</text>
<text text-anchor="start" x="146" y="-170.5" font-family="Helvetica,sans-Serif" font-size="10.00">attach()</text>
<text text-anchor="start" x="135.5" y="-155.5" font-family="Helvetica,sans-Serif" font-size="10.00">+</text>
<text text-anchor="start" x="146" y="-155.5" font-family="Helvetica,sans-Serif" font-size="10.00">attachTrack()</text>
<text text-anchor="start" x="135.5" y="-140.5" font-family="Helvetica,sans-Serif" font-size="10.00">+</text>
<text text-anchor="start" x="146" y="-140.5" font-family="Helvetica,sans-Serif" font-size="10.00">detach()</text>
<text text-anchor="start" x="135.5" y="-125.5" font-family="Helvetica,sans-Serif" font-size="10.00">+</text>
<text text-anchor="start" x="146" y="-125.5" font-family="Helvetica,sans-Serif" font-size="10.00">detachTrack()</text>
<text text-anchor="start" x="135.5" y="-110.5" font-family="Helvetica,sans-Serif" font-size="10.00">+</text>
<text text-anchor="start" x="146" y="-110.5" font-family="Helvetica,sans-Serif" font-size="10.00">onFirstFrameRendered()</text>
<text text-anchor="start" x="135.5" y="-95.5" font-family="Helvetica,sans-Serif" font-size="10.00">+</text>
<text text-anchor="start" x="146" y="-95.5" font-family="Helvetica,sans-Serif" font-size="10.00">onFrameResolutionChanged()</text>
<text text-anchor="start" x="135.5" y="-80.5" font-family="Helvetica,sans-Serif" font-size="10.00">+</text>
<text text-anchor="start" x="146" y="-80.5" font-family="Helvetica,sans-Serif" font-size="10.00">onFrame()</text>
<text text-anchor="start" x="135.5" y="-65.5" font-family="Helvetica,sans-Serif" font-size="10.00">~</text>
<text text-anchor="start" x="146" y="-65.5" font-family="Helvetica,sans-Serif" font-size="10.00">setup()</text>
<text text-anchor="start" x="135.5" y="-50.5" font-family="Helvetica,sans-Serif" font-size="10.00">~</text>
<text text-anchor="start" x="146" y="-50.5" font-family="Helvetica,sans-Serif" font-size="10.00">attachRenderer()</text>
<text text-anchor="start" x="135.5" y="-35.5" font-family="Helvetica,sans-Serif" font-size="10.00">~</text>
<text text-anchor="start" x="146" y="-35.5" font-family="Helvetica,sans-Serif" font-size="10.00">detachRenderer()</text>
<text text-anchor="start" x="135.5" y="-20.5" font-family="Helvetica,sans-Serif" font-size="10.00">~</text>
<text text-anchor="start" x="146" y="-20.5" font-family="Helvetica,sans-Serif" font-size="10.00">updateRenderMode()</text>
<text text-anchor="start" x="135.88" y="-5.5" font-family="Helvetica,sans-Serif" font-size="10.00">#</text>
<text text-anchor="start" x="146" y="-5.5" font-family="Helvetica,sans-Serif" font-size="10.00">finalize()</text>
<polygon fill="#666666" stroke="#666666" points="131,-437 131,-437 313,-437 313,-437 131,-437"/>
<polygon fill="#666666" stroke="#666666" points="131,-422 131,-422 313,-422 313,-422 131,-422"/>
<polygon fill="none" stroke="#666666" points="131,0 131,-454 313,-454 313,0 131,0"/>
</a>
</g>
</g>
<!-- Node2 -->
<g id="Node000002" class="node">
<title>Node2</title>
<g id="a_Node000002"><a xlink:href="classcom_1_1ringcentral_1_1video_1_1_video_canvas.html" target="_top" xlink:title=" ">
<polygon fill="white" stroke="none" points="164,-644 0,-644 0,-490 164,-490 164,-644"/>
<text text-anchor="start" x="4.75" y="-630.5" font-family="Helvetica,sans-Serif" font-size="10.00">com.ringcentral.video.VideoCanvas</text>
<text text-anchor="start" x="80.5" y="-615.5" font-family="Helvetica,sans-Serif" font-size="10.00"> </text>
<text text-anchor="start" x="21.5" y="-600.5" font-family="Helvetica,sans-Serif" font-size="10.00">+</text>
<text text-anchor="start" x="49" y="-600.5" font-family="Helvetica,sans-Serif" font-size="10.00">setUid()</text>
<text text-anchor="start" x="21.5" y="-585.5" font-family="Helvetica,sans-Serif" font-size="10.00">+</text>
<text text-anchor="start" x="49" y="-585.5" font-family="Helvetica,sans-Serif" font-size="10.00">getUid()</text>
<text text-anchor="start" x="21.5" y="-570.5" font-family="Helvetica,sans-Serif" font-size="10.00">+</text>
<text text-anchor="start" x="49" y="-570.5" font-family="Helvetica,sans-Serif" font-size="10.00">setRenderMode()</text>
<text text-anchor="start" x="21.5" y="-555.5" font-family="Helvetica,sans-Serif" font-size="10.00">+</text>
<text text-anchor="start" x="49" y="-555.5" font-family="Helvetica,sans-Serif" font-size="10.00">getRenderMode()</text>
<text text-anchor="start" x="21.5" y="-540.5" font-family="Helvetica,sans-Serif" font-size="10.00">+</text>
<text text-anchor="start" x="49" y="-540.5" font-family="Helvetica,sans-Serif" font-size="10.00">setMirrorMode()</text>
<text text-anchor="start" x="21.5" y="-525.5" font-family="Helvetica,sans-Serif" font-size="10.00">+</text>
<text text-anchor="start" x="49" y="-525.5" font-family="Helvetica,sans-Serif" font-size="10.00">isMirrorMode()</text>
<text text-anchor="start" x="21.5" y="-510.5" font-family="Helvetica,sans-Serif" font-size="10.00">+</text>
<text text-anchor="start" x="49" y="-510.5" font-family="Helvetica,sans-Serif" font-size="10.00">attachTrack()</text>
<text text-anchor="start" x="21.5" y="-495.5" font-family="Helvetica,sans-Serif" font-size="10.00">+</text>
<text text-anchor="start" x="49" y="-495.5" font-family="Helvetica,sans-Serif" font-size="10.00">detachTrack()</text>
<polygon fill="#666666" stroke="#666666" points="0,-627 0,-627 164,-627 164,-627 0,-627"/>
<polygon fill="#666666" stroke="#666666" points="0,-612 0,-612 164,-612 164,-612 0,-612"/>
<polygon fill="none" stroke="#666666" points="0,-490 0,-644 164,-644 164,-490 0,-490"/>
</a>
</g>
</g>
<!-- Node2&#45;&gt;Node1 -->
<g id="edge1_Node000001_Node000002" class="edge">
<title>Node2&#45;&gt;Node1</title>
<g id="a_edge1_Node000001_Node000002"><a xlink:title=" ">
<path fill="none" stroke="#63b8ff" d="M117.61,-480.02C121.89,-469.7 126.39,-458.84 131.02,-447.64"/>
<polygon fill="none" stroke="#63b8ff" points="114.01,-478.57 113.42,-489.15 120.48,-481.25 114.01,-478.57"/>
</a>
</g>
</g>
<!-- Node3 -->
<g id="Node000003" class="node">
<title>Node3</title>
<g id="a_Node000003"><a xlink:title=" ">
<polygon fill="white" stroke="none" points="262,-591.5 182,-591.5 182,-542.5 262,-542.5 262,-591.5"/>
<text text-anchor="start" x="186.75" y="-578" font-family="Helvetica,sans-Serif" font-size="10.00">RendererEvents</text>
<text text-anchor="start" x="220.5" y="-563" font-family="Helvetica,sans-Serif" font-size="10.00"> </text>
<text text-anchor="start" x="220.5" y="-548" font-family="Helvetica,sans-Serif" font-size="10.00"> </text>
<polygon fill="#666666" stroke="#666666" points="182,-574.5 182,-574.5 262,-574.5 262,-574.5 182,-574.5"/>
<polygon fill="#666666" stroke="#666666" points="182,-559.5 182,-559.5 262,-559.5 262,-559.5 182,-559.5"/>
<polygon fill="none" stroke="#666666" points="182,-542.5 182,-591.5 262,-591.5 262,-542.5 182,-542.5"/>
</a>
</g>
</g>
<!-- Node3&#45;&gt;Node1 -->
<g id="edge2_Node000001_Node000003" class="edge">
<title>Node3&#45;&gt;Node1</title>
<g id="a_edge2_Node000001_Node000003"><a xlink:title=" ">
<path fill="none" stroke="#63b8ff" d="M222,-531.51C222,-511.37 222,-484.04 222,-453.99"/>
<polygon fill="none" stroke="#63b8ff" points="218.5,-531.5 222,-541.5 225.5,-531.5 218.5,-531.5"/>
</a>
</g>
</g>
<!-- Node4 -->
<g id="Node000004" class="node">
<title>Node4</title>
<g id="a_Node000004"><a xlink:title=" ">
<polygon fill="white" stroke="none" points="334,-591.5 280,-591.5 280,-542.5 334,-542.5 334,-591.5"/>
<text text-anchor="start" x="284.88" y="-578" font-family="Helvetica,sans-Serif" font-size="10.00">VideoSink</text>
<text text-anchor="start" x="305.5" y="-563" font-family="Helvetica,sans-Serif" font-size="10.00"> </text>
<text text-anchor="start" x="305.5" y="-548" font-family="Helvetica,sans-Serif" font-size="10.00"> </text>
<polygon fill="#666666" stroke="#666666" points="280,-574.5 280,-574.5 334,-574.5 334,-574.5 280,-574.5"/>
<polygon fill="#666666" stroke="#666666" points="280,-559.5 280,-559.5 334,-559.5 334,-559.5 280,-559.5"/>
<polygon fill="none" stroke="#666666" points="280,-542.5 280,-591.5 334,-591.5 334,-542.5 280,-542.5"/>
</a>
</g>
</g>
<!-- Node4&#45;&gt;Node1 -->
<g id="edge3_Node000001_Node000004" class="edge">
<title>Node4&#45;&gt;Node1</title>
<g id="a_edge3_Node000001_Node000004"><a xlink:title=" ">
<path fill="none" stroke="#63b8ff" d="M298.47,-532.07C293.39,-511.88 286.46,-484.32 278.83,-453.99"/>
<polygon fill="none" stroke="#63b8ff" points="295.26,-532.66 301.09,-541.5 302.05,-530.95 295.26,-532.66"/>
</a>
</g>
</g>
</g>
</svg>

<g id="navigator" transform="translate(0 0)" fill="#404254">
  <rect fill="#f2f5e9" fill-opacity="0.5" stroke="#606060" stroke-width=".5" x="0" y="0" width="60" height="60"/>
  <use id="zoomplus" xlink:href="#zoomPlus" x="17" y="9" onmousedown="handleZoom(evt,'in')"/>
  <use id="zoomminus" xlink:href="#zoomMin" x="42" y="9" onmousedown="handleZoom(evt,'out')"/>
  <use id="reset" xlink:href="#resetDef" x="30" y="36" onmousedown="handleReset()"/>
   <use id="arrowup" xlink:href="#arrowUp" x="0" y="0" onmousedown="handlePan(0,-1)"/>
  <use id="arrowright" xlink:href="#arrowRight" x="0" y="0" onmousedown="handlePan(1,0)"/>
  <use id="arrowdown" xlink:href="#arrowDown" x="0" y="0" onmousedown="handlePan(0,1)"/>
  <use id="arrowleft" xlink:href="#arrowLeft" x="0" y="0" onmousedown="handlePan(-1,0)"/>
</g>
<svg viewBox="0 0 15 15" width="100%" height="30px" preserveAspectRatio="xMaxYMin meet">
 <g id="arrow_out" transform="scale(0.3 0.3)">
  <a xlink:href="classcom_1_1ringcentral_1_1video_1_1_rcv_video_canvas__coll__graph_org.svg" target="_base">
   <rect id="button" ry="5" rx="5" y="6" x="6" height="38" width="38"
        fill="#f2f5e9" fill-opacity="0.5" stroke="#606060" stroke-width="1.0"/>
   <path id="arrow"
     d="M 11.500037,31.436501 C 11.940474,20.09759 22.043105,11.32322 32.158766,21.979434 L 37.068811,17.246167 C 37.068811,17.246167 37.088388,32 37.088388,32 L 22.160133,31.978069 C 22.160133,31.978069 26.997745,27.140456 26.997745,27.140456 C 18.528582,18.264221 13.291696,25.230495 11.500037,31.436501 z"
     style="fill:#404040;"/>
  </a>
 </g>
</svg>

<style type='text/css'>
<![CDATA[
[data-mouse-over-selected='false'] { opacity: 0.7; }
[data-mouse-over-selected='true']  { opacity: 1.0; }
]]>
</style>
<script type="application/ecmascript"><![CDATA[
document.addEventListener('DOMContentLoaded', (event) => {
  highlightEdges();
  highlightAdjacentNodes();
});
]]></script>
</svg>
