<?xml version="1.0" encoding="UTF-8" standalone="no"?>
<!DOCTYPE svg PUBLIC "-//W3C//DTD SVG 1.1//EN"
 "http://www.w3.org/Graphics/SVG/1.1/DTD/svg11.dtd">
<!-- Generated by graphviz version 8.0.5 (20230430.1635)
 -->
<!-- Title: com.ringcentral.video.MeetingStatisticEventHandler Pages: 1 -->
<svg width="243pt" height="102pt"
 viewBox="0.00 0.00 243.00 102.00" xmlns="http://www.w3.org/2000/svg" xmlns:xlink="http://www.w3.org/1999/xlink">
<g id="graph0" class="graph" transform="scale(1 1) rotate(0) translate(4 98)">
<title>com.ringcentral.video.MeetingStatisticEventHandler</title>
<!-- Node1 -->
<g id="Node000001" class="node">
<title>Node1</title>
<g id="a_Node000001"><a xlink:title=" ">
<polygon fill="#999999" stroke="none" points="235,-94 0,-94 0,0 235,0 235,-94"/>
<text text-anchor="start" x="4.62" y="-80.5" font-family="Helvetica,sans-Serif" font-size="10.00">com.ringcentral.video.MeetingStatisticEventHandler</text>
<text text-anchor="start" x="116" y="-65.5" font-family="Helvetica,sans-Serif" font-size="10.00"> </text>
<text text-anchor="start" x="33.5" y="-50.5" font-family="Helvetica,sans-Serif" font-size="10.00">+</text>
<text text-anchor="start" x="73" y="-50.5" font-family="Helvetica,sans-Serif" font-size="10.00">onLocalAudioStats()</text>
<text text-anchor="start" x="33.5" y="-35.5" font-family="Helvetica,sans-Serif" font-size="10.00">+</text>
<text text-anchor="start" x="73" y="-35.5" font-family="Helvetica,sans-Serif" font-size="10.00">onLocalVideoStats()</text>
<text text-anchor="start" x="33.5" y="-20.5" font-family="Helvetica,sans-Serif" font-size="10.00">+</text>
<text text-anchor="start" x="73" y="-20.5" font-family="Helvetica,sans-Serif" font-size="10.00">onRemoteAudioStats()</text>
<text text-anchor="start" x="33.5" y="-5.5" font-family="Helvetica,sans-Serif" font-size="10.00">+</text>
<text text-anchor="start" x="73" y="-5.5" font-family="Helvetica,sans-Serif" font-size="10.00">onRemoteVideoStats()</text>
<polygon fill="#666666" stroke="#666666" points="0,-77 0,-77 235,-77 235,-77 0,-77"/>
<polygon fill="#666666" stroke="#666666" points="0,-62 0,-62 235,-62 235,-62 0,-62"/>
<polygon fill="none" stroke="#666666" points="0,0 0,-94 235,-94 235,0 0,0"/>
</a>
</g>
</g>
</g>
</svg>
