<?xml version="1.0" encoding="UTF-8" standalone="no"?>
<!DOCTYPE svg PUBLIC "-//W3C//DTD SVG 1.1//EN"
 "http://www.w3.org/Graphics/SVG/1.1/DTD/svg11.dtd">
<!-- Generated by graphviz version 2.30.1 (20201013.1554)
 -->
<!-- Title: com.ringcentral.video.ClosedCaptionsData Pages: 1 -->
<svg width="166pt" height="250pt"
 viewBox="0.00 0.00 166.00 250.00" xmlns="http://www.w3.org/2000/svg" xmlns:xlink="http://www.w3.org/1999/xlink">
<g id="graph0" class="graph" transform="scale(1 1) rotate(0) translate(4 246)">
<title>com.ringcentral.video.ClosedCaptionsData</title>
<polygon fill="white" stroke="white" points="-4,5 -4,-246 163,-246 163,5 -4,5"/>
<!-- Node1 -->
<g id="node1" class="node"><title>Node1</title>
<polygon fill="#bfbfbf" stroke="black" points="-0.5,-151 -0.5,-241 158.5,-241 158.5,-151 -0.5,-151"/>
<text text-anchor="start" x="7.5" y="-229" font-family="Helvetica,sans-Serif" font-size="10.00">com.ringcentral.video.Closed</text>
<text text-anchor="middle" x="79" y="-218" font-family="Helvetica,sans-Serif" font-size="10.00">CaptionsData</text>
<polyline fill="none" stroke="black" points="-0.5,-211 158.5,-211 "/>
<text text-anchor="middle" x="79" y="-199" font-family="Helvetica,sans-Serif" font-size="10.00"> </text>
<polyline fill="none" stroke="black" points="-0.5,-192 158.5,-192 "/>
<text text-anchor="start" x="7.5" y="-180" font-family="Helvetica,sans-Serif" font-size="10.00">+ getParticipant()</text>
<text text-anchor="start" x="7.5" y="-169" font-family="Helvetica,sans-Serif" font-size="10.00">+ getTranscript()</text>
<text text-anchor="start" x="7.5" y="-158" font-family="Helvetica,sans-Serif" font-size="10.00">+ getTimestamp()</text>
</g>
<!-- Node2 -->
<g id="node2" class="node"><title>Node2</title>
<polygon fill="white" stroke="#bfbfbf" points="-0.5,-1 -0.5,-113 158.5,-113 158.5,-1 -0.5,-1"/>
<text text-anchor="start" x="7.5" y="-101" font-family="Helvetica,sans-Serif" font-size="10.00">com.ringcentral.video.Closed</text>
<text text-anchor="middle" x="79" y="-90" font-family="Helvetica,sans-Serif" font-size="10.00">CaptionsData.CppProxy</text>
<polyline fill="none" stroke="#bfbfbf" points="-0.5,-83 158.5,-83 "/>
<text text-anchor="middle" x="79" y="-71" font-family="Helvetica,sans-Serif" font-size="10.00"> </text>
<polyline fill="none" stroke="#bfbfbf" points="-0.5,-64 158.5,-64 "/>
<text text-anchor="start" x="7.5" y="-52" font-family="Helvetica,sans-Serif" font-size="10.00">+ _djinni_private_destroy()</text>
<text text-anchor="start" x="7.5" y="-41" font-family="Helvetica,sans-Serif" font-size="10.00">+ getParticipant()</text>
<text text-anchor="start" x="7.5" y="-30" font-family="Helvetica,sans-Serif" font-size="10.00">+ getTranscript()</text>
<text text-anchor="start" x="7.5" y="-19" font-family="Helvetica,sans-Serif" font-size="10.00">+ getTimestamp()</text>
<text text-anchor="start" x="7.5" y="-8" font-family="Helvetica,sans-Serif" font-size="10.00"># finalize()</text>
</g>
<!-- Node1&#45;&gt;Node2 -->
<g id="edge1" class="edge"><title>Node1&#45;&gt;Node2</title>
<path fill="none" stroke="midnightblue" d="M79,-140.793C79,-131.678 79,-122.209 79,-113.072"/>
<polygon fill="none" stroke="midnightblue" points="75.5001,-140.898 79,-150.898 82.5001,-140.898 75.5001,-140.898"/>
</g>
</g>
</svg>
