<?xml version="1.0" encoding="UTF-8" standalone="no"?>
<!DOCTYPE svg PUBLIC "-//W3C//DTD SVG 1.1//EN"
 "http://www.w3.org/Graphics/SVG/1.1/DTD/svg11.dtd">
<!-- Generated by graphviz version 8.0.5 (20230430.1635)
 -->
<!-- Title: com.ringcentral.video.MeetingOptions Pages: 1 -->
<svg width="182pt" height="147pt"
 viewBox="0.00 0.00 182.00 147.00" xmlns="http://www.w3.org/2000/svg" xmlns:xlink="http://www.w3.org/1999/xlink">
<g id="graph0" class="graph" transform="scale(1 1) rotate(0) translate(4 143)">
<title>com.ringcentral.video.MeetingOptions</title>
<!-- Node1 -->
<g id="Node000001" class="node">
<title>Node1</title>
<g id="a_Node000001"><a xlink:title=" ">
<polygon fill="#999999" stroke="none" points="174,-139 0,-139 0,0 174,0 174,-139"/>
<text text-anchor="start" x="4.88" y="-125.5" font-family="Helvetica,sans-Serif" font-size="10.00">com.ringcentral.video.MeetingOptions</text>
<text text-anchor="start" x="85.5" y="-110.5" font-family="Helvetica,sans-Serif" font-size="10.00"> </text>
<text text-anchor="start" x="24" y="-95.5" font-family="Helvetica,sans-Serif" font-size="10.00">+</text>
<text text-anchor="start" x="54" y="-95.5" font-family="Helvetica,sans-Serif" font-size="10.00">setUserName()</text>
<text text-anchor="start" x="24" y="-80.5" font-family="Helvetica,sans-Serif" font-size="10.00">+</text>
<text text-anchor="start" x="54" y="-80.5" font-family="Helvetica,sans-Serif" font-size="10.00">getUserName()</text>
<text text-anchor="start" x="24" y="-65.5" font-family="Helvetica,sans-Serif" font-size="10.00">+</text>
<text text-anchor="start" x="54" y="-65.5" font-family="Helvetica,sans-Serif" font-size="10.00">setPassword()</text>
<text text-anchor="start" x="24" y="-50.5" font-family="Helvetica,sans-Serif" font-size="10.00">+</text>
<text text-anchor="start" x="54" y="-50.5" font-family="Helvetica,sans-Serif" font-size="10.00">getPassword()</text>
<text text-anchor="start" x="24" y="-35.5" font-family="Helvetica,sans-Serif" font-size="10.00">+</text>
<text text-anchor="start" x="54" y="-35.5" font-family="Helvetica,sans-Serif" font-size="10.00">setMeetingType()</text>
<text text-anchor="start" x="24" y="-20.5" font-family="Helvetica,sans-Serif" font-size="10.00">+</text>
<text text-anchor="start" x="54" y="-20.5" font-family="Helvetica,sans-Serif" font-size="10.00">getMeetingType()</text>
<text text-anchor="start" x="24" y="-5.5" font-family="Helvetica,sans-Serif" font-size="10.00">+</text>
<text text-anchor="start" x="54" y="-5.5" font-family="Helvetica,sans-Serif" font-size="10.00">create()</text>
<polygon fill="#666666" stroke="#666666" points="0,-122 0,-122 174,-122 174,-122 0,-122"/>
<polygon fill="#666666" stroke="#666666" points="0,-107 0,-107 174,-107 174,-107 0,-107"/>
<polygon fill="none" stroke="#666666" points="0,0 0,-139 174,-139 174,0 0,0"/>
</a>
</g>
</g>
</g>
</svg>
