<?xml version="1.0" encoding="UTF-8" standalone="no"?>
<!DOCTYPE svg PUBLIC "-//W3C//DTD SVG 1.1//EN"
 "http://www.w3.org/Graphics/SVG/1.1/DTD/svg11.dtd">
<!-- Generated by graphviz version 8.1.0 (20230707.0739)
 -->
<!-- Title: com.ringcentral.video.CallPhoneStatus Pages: 1 -->
<svg width="187pt" height="132pt"
 viewBox="0.00 0.00 187.00 132.00" xmlns="http://www.w3.org/2000/svg" xmlns:xlink="http://www.w3.org/1999/xlink">
<g id="graph0" class="graph" transform="scale(1 1) rotate(0) translate(4 128)">
<title>com.ringcentral.video.CallPhoneStatus</title>
<!-- Node1 -->
<g id="Node000001" class="node">
<title>Node1</title>
<g id="a_Node000001"><a xlink:title=" ">
<polygon fill="#999999" stroke="none" points="179,-124 0,-124 0,0 179,0 179,-124"/>
<text text-anchor="start" x="4.75" y="-110.5" font-family="Helvetica,sans-Serif" font-size="10.00">com.ringcentral.video.CallPhoneStatus</text>
<text text-anchor="start" x="23" y="-95.5" font-family="Helvetica,sans-Serif" font-size="10.00">+</text>
<text text-anchor="start" x="52" y="-95.5" font-family="Helvetica,sans-Serif" font-size="10.00">INIT</text>
<text text-anchor="start" x="23" y="-80.5" font-family="Helvetica,sans-Serif" font-size="10.00">+</text>
<text text-anchor="start" x="52" y="-80.5" font-family="Helvetica,sans-Serif" font-size="10.00">START</text>
<text text-anchor="start" x="23" y="-65.5" font-family="Helvetica,sans-Serif" font-size="10.00">+</text>
<text text-anchor="start" x="52" y="-65.5" font-family="Helvetica,sans-Serif" font-size="10.00">FAIL</text>
<text text-anchor="start" x="23" y="-50.5" font-family="Helvetica,sans-Serif" font-size="10.00">+</text>
<text text-anchor="start" x="52" y="-50.5" font-family="Helvetica,sans-Serif" font-size="10.00">END</text>
<text text-anchor="start" x="23" y="-35.5" font-family="Helvetica,sans-Serif" font-size="10.00">+</text>
<text text-anchor="start" x="52" y="-35.5" font-family="Helvetica,sans-Serif" font-size="10.00">DISCONNECTING</text>
<text text-anchor="start" x="23" y="-20.5" font-family="Helvetica,sans-Serif" font-size="10.00">+</text>
<text text-anchor="start" x="52" y="-20.5" font-family="Helvetica,sans-Serif" font-size="10.00">UNKNOWN</text>
<text text-anchor="start" x="88" y="-5.5" font-family="Helvetica,sans-Serif" font-size="10.00"> </text>
<polygon fill="#666666" stroke="#666666" points="0,-107 0,-107 179,-107 179,-107 0,-107"/>
<polygon fill="#666666" stroke="#666666" points="0,-17 0,-17 50,-17 50,-17 0,-17"/>
<polygon fill="#666666" stroke="#666666" points="50,-17 50,-17 179,-17 179,-17 50,-17"/>
<polygon fill="none" stroke="#666666" points="0,0 0,-124 179,-124 179,0 0,0"/>
</a>
</g>
</g>
</g>
</svg>
