<?xml version="1.0" encoding="UTF-8" standalone="no"?>
<!DOCTYPE svg PUBLIC "-//W3C//DTD SVG 1.1//EN"
 "http://www.w3.org/Graphics/SVG/1.1/DTD/svg11.dtd">
<!-- Generated by graphviz version 8.1.0 (20230707.0739)
 -->
<!-- Title: com.ringcentral.video.EEchoLeakType Pages: 1 -->
<svg width="185pt" height="87pt"
 viewBox="0.00 0.00 185.00 87.00" xmlns="http://www.w3.org/2000/svg" xmlns:xlink="http://www.w3.org/1999/xlink">
<g id="graph0" class="graph" transform="scale(1 1) rotate(0) translate(4 83)">
<title>com.ringcentral.video.EEchoLeakType</title>
<!-- Node1 -->
<g id="Node000001" class="node">
<title>Node1</title>
<g id="a_Node000001"><a xlink:title=" ">
<polygon fill="#999999" stroke="none" points="177,-79 0,-79 0,0 177,0 177,-79"/>
<text text-anchor="start" x="4.88" y="-65.5" font-family="Helvetica,sans-Serif" font-size="10.00">com.ringcentral.video.EEchoLeakType</text>
<text text-anchor="start" x="36" y="-50.5" font-family="Helvetica,sans-Serif" font-size="10.00">+</text>
<text text-anchor="start" x="78" y="-50.5" font-family="Helvetica,sans-Serif" font-size="10.00">NONE</text>
<text text-anchor="start" x="36" y="-35.5" font-family="Helvetica,sans-Serif" font-size="10.00">+</text>
<text text-anchor="start" x="78" y="-35.5" font-family="Helvetica,sans-Serif" font-size="10.00">NOISE</text>
<text text-anchor="start" x="36" y="-20.5" font-family="Helvetica,sans-Serif" font-size="10.00">+</text>
<text text-anchor="start" x="78" y="-20.5" font-family="Helvetica,sans-Serif" font-size="10.00">ECHO</text>
<text text-anchor="start" x="87" y="-5.5" font-family="Helvetica,sans-Serif" font-size="10.00"> </text>
<polygon fill="#666666" stroke="#666666" points="0,-62 0,-62 177,-62 177,-62 0,-62"/>
<polygon fill="#666666" stroke="#666666" points="0,-17 0,-17 76,-17 76,-17 0,-17"/>
<polygon fill="#666666" stroke="#666666" points="76,-17 76,-17 177,-17 177,-17 76,-17"/>
<polygon fill="none" stroke="#666666" points="0,0 0,-79 177,-79 177,0 0,0"/>
</a>
</g>
</g>
</g>
</svg>
