<?xml version="1.0" encoding="UTF-8" standalone="no"?>
<!DOCTYPE svg PUBLIC "-//W3C//DTD SVG 1.1//EN"
 "http://www.w3.org/Graphics/SVG/1.1/DTD/svg11.dtd">
<!-- Generated by graphviz version 8.0.5 (20230430.1635)
 -->
<!-- Title: com.ringcentral.video.ClosedCaptionsState Pages: 1 -->
<svg width="207pt" height="87pt"
 viewBox="0.00 0.00 207.00 87.00" xmlns="http://www.w3.org/2000/svg" xmlns:xlink="http://www.w3.org/1999/xlink">
<g id="graph0" class="graph" transform="scale(1 1) rotate(0) translate(4 83)">
<title>com.ringcentral.video.ClosedCaptionsState</title>
<!-- Node1 -->
<g id="Node000001" class="node">
<title>Node1</title>
<g id="a_Node000001"><a xlink:title=" ">
<polygon fill="#999999" stroke="none" points="199,-79 0,-79 0,0 199,0 199,-79"/>
<text text-anchor="start" x="5" y="-65.5" font-family="Helvetica,sans-Serif" font-size="10.00">com.ringcentral.video.ClosedCaptionsState</text>
<text text-anchor="start" x="31.5" y="-50.5" font-family="Helvetica,sans-Serif" font-size="10.00">+</text>
<text text-anchor="start" x="69" y="-50.5" font-family="Helvetica,sans-Serif" font-size="10.00">UNACTIVATED</text>
<text text-anchor="start" x="31.5" y="-35.5" font-family="Helvetica,sans-Serif" font-size="10.00">+</text>
<text text-anchor="start" x="69" y="-35.5" font-family="Helvetica,sans-Serif" font-size="10.00">STARTED</text>
<text text-anchor="start" x="31.5" y="-20.5" font-family="Helvetica,sans-Serif" font-size="10.00">+</text>
<text text-anchor="start" x="69" y="-20.5" font-family="Helvetica,sans-Serif" font-size="10.00">STOPPED</text>
<text text-anchor="start" x="98" y="-5.5" font-family="Helvetica,sans-Serif" font-size="10.00"> </text>
<polygon fill="#666666" stroke="#666666" points="0,-62 0,-62 199,-62 199,-62 0,-62"/>
<polygon fill="#666666" stroke="#666666" points="0,-17 0,-17 67,-17 67,-17 0,-17"/>
<polygon fill="#666666" stroke="#666666" points="67,-17 67,-17 199,-17 199,-17 67,-17"/>
<polygon fill="none" stroke="#666666" points="0,0 0,-79 199,-79 199,0 0,0"/>
</a>
</g>
</g>
</g>
</svg>
