<?xml version="1.0" encoding="UTF-8" standalone="no"?>
<!DOCTYPE svg PUBLIC "-//W3C//DTD SVG 1.1//EN"
 "http://www.w3.org/Graphics/SVG/1.1/DTD/svg11.dtd">
<!-- Generated by graphviz version 8.1.0 (20230707.0739)
 -->
<!-- Title: com.ringcentral.video.EParticipantStatus Pages: 1 -->
<svg width="195pt" height="192pt"
 viewBox="0.00 0.00 195.00 192.00" xmlns="http://www.w3.org/2000/svg" xmlns:xlink="http://www.w3.org/1999/xlink">
<g id="graph0" class="graph" transform="scale(1 1) rotate(0) translate(4 188)">
<title>com.ringcentral.video.EParticipantStatus</title>
<!-- Node1 -->
<g id="Node000001" class="node">
<title>Node1</title>
<g id="a_Node000001"><a xlink:title=" ">
<polygon fill="#999999" stroke="none" points="187,-184 0,-184 0,0 187,0 187,-184"/>
<text text-anchor="start" x="4.62" y="-170.5" font-family="Helvetica,sans-Serif" font-size="10.00">com.ringcentral.video.EParticipantStatus</text>
<text text-anchor="start" x="15" y="-155.5" font-family="Helvetica,sans-Serif" font-size="10.00">+</text>
<text text-anchor="start" x="36" y="-155.5" font-family="Helvetica,sans-Serif" font-size="10.00">IDLE</text>
<text text-anchor="start" x="15" y="-140.5" font-family="Helvetica,sans-Serif" font-size="10.00">+</text>
<text text-anchor="start" x="36" y="-140.5" font-family="Helvetica,sans-Serif" font-size="10.00">DISCONNECTED</text>
<text text-anchor="start" x="15" y="-125.5" font-family="Helvetica,sans-Serif" font-size="10.00">+</text>
<text text-anchor="start" x="36" y="-125.5" font-family="Helvetica,sans-Serif" font-size="10.00">NO_ANSWER</text>
<text text-anchor="start" x="15" y="-110.5" font-family="Helvetica,sans-Serif" font-size="10.00">+</text>
<text text-anchor="start" x="36" y="-110.5" font-family="Helvetica,sans-Serif" font-size="10.00">REJECTED</text>
<text text-anchor="start" x="15" y="-95.5" font-family="Helvetica,sans-Serif" font-size="10.00">+</text>
<text text-anchor="start" x="36" y="-95.5" font-family="Helvetica,sans-Serif" font-size="10.00">CANCELED</text>
<text text-anchor="start" x="15" y="-80.5" font-family="Helvetica,sans-Serif" font-size="10.00">+</text>
<text text-anchor="start" x="36" y="-80.5" font-family="Helvetica,sans-Serif" font-size="10.00">RINGING</text>
<text text-anchor="start" x="15" y="-65.5" font-family="Helvetica,sans-Serif" font-size="10.00">+</text>
<text text-anchor="start" x="36" y="-65.5" font-family="Helvetica,sans-Serif" font-size="10.00">ACTIVE</text>
<text text-anchor="start" x="15" y="-50.5" font-family="Helvetica,sans-Serif" font-size="10.00">+</text>
<text text-anchor="start" x="36" y="-50.5" font-family="Helvetica,sans-Serif" font-size="10.00">IN_WAITING_ROOM</text>
<text text-anchor="start" x="15" y="-35.5" font-family="Helvetica,sans-Serif" font-size="10.00">+</text>
<text text-anchor="start" x="36" y="-35.5" font-family="Helvetica,sans-Serif" font-size="10.00">WAITING_ROOM_JOINING</text>
<text text-anchor="start" x="15" y="-20.5" font-family="Helvetica,sans-Serif" font-size="10.00">+</text>
<text text-anchor="start" x="36" y="-20.5" font-family="Helvetica,sans-Serif" font-size="10.00">INVISIBLE</text>
<text text-anchor="start" x="92" y="-5.5" font-family="Helvetica,sans-Serif" font-size="10.00"> </text>
<polygon fill="#666666" stroke="#666666" points="0,-167 0,-167 187,-167 187,-167 0,-167"/>
<polygon fill="#666666" stroke="#666666" points="0,-17 0,-17 34,-17 34,-17 0,-17"/>
<polygon fill="#666666" stroke="#666666" points="34,-17 34,-17 187,-17 187,-17 34,-17"/>
<polygon fill="none" stroke="#666666" points="0,0 0,-184 187,-184 187,0 0,0"/>
</a>
</g>
</g>
</g>
</svg>
