<?xml version="1.0" encoding="UTF-8" standalone="no"?>
<!DOCTYPE svg PUBLIC "-//W3C//DTD SVG 1.1//EN"
 "http://www.w3.org/Graphics/SVG/1.1/DTD/svg11.dtd">
<!-- Generated by graphviz version 8.0.5 (20230430.1635)
 -->
<!-- Title: com.ringcentral.video.MeetingApiExecuteResult Pages: 1 -->
<svg width="227pt" height="72pt"
 viewBox="0.00 0.00 227.00 72.00" xmlns="http://www.w3.org/2000/svg" xmlns:xlink="http://www.w3.org/1999/xlink">
<g id="graph0" class="graph" transform="scale(1 1) rotate(0) translate(4 68)">
<title>com.ringcentral.video.MeetingApiExecuteResult</title>
<!-- Node1 -->
<g id="Node000001" class="node">
<title>Node1</title>
<g id="a_Node000001"><a xlink:title=" ">
<polygon fill="#999999" stroke="none" points="219,-64 0,-64 0,0 219,0 219,-64"/>
<text text-anchor="start" x="4.88" y="-50.5" font-family="Helvetica,sans-Serif" font-size="10.00">com.ringcentral.video.MeetingApiExecuteResult</text>
<text text-anchor="start" x="40.5" y="-35.5" font-family="Helvetica,sans-Serif" font-size="10.00">+</text>
<text text-anchor="start" x="87" y="-35.5" font-family="Helvetica,sans-Serif" font-size="10.00">ACCEPTED</text>
<text text-anchor="start" x="40.5" y="-20.5" font-family="Helvetica,sans-Serif" font-size="10.00">+</text>
<text text-anchor="start" x="87" y="-20.5" font-family="Helvetica,sans-Serif" font-size="10.00">DENIED</text>
<text text-anchor="start" x="108" y="-5.5" font-family="Helvetica,sans-Serif" font-size="10.00"> </text>
<polygon fill="#666666" stroke="#666666" points="0,-47 0,-47 219,-47 219,-47 0,-47"/>
<polygon fill="#666666" stroke="#666666" points="0,-17 0,-17 85,-17 85,-17 0,-17"/>
<polygon fill="#666666" stroke="#666666" points="85,-17 85,-17 219,-17 219,-17 85,-17"/>
<polygon fill="none" stroke="#666666" points="0,0 0,-64 219,-64 219,0 0,0"/>
</a>
</g>
</g>
</g>
</svg>
