<?xml version="1.0" encoding="UTF-8" standalone="no"?>
<!DOCTYPE svg PUBLIC "-//W3C//DTD SVG 1.1//EN"
 "http://www.w3.org/Graphics/SVG/1.1/DTD/svg11.dtd">
<!-- Generated by graphviz version 8.1.0 (20230707.0739)
 -->
<!-- Title: com.ringcentral.video.ChatType Pages: 1 -->
<svg width="156pt" height="72pt"
 viewBox="0.00 0.00 156.00 72.00" xmlns="http://www.w3.org/2000/svg" xmlns:xlink="http://www.w3.org/1999/xlink">
<g id="graph0" class="graph" transform="scale(1 1) rotate(0) translate(4 68)">
<title>com.ringcentral.video.ChatType</title>
<!-- Node1 -->
<g id="Node000001" class="node">
<title>Node1</title>
<g id="a_Node000001"><a xlink:title=" ">
<polygon fill="#999999" stroke="none" points="148,-64 0,-64 0,0 148,0 148,-64"/>
<text text-anchor="start" x="5" y="-50.5" font-family="Helvetica,sans-Serif" font-size="10.00">com.ringcentral.video.ChatType</text>
<text text-anchor="start" x="26" y="-35.5" font-family="Helvetica,sans-Serif" font-size="10.00">+</text>
<text text-anchor="start" x="58" y="-35.5" font-family="Helvetica,sans-Serif" font-size="10.00">PRIVATE</text>
<text text-anchor="start" x="26" y="-20.5" font-family="Helvetica,sans-Serif" font-size="10.00">+</text>
<text text-anchor="start" x="58" y="-20.5" font-family="Helvetica,sans-Serif" font-size="10.00">PUBLIC</text>
<text text-anchor="start" x="72.5" y="-5.5" font-family="Helvetica,sans-Serif" font-size="10.00"> </text>
<polygon fill="#666666" stroke="#666666" points="0,-47 0,-47 148,-47 148,-47 0,-47"/>
<polygon fill="#666666" stroke="#666666" points="0,-17 0,-17 56,-17 56,-17 0,-17"/>
<polygon fill="#666666" stroke="#666666" points="56,-17 56,-17 148,-17 148,-17 56,-17"/>
<polygon fill="none" stroke="#666666" points="0,0 0,-64 148,-64 148,0 0,0"/>
</a>
</g>
</g>
</g>
</svg>
