<?xml version="1.0" encoding="UTF-8" standalone="no"?>
<!DOCTYPE svg PUBLIC "-//W3C//DTD SVG 1.1//EN"
 "http://www.w3.org/Graphics/SVG/1.1/DTD/svg11.dtd">
<!-- Generated by graphviz version 8.0.5 (20230430.1635)
 -->
<!-- Title: com.ringcentral.video.LocalAudioStreamState Pages: 1 -->
<svg width="233pt" height="87pt"
 viewBox="0.00 0.00 233.00 87.00" xmlns="http://www.w3.org/2000/svg" xmlns:xlink="http://www.w3.org/1999/xlink">
<g id="graph0" class="graph" transform="scale(1 1) rotate(0) translate(4 83)">
<title>com.ringcentral.video.LocalAudioStreamState</title>
<!-- Node1 -->
<g id="Node000001" class="node">
<title>Node1</title>
<g id="a_Node000001"><a xlink:title=" ">
<polygon fill="#999999" stroke="none" points="225,-79 0,-79 0,0 225,0 225,-79"/>
<text text-anchor="start" x="13.12" y="-65.5" font-family="Helvetica,sans-Serif" font-size="10.00">com.ringcentral.video.LocalAudioStreamState</text>
<text text-anchor="start" x="4" y="-50.5" font-family="Helvetica,sans-Serif" font-size="10.00">+</text>
<text text-anchor="start" x="14" y="-50.5" font-family="Helvetica,sans-Serif" font-size="10.00">LOCAL_AUDIO_STREAM_STATE_STOPPED</text>
<text text-anchor="start" x="4" y="-35.5" font-family="Helvetica,sans-Serif" font-size="10.00">+</text>
<text text-anchor="start" x="14" y="-35.5" font-family="Helvetica,sans-Serif" font-size="10.00">LOCAL_AUDIO_STREAM_STATE_STARTED</text>
<text text-anchor="start" x="4" y="-20.5" font-family="Helvetica,sans-Serif" font-size="10.00">+</text>
<text text-anchor="start" x="14" y="-20.5" font-family="Helvetica,sans-Serif" font-size="10.00">LOCAL_AUDIO_STREAM_STATE_FAILED</text>
<text text-anchor="start" x="111" y="-5.5" font-family="Helvetica,sans-Serif" font-size="10.00"> </text>
<polygon fill="#666666" stroke="#666666" points="0,-62 0,-62 225,-62 225,-62 0,-62"/>
<polygon fill="#666666" stroke="#666666" points="0,-17 0,-17 12,-17 12,-17 0,-17"/>
<polygon fill="#666666" stroke="#666666" points="12,-17 12,-17 225,-17 225,-17 12,-17"/>
<polygon fill="none" stroke="#666666" points="0,0 0,-79 225,-79 225,0 0,0"/>
</a>
</g>
</g>
</g>
</svg>
