<?xml version="1.0" encoding="UTF-8" standalone="no"?>
<!DOCTYPE svg PUBLIC "-//W3C//DTD SVG 1.1//EN"
 "http://www.w3.org/Graphics/SVG/1.1/DTD/svg11.dtd">
<!-- Generated by graphviz version 8.0.5 (20230430.1635)
 -->
<!-- Title: com.ringcentral.video.NqiState Pages: 1 -->
<svg width="152pt" height="117pt"
 viewBox="0.00 0.00 152.00 117.00" xmlns="http://www.w3.org/2000/svg" xmlns:xlink="http://www.w3.org/1999/xlink">
<g id="graph0" class="graph" transform="scale(1 1) rotate(0) translate(4 113)">
<title>com.ringcentral.video.NqiState</title>
<!-- Node1 -->
<g id="Node000001" class="node">
<title>Node1</title>
<g id="a_Node000001"><a xlink:title=" ">
<polygon fill="#999999" stroke="none" points="144,-109 0,-109 0,0 144,0 144,-109"/>
<text text-anchor="start" x="4.88" y="-95.5" font-family="Helvetica,sans-Serif" font-size="10.00">com.ringcentral.video.NqiState</text>
<text text-anchor="start" x="15" y="-80.5" font-family="Helvetica,sans-Serif" font-size="10.00">+</text>
<text text-anchor="start" x="36" y="-80.5" font-family="Helvetica,sans-Serif" font-size="10.00">DISCONNECTED</text>
<text text-anchor="start" x="15" y="-65.5" font-family="Helvetica,sans-Serif" font-size="10.00">+</text>
<text text-anchor="start" x="36" y="-65.5" font-family="Helvetica,sans-Serif" font-size="10.00">POOR</text>
<text text-anchor="start" x="15" y="-50.5" font-family="Helvetica,sans-Serif" font-size="10.00">+</text>
<text text-anchor="start" x="36" y="-50.5" font-family="Helvetica,sans-Serif" font-size="10.00">MEDIUM</text>
<text text-anchor="start" x="15" y="-35.5" font-family="Helvetica,sans-Serif" font-size="10.00">+</text>
<text text-anchor="start" x="36" y="-35.5" font-family="Helvetica,sans-Serif" font-size="10.00">GOOD</text>
<text text-anchor="start" x="15" y="-20.5" font-family="Helvetica,sans-Serif" font-size="10.00">+</text>
<text text-anchor="start" x="36" y="-20.5" font-family="Helvetica,sans-Serif" font-size="10.00">UNKNOWN</text>
<text text-anchor="start" x="70.5" y="-5.5" font-family="Helvetica,sans-Serif" font-size="10.00"> </text>
<polygon fill="#666666" stroke="#666666" points="0,-92 0,-92 144,-92 144,-92 0,-92"/>
<polygon fill="#666666" stroke="#666666" points="0,-17 0,-17 34,-17 34,-17 0,-17"/>
<polygon fill="#666666" stroke="#666666" points="34,-17 34,-17 144,-17 144,-17 34,-17"/>
<polygon fill="none" stroke="#666666" points="0,0 0,-109 144,-109 144,0 0,0"/>
</a>
</g>
</g>
</g>
</svg>
