<?xml version="1.0" encoding="UTF-8" standalone="no"?>
<!DOCTYPE svg PUBLIC "-//W3C//DTD SVG 1.1//EN"
 "http://www.w3.org/Graphics/SVG/1.1/DTD/svg11.dtd">
<!-- Generated by graphviz version 8.0.5 (20230430.1635)
 -->
<!-- Title: com.ringcentral.video.SharingType Pages: 1 -->
<svg width="168pt" height="102pt"
 viewBox="0.00 0.00 168.00 102.00" xmlns="http://www.w3.org/2000/svg" xmlns:xlink="http://www.w3.org/1999/xlink">
<g id="graph0" class="graph" transform="scale(1 1) rotate(0) translate(4 98)">
<title>com.ringcentral.video.SharingType</title>
<!-- Node1 -->
<g id="Node000001" class="node">
<title>Node1</title>
<g id="a_Node000001"><a xlink:title=" ">
<polygon fill="#999999" stroke="none" points="160,-94 0,-94 0,0 160,0 160,-94"/>
<text text-anchor="start" x="5" y="-80.5" font-family="Helvetica,sans-Serif" font-size="10.00">com.ringcentral.video.SharingType</text>
<text text-anchor="start" x="6.5" y="-65.5" font-family="Helvetica,sans-Serif" font-size="10.00">+</text>
<text text-anchor="start" x="19" y="-65.5" font-family="Helvetica,sans-Serif" font-size="10.00">SHARING_SCREEN</text>
<text text-anchor="start" x="6.5" y="-50.5" font-family="Helvetica,sans-Serif" font-size="10.00">+</text>
<text text-anchor="start" x="19" y="-50.5" font-family="Helvetica,sans-Serif" font-size="10.00">SHARING_CAMERA</text>
<text text-anchor="start" x="6.5" y="-35.5" font-family="Helvetica,sans-Serif" font-size="10.00">+</text>
<text text-anchor="start" x="19" y="-35.5" font-family="Helvetica,sans-Serif" font-size="10.00">SHARING_VIEW_CONTENT</text>
<text text-anchor="start" x="6.5" y="-20.5" font-family="Helvetica,sans-Serif" font-size="10.00">+</text>
<text text-anchor="start" x="19" y="-20.5" font-family="Helvetica,sans-Serif" font-size="10.00">SHARING_APP</text>
<text text-anchor="start" x="78.5" y="-5.5" font-family="Helvetica,sans-Serif" font-size="10.00"> </text>
<polygon fill="#666666" stroke="#666666" points="0,-77 0,-77 160,-77 160,-77 0,-77"/>
<polygon fill="#666666" stroke="#666666" points="0,-17 0,-17 17,-17 17,-17 0,-17"/>
<polygon fill="#666666" stroke="#666666" points="17,-17 17,-17 160,-17 160,-17 17,-17"/>
<polygon fill="none" stroke="#666666" points="0,0 0,-94 160,-94 160,0 0,0"/>
</a>
</g>
</g>
</g>
</svg>
