<?xml version="1.0" encoding="UTF-8" standalone="no"?>
<!DOCTYPE svg PUBLIC "-//W3C//DTD SVG 1.1//EN"
 "http://www.w3.org/Graphics/SVG/1.1/DTD/svg11.dtd">
<!-- Generated by graphviz version 8.1.0 (20230707.0739)
 -->
<!-- Title: com.ringcentral.video.ENqiStatus Pages: 1 -->
<svg width="164pt" height="132pt"
 viewBox="0.00 0.00 164.00 132.00" xmlns="http://www.w3.org/2000/svg" xmlns:xlink="http://www.w3.org/1999/xlink">
<g id="graph0" class="graph" transform="scale(1 1) rotate(0) translate(4 128)">
<title>com.ringcentral.video.ENqiStatus</title>
<!-- Node1 -->
<g id="Node000001" class="node">
<title>Node1</title>
<g id="a_Node000001"><a xlink:title=" ">
<polygon fill="#999999" stroke="none" points="156,-124 0,-124 0,0 156,0 156,-124"/>
<text text-anchor="start" x="4.88" y="-110.5" font-family="Helvetica,sans-Serif" font-size="10.00">com.ringcentral.video.ENqiStatus</text>
<text text-anchor="start" x="18" y="-95.5" font-family="Helvetica,sans-Serif" font-size="10.00">+</text>
<text text-anchor="start" x="42" y="-95.5" font-family="Helvetica,sans-Serif" font-size="10.00">DISCONNECTED</text>
<text text-anchor="start" x="18" y="-80.5" font-family="Helvetica,sans-Serif" font-size="10.00">+</text>
<text text-anchor="start" x="42" y="-80.5" font-family="Helvetica,sans-Serif" font-size="10.00">POOR</text>
<text text-anchor="start" x="18" y="-65.5" font-family="Helvetica,sans-Serif" font-size="10.00">+</text>
<text text-anchor="start" x="42" y="-65.5" font-family="Helvetica,sans-Serif" font-size="10.00">MEDIUM</text>
<text text-anchor="start" x="18" y="-50.5" font-family="Helvetica,sans-Serif" font-size="10.00">+</text>
<text text-anchor="start" x="42" y="-50.5" font-family="Helvetica,sans-Serif" font-size="10.00">GOOD</text>
<text text-anchor="start" x="18" y="-35.5" font-family="Helvetica,sans-Serif" font-size="10.00">+</text>
<text text-anchor="start" x="42" y="-35.5" font-family="Helvetica,sans-Serif" font-size="10.00">STABLE</text>
<text text-anchor="start" x="18" y="-20.5" font-family="Helvetica,sans-Serif" font-size="10.00">+</text>
<text text-anchor="start" x="42" y="-20.5" font-family="Helvetica,sans-Serif" font-size="10.00">UNKNOWN</text>
<text text-anchor="start" x="76.5" y="-5.5" font-family="Helvetica,sans-Serif" font-size="10.00"> </text>
<polygon fill="#666666" stroke="#666666" points="0,-107 0,-107 156,-107 156,-107 0,-107"/>
<polygon fill="#666666" stroke="#666666" points="0,-17 0,-17 40,-17 40,-17 0,-17"/>
<polygon fill="#666666" stroke="#666666" points="40,-17 40,-17 156,-17 156,-17 40,-17"/>
<polygon fill="none" stroke="#666666" points="0,0 0,-124 156,-124 156,0 0,0"/>
</a>
</g>
</g>
</g>
</svg>
