<?xml version="1.0" encoding="UTF-8" standalone="no"?>
<!DOCTYPE svg PUBLIC "-//W3C//DTD SVG 1.1//EN"
 "http://www.w3.org/Graphics/SVG/1.1/DTD/svg11.dtd">
<!-- Generated by graphviz version 8.0.5 (20230430.1635)
 -->
<!-- Title: com.ringcentral.video.EndToEndEncryptionState Pages: 1 -->
<svg width="228pt" height="117pt"
 viewBox="0.00 0.00 228.00 117.00" xmlns="http://www.w3.org/2000/svg" xmlns:xlink="http://www.w3.org/1999/xlink">
<g id="graph0" class="graph" transform="scale(1 1) rotate(0) translate(4 113)">
<title>com.ringcentral.video.EndToEndEncryptionState</title>
<!-- Node1 -->
<g id="Node000001" class="node">
<title>Node1</title>
<g id="a_Node000001"><a xlink:title=" ">
<polygon fill="#999999" stroke="none" points="220,-109 0,-109 0,0 220,0 220,-109"/>
<text text-anchor="start" x="4.62" y="-95.5" font-family="Helvetica,sans-Serif" font-size="10.00">com.ringcentral.video.EndToEndEncryptionState</text>
<text text-anchor="start" x="33.5" y="-80.5" font-family="Helvetica,sans-Serif" font-size="10.00">+</text>
<text text-anchor="start" x="73" y="-80.5" font-family="Helvetica,sans-Serif" font-size="10.00">DISABLED</text>
<text text-anchor="start" x="33.5" y="-65.5" font-family="Helvetica,sans-Serif" font-size="10.00">+</text>
<text text-anchor="start" x="73" y="-65.5" font-family="Helvetica,sans-Serif" font-size="10.00">ENABLED</text>
<text text-anchor="start" x="33.5" y="-50.5" font-family="Helvetica,sans-Serif" font-size="10.00">+</text>
<text text-anchor="start" x="73" y="-50.5" font-family="Helvetica,sans-Serif" font-size="10.00">DISABLING</text>
<text text-anchor="start" x="33.5" y="-35.5" font-family="Helvetica,sans-Serif" font-size="10.00">+</text>
<text text-anchor="start" x="73" y="-35.5" font-family="Helvetica,sans-Serif" font-size="10.00">ENABLING</text>
<text text-anchor="start" x="33.5" y="-20.5" font-family="Helvetica,sans-Serif" font-size="10.00">+</text>
<text text-anchor="start" x="73" y="-20.5" font-family="Helvetica,sans-Serif" font-size="10.00">NEED_UPGRADE</text>
<text text-anchor="start" x="108.5" y="-5.5" font-family="Helvetica,sans-Serif" font-size="10.00"> </text>
<polygon fill="#666666" stroke="#666666" points="0,-92 0,-92 220,-92 220,-92 0,-92"/>
<polygon fill="#666666" stroke="#666666" points="0,-17 0,-17 71,-17 71,-17 0,-17"/>
<polygon fill="#666666" stroke="#666666" points="71,-17 71,-17 220,-17 220,-17 71,-17"/>
<polygon fill="none" stroke="#666666" points="0,0 0,-109 220,-109 220,0 0,0"/>
</a>
</g>
</g>
</g>
</svg>
