<?xml version="1.0" encoding="UTF-8" standalone="no"?>
<!DOCTYPE svg PUBLIC "-//W3C//DTD SVG 1.1//EN"
 "http://www.w3.org/Graphics/SVG/1.1/DTD/svg11.dtd">
<!-- Generated by graphviz version 8.1.0 (20230707.0739)
 -->
<!-- Title: com.ringcentral.video.EJoinMeetingType Pages: 1 -->
<svg width="194pt" height="102pt"
 viewBox="0.00 0.00 194.00 102.00" xmlns="http://www.w3.org/2000/svg" xmlns:xlink="http://www.w3.org/1999/xlink">

<svg id="main" version="1.1" xmlns="http://www.w3.org/2000/svg" xmlns:xlink="http://www.w3.org/1999/xlink" xml:space="preserve" onload="init(evt)">
<style type="text/css"><![CDATA[
.node, .edge {opacity: 0.7;}
.node.selected, .edge.selected {opacity: 1;}
.edge:hover path { stroke: red; }
.edge:hover polygon { stroke: red; fill: red; }
]]></style>
<script type="application/ecmascript" xlink:href="svg.min.js"/>
<svg id="graph" class="graph">
<g id="graph0" class="graph" transform="scale(1 1) rotate(0) translate(4 98)">
<title>com.ringcentral.video.EJoinMeetingType</title>
<!-- Node1 -->
<g id="Node000001" class="node">
<title>Node1</title>
<g id="a_Node000001"><a xlink:title=" ">
<polygon fill="#999999" stroke="none" points="186,-94 0,-94 0,0 186,0 186,-94"/>
<text text-anchor="start" x="4.88" y="-80.5" font-family="Helvetica,sans-Serif" font-size="10.00">com.ringcentral.video.EJoinMeetingType</text>
<text text-anchor="start" x="25" y="-65.5" font-family="Helvetica,sans-Serif" font-size="10.00">+</text>
<text text-anchor="start" x="56" y="-65.5" font-family="Helvetica,sans-Serif" font-size="10.00">RCV_MEETING</text>
<text text-anchor="start" x="25" y="-50.5" font-family="Helvetica,sans-Serif" font-size="10.00">+</text>
<text text-anchor="start" x="56" y="-50.5" font-family="Helvetica,sans-Serif" font-size="10.00">SIP_MEETING</text>
<text text-anchor="start" x="25" y="-35.5" font-family="Helvetica,sans-Serif" font-size="10.00">+</text>
<text text-anchor="start" x="56" y="-35.5" font-family="Helvetica,sans-Serif" font-size="10.00">RCW_PANELIST</text>
<text text-anchor="start" x="25" y="-20.5" font-family="Helvetica,sans-Serif" font-size="10.00">+</text>
<text text-anchor="start" x="56" y="-20.5" font-family="Helvetica,sans-Serif" font-size="10.00">RCW_AUDIENCE</text>
<text text-anchor="start" x="91.5" y="-5.5" font-family="Helvetica,sans-Serif" font-size="10.00"> </text>
<polygon fill="#666666" stroke="#666666" points="0,-77 0,-77 186,-77 186,-77 0,-77"/>
<polygon fill="#666666" stroke="#666666" points="0,-17 0,-17 54,-17 54,-17 0,-17"/>
<polygon fill="#666666" stroke="#666666" points="54,-17 54,-17 186,-17 186,-17 54,-17"/>
<polygon fill="none" stroke="#666666" points="0,0 0,-94 186,-94 186,0 0,0"/>
</a>
</g>
</g>
</g>
</svg>
</svg>

<style type='text/css'>
<![CDATA[
[data-mouse-over-selected='false'] { opacity: 0.7; }
[data-mouse-over-selected='true']  { opacity: 1.0; }
]]>
</style>
<script type="application/ecmascript"><![CDATA[
document.addEventListener('DOMContentLoaded', (event) => {
  highlightEdges();
  highlightAdjacentNodes();
});
]]></script>
</svg>
