<?xml version="1.0" encoding="UTF-8" standalone="no"?>
<!DOCTYPE svg PUBLIC "-//W3C//DTD SVG 1.1//EN"
 "http://www.w3.org/Graphics/SVG/1.1/DTD/svg11.dtd">
<!-- Generated by graphviz version 8.0.5 (20230430.1635)
 -->
<!-- Title: com.ringcentral.video.EReactionAction Pages: 1 -->
<svg width="187pt" height="237pt"
 viewBox="0.00 0.00 187.00 237.00" xmlns="http://www.w3.org/2000/svg" xmlns:xlink="http://www.w3.org/1999/xlink">
<g id="graph0" class="graph" transform="scale(1 1) rotate(0) translate(4 233)">
<title>com.ringcentral.video.EReactionAction</title>
<!-- Node1 -->
<g id="Node000001" class="node">
<title>Node1</title>
<g id="a_Node000001"><a xlink:title=" ">
<polygon fill="#999999" stroke="none" points="179,-229 0,-229 0,0 179,0 179,-229"/>
<text text-anchor="start" x="4.75" y="-215.5" font-family="Helvetica,sans-Serif" font-size="10.00">com.ringcentral.video.EReactionAction</text>
<text text-anchor="start" x="23" y="-200.5" font-family="Helvetica,sans-Serif" font-size="10.00">+</text>
<text text-anchor="start" x="52" y="-200.5" font-family="Helvetica,sans-Serif" font-size="10.00">NONE</text>
<text text-anchor="start" x="23" y="-185.5" font-family="Helvetica,sans-Serif" font-size="10.00">+</text>
<text text-anchor="start" x="52" y="-185.5" font-family="Helvetica,sans-Serif" font-size="10.00">BE_RIGHT_BACK</text>
<text text-anchor="start" x="23" y="-170.5" font-family="Helvetica,sans-Serif" font-size="10.00">+</text>
<text text-anchor="start" x="52" y="-170.5" font-family="Helvetica,sans-Serif" font-size="10.00">MULTITASKING</text>
<text text-anchor="start" x="23" y="-155.5" font-family="Helvetica,sans-Serif" font-size="10.00">+</text>
<text text-anchor="start" x="52" y="-155.5" font-family="Helvetica,sans-Serif" font-size="10.00">RAISE_HAND</text>
<text text-anchor="start" x="23" y="-140.5" font-family="Helvetica,sans-Serif" font-size="10.00">+</text>
<text text-anchor="start" x="52" y="-140.5" font-family="Helvetica,sans-Serif" font-size="10.00">SLOW_DOWN</text>
<text text-anchor="start" x="23" y="-125.5" font-family="Helvetica,sans-Serif" font-size="10.00">+</text>
<text text-anchor="start" x="52" y="-125.5" font-family="Helvetica,sans-Serif" font-size="10.00">SPEED_UP</text>
<text text-anchor="start" x="23" y="-110.5" font-family="Helvetica,sans-Serif" font-size="10.00">+</text>
<text text-anchor="start" x="52" y="-110.5" font-family="Helvetica,sans-Serif" font-size="10.00">REACTIONS_YES</text>
<text text-anchor="start" x="23" y="-95.5" font-family="Helvetica,sans-Serif" font-size="10.00">+</text>
<text text-anchor="start" x="52" y="-95.5" font-family="Helvetica,sans-Serif" font-size="10.00">REACTIONS_NO</text>
<text text-anchor="start" x="23" y="-80.5" font-family="Helvetica,sans-Serif" font-size="10.00">+</text>
<text text-anchor="start" x="52" y="-80.5" font-family="Helvetica,sans-Serif" font-size="10.00">THUMB_UP</text>
<text text-anchor="start" x="23" y="-65.5" font-family="Helvetica,sans-Serif" font-size="10.00">+</text>
<text text-anchor="start" x="52" y="-65.5" font-family="Helvetica,sans-Serif" font-size="10.00">APPLAUSE</text>
<text text-anchor="start" x="23" y="-50.5" font-family="Helvetica,sans-Serif" font-size="10.00">+</text>
<text text-anchor="start" x="52" y="-50.5" font-family="Helvetica,sans-Serif" font-size="10.00">SURPRISED</text>
<text text-anchor="start" x="23" y="-35.5" font-family="Helvetica,sans-Serif" font-size="10.00">+</text>
<text text-anchor="start" x="52" y="-35.5" font-family="Helvetica,sans-Serif" font-size="10.00">LAUGHING</text>
<text text-anchor="start" x="23" y="-20.5" font-family="Helvetica,sans-Serif" font-size="10.00">+</text>
<text text-anchor="start" x="52" y="-20.5" font-family="Helvetica,sans-Serif" font-size="10.00">SAD</text>
<text text-anchor="start" x="88" y="-5.5" font-family="Helvetica,sans-Serif" font-size="10.00"> </text>
<polygon fill="#666666" stroke="#666666" points="0,-212 0,-212 179,-212 179,-212 0,-212"/>
<polygon fill="#666666" stroke="#666666" points="0,-17 0,-17 50,-17 50,-17 0,-17"/>
<polygon fill="#666666" stroke="#666666" points="50,-17 50,-17 179,-17 179,-17 50,-17"/>
<polygon fill="none" stroke="#666666" points="0,0 0,-229 179,-229 179,0 0,0"/>
</a>
</g>
</g>
</g>
</svg>
