<?xml version="1.0" encoding="UTF-8" standalone="no"?>
<!DOCTYPE svg PUBLIC "-//W3C//DTD SVG 1.1//EN"
 "http://www.w3.org/Graphics/SVG/1.1/DTD/svg11.dtd">
<!-- Generated by graphviz version 8.0.5 (20230430.1635)
 -->
<!-- Title: com.ringcentral.video.MeetingState Pages: 1 -->
<svg width="171pt" height="162pt"
 viewBox="0.00 0.00 171.00 162.00" xmlns="http://www.w3.org/2000/svg" xmlns:xlink="http://www.w3.org/1999/xlink">
<g id="graph0" class="graph" transform="scale(1 1) rotate(0) translate(4 158)">
<title>com.ringcentral.video.MeetingState</title>
<!-- Node1 -->
<g id="Node000001" class="node">
<title>Node1</title>
<g id="a_Node000001"><a xlink:title=" ">
<polygon fill="#999999" stroke="none" points="163,-154 0,-154 0,0 163,0 163,-154"/>
<text text-anchor="start" x="4.62" y="-140.5" font-family="Helvetica,sans-Serif" font-size="10.00">com.ringcentral.video.MeetingState</text>
<text text-anchor="start" x="16.5" y="-125.5" font-family="Helvetica,sans-Serif" font-size="10.00">+</text>
<text text-anchor="start" x="39" y="-125.5" font-family="Helvetica,sans-Serif" font-size="10.00">UNKNOWN</text>
<text text-anchor="start" x="16.5" y="-110.5" font-family="Helvetica,sans-Serif" font-size="10.00">+</text>
<text text-anchor="start" x="39" y="-110.5" font-family="Helvetica,sans-Serif" font-size="10.00">CONNECTING</text>
<text text-anchor="start" x="16.5" y="-95.5" font-family="Helvetica,sans-Serif" font-size="10.00">+</text>
<text text-anchor="start" x="39" y="-95.5" font-family="Helvetica,sans-Serif" font-size="10.00">RECONNECTING</text>
<text text-anchor="start" x="16.5" y="-80.5" font-family="Helvetica,sans-Serif" font-size="10.00">+</text>
<text text-anchor="start" x="39" y="-80.5" font-family="Helvetica,sans-Serif" font-size="10.00">DISCONNECTING</text>
<text text-anchor="start" x="16.5" y="-65.5" font-family="Helvetica,sans-Serif" font-size="10.00">+</text>
<text text-anchor="start" x="39" y="-65.5" font-family="Helvetica,sans-Serif" font-size="10.00">IN_WAITING_ROOM</text>
<text text-anchor="start" x="16.5" y="-50.5" font-family="Helvetica,sans-Serif" font-size="10.00">+</text>
<text text-anchor="start" x="39" y="-50.5" font-family="Helvetica,sans-Serif" font-size="10.00">IN_MEETING</text>
<text text-anchor="start" x="16.5" y="-35.5" font-family="Helvetica,sans-Serif" font-size="10.00">+</text>
<text text-anchor="start" x="39" y="-35.5" font-family="Helvetica,sans-Serif" font-size="10.00">WAITING_HOST</text>
<text text-anchor="start" x="16.5" y="-20.5" font-family="Helvetica,sans-Serif" font-size="10.00">+</text>
<text text-anchor="start" x="39" y="-20.5" font-family="Helvetica,sans-Serif" font-size="10.00">FAILED</text>
<text text-anchor="start" x="80" y="-5.5" font-family="Helvetica,sans-Serif" font-size="10.00"> </text>
<polygon fill="#666666" stroke="#666666" points="0,-137 0,-137 163,-137 163,-137 0,-137"/>
<polygon fill="#666666" stroke="#666666" points="0,-17 0,-17 37,-17 37,-17 0,-17"/>
<polygon fill="#666666" stroke="#666666" points="37,-17 37,-17 163,-17 163,-17 37,-17"/>
<polygon fill="none" stroke="#666666" points="0,0 0,-154 163,-154 163,0 0,0"/>
</a>
</g>
</g>
</g>
</svg>
