<?xml version="1.0" encoding="UTF-8" standalone="no"?>
<!DOCTYPE svg PUBLIC "-//W3C//DTD SVG 1.1//EN"
 "http://www.w3.org/Graphics/SVG/1.1/DTD/svg11.dtd">
<!-- Generated by graphviz version 8.1.0 (20230707.0739)
 -->
<!-- Title: com.ringcentral.video.OnlyAuthUserJoinMode Pages: 1 -->
<svg width="217pt" height="87pt"
 viewBox="0.00 0.00 217.00 87.00" xmlns="http://www.w3.org/2000/svg" xmlns:xlink="http://www.w3.org/1999/xlink">

<svg id="main" version="1.1" xmlns="http://www.w3.org/2000/svg" xmlns:xlink="http://www.w3.org/1999/xlink" xml:space="preserve" onload="init(evt)">
<style type="text/css"><![CDATA[
.node, .edge {opacity: 0.7;}
.node.selected, .edge.selected {opacity: 1;}
.edge:hover path { stroke: red; }
.edge:hover polygon { stroke: red; fill: red; }
]]></style>
<script type="application/ecmascript" xlink:href="svg.min.js"/>
<svg id="graph" class="graph">
<g id="graph0" class="graph" transform="scale(1 1) rotate(0) translate(4 83)">
<title>com.ringcentral.video.OnlyAuthUserJoinMode</title>
<!-- Node1 -->
<g id="Node000001" class="node">
<title>Node1</title>
<g id="a_Node000001"><a xlink:title=" ">
<polygon fill="#999999" stroke="none" points="209,-79 0,-79 0,0 209,0 209,-79"/>
<text text-anchor="start" x="4.75" y="-65.5" font-family="Helvetica,sans-Serif" font-size="10.00">com.ringcentral.video.OnlyAuthUserJoinMode</text>
<text text-anchor="start" x="28" y="-50.5" font-family="Helvetica,sans-Serif" font-size="10.00">+</text>
<text text-anchor="start" x="62" y="-50.5" font-family="Helvetica,sans-Serif" font-size="10.00">OFF</text>
<text text-anchor="start" x="28" y="-35.5" font-family="Helvetica,sans-Serif" font-size="10.00">+</text>
<text text-anchor="start" x="62" y="-35.5" font-family="Helvetica,sans-Serif" font-size="10.00">SIGNED_IN_USERS</text>
<text text-anchor="start" x="28" y="-20.5" font-family="Helvetica,sans-Serif" font-size="10.00">+</text>
<text text-anchor="start" x="62" y="-20.5" font-family="Helvetica,sans-Serif" font-size="10.00">CO_WORKERS</text>
<text text-anchor="start" x="103" y="-5.5" font-family="Helvetica,sans-Serif" font-size="10.00"> </text>
<polygon fill="#666666" stroke="#666666" points="0,-62 0,-62 209,-62 209,-62 0,-62"/>
<polygon fill="#666666" stroke="#666666" points="0,-17 0,-17 60,-17 60,-17 0,-17"/>
<polygon fill="#666666" stroke="#666666" points="60,-17 60,-17 209,-17 209,-17 60,-17"/>
<polygon fill="none" stroke="#666666" points="0,0 0,-79 209,-79 209,0 0,0"/>
</a>
</g>
</g>
</g>
</svg>
</svg>

<style type='text/css'>
<![CDATA[
[data-mouse-over-selected='false'] { opacity: 0.7; }
[data-mouse-over-selected='true']  { opacity: 1.0; }
]]>
</style>
<script type="application/ecmascript"><![CDATA[
document.addEventListener('DOMContentLoaded', (event) => {
  highlightEdges();
  highlightAdjacentNodes();
});
]]></script>
</svg>
