<?xml version="1.0" encoding="UTF-8" standalone="no"?>
<!DOCTYPE svg PUBLIC "-//W3C//DTD SVG 1.1//EN"
 "http://www.w3.org/Graphics/SVG/1.1/DTD/svg11.dtd">
<!-- Generated by graphviz version 2.30.1 (20201013.1554)
 -->
<!-- Title: Graphical Class Hierarchy Pages: 1 -->
<svg width="342pt" height="191pt"
 viewBox="0.00 0.00 342.00 191.00" xmlns="http://www.w3.org/2000/svg" xmlns:xlink="http://www.w3.org/1999/xlink">
<g id="graph0" class="graph" transform="scale(1 1) rotate(0) translate(4 187)">
<title>Graphical Class Hierarchy</title>
<polygon fill="white" stroke="white" points="-4,5 -4,-187 339,-187 339,5 -4,5"/>
<!-- Node1 -->
<g id="node1" class="node"><title>Node1</title>
<polygon fill="white" stroke="#bfbfbf" points="30.5,-49.5 30.5,-68.5 123.5,-68.5 123.5,-49.5 30.5,-49.5"/>
<text text-anchor="middle" x="77" y="-56.5" font-family="Helvetica,sans-Serif" font-size="10.00">RendererEvents</text>
</g>
<!-- Node2 -->
<g id="node2" class="node"><title>Node2</title>
<g id="a_node2"><a xlink:href="classcom_1_1ringcentral_1_1video_1_1RcvTextureViewRenderer.html" target="_top" xlink:title="com.ringcentral.video.Rcv\lTextureViewRenderer">
<polygon fill="white" stroke="black" points="190,-106 190,-136 334,-136 334,-106 190,-106"/>
<text text-anchor="start" x="198" y="-124" font-family="Helvetica,sans-Serif" font-size="10.00">com.ringcentral.video.Rcv</text>
<text text-anchor="middle" x="262" y="-113" font-family="Helvetica,sans-Serif" font-size="10.00">TextureViewRenderer</text>
</a>
</g>
</g>
<!-- Node1&#45;&gt;Node2 -->
<g id="edge1" class="edge"><title>Node1&#45;&gt;Node2</title>
<path fill="none" stroke="midnightblue" d="M130.187,-71.0398C138.213,-73.181 146.366,-75.5247 154,-78 178.757,-86.0275 205.963,-96.9906 226.746,-105.838"/>
<polygon fill="midnightblue" stroke="midnightblue" points="131.06,-67.6506 120.502,-68.5332 129.306,-74.4273 131.06,-67.6506"/>
</g>
<!-- Node3 -->
<g id="node3" class="node"><title>Node3</title>
<g id="a_node3"><a xlink:href="classcom_1_1ringcentral_1_1video_1_1RcvVideoCanvas.html" target="_top" xlink:title="com.ringcentral.video.Rcv\lVideoCanvas">
<polygon fill="white" stroke="black" points="190,-44 190,-74 334,-74 334,-44 190,-44"/>
<text text-anchor="start" x="198" y="-62" font-family="Helvetica,sans-Serif" font-size="10.00">com.ringcentral.video.Rcv</text>
<text text-anchor="middle" x="262" y="-51" font-family="Helvetica,sans-Serif" font-size="10.00">VideoCanvas</text>
</a>
</g>
</g>
<!-- Node1&#45;&gt;Node3 -->
<g id="edge2" class="edge"><title>Node1&#45;&gt;Node3</title>
<path fill="none" stroke="midnightblue" d="M133.848,-59C151.526,-59 171.31,-59 189.909,-59"/>
<polygon fill="midnightblue" stroke="midnightblue" points="133.707,-55.5001 123.707,-59 133.707,-62.5001 133.707,-55.5001"/>
</g>
<!-- Node4 -->
<g id="node4" class="node"><title>Node4</title>
<polygon fill="white" stroke="#bfbfbf" points="13,-125.5 13,-144.5 141,-144.5 141,-125.5 13,-125.5"/>
<text text-anchor="middle" x="77" y="-132.5" font-family="Helvetica,sans-Serif" font-size="10.00">SurfaceTextureListener</text>
</g>
<!-- Node4&#45;&gt;Node2 -->
<g id="edge3" class="edge"><title>Node4&#45;&gt;Node2</title>
<path fill="none" stroke="midnightblue" d="M151.316,-129.391C164.043,-128.417 177.259,-127.406 189.924,-126.438"/>
<polygon fill="midnightblue" stroke="midnightblue" points="150.938,-125.91 141.234,-130.162 151.472,-132.889 150.938,-125.91"/>
</g>
<!-- Node5 -->
<g id="node5" class="node"><title>Node5</title>
<polygon fill="white" stroke="#bfbfbf" points="38.5,-163.5 38.5,-182.5 115.5,-182.5 115.5,-163.5 38.5,-163.5"/>
<text text-anchor="middle" x="77" y="-170.5" font-family="Helvetica,sans-Serif" font-size="10.00">TextureView</text>
</g>
<!-- Node5&#45;&gt;Node2 -->
<g id="edge4" class="edge"><title>Node5&#45;&gt;Node2</title>
<path fill="none" stroke="midnightblue" d="M125.332,-161.589C134.849,-159.176 144.763,-156.577 154,-154 173.848,-148.463 195.605,-141.853 214.286,-136.009"/>
<polygon fill="midnightblue" stroke="midnightblue" points="124.452,-158.201 115.603,-164.027 126.154,-164.991 124.452,-158.201"/>
</g>
<!-- Node6 -->
<g id="node6" class="node"><title>Node6</title>
<polygon fill="white" stroke="#bfbfbf" points="44.5,-87.5 44.5,-106.5 109.5,-106.5 109.5,-87.5 44.5,-87.5"/>
<text text-anchor="middle" x="77" y="-94.5" font-family="Helvetica,sans-Serif" font-size="10.00">VideoSink</text>
</g>
<!-- Node6&#45;&gt;Node2 -->
<g id="edge5" class="edge"><title>Node6&#45;&gt;Node2</title>
<path fill="none" stroke="midnightblue" d="M119.901,-102.495C140.561,-105.205 166.056,-108.548 189.666,-111.645"/>
<polygon fill="midnightblue" stroke="midnightblue" points="120.246,-99.0106 109.876,-101.18 119.336,-105.951 120.246,-99.0106"/>
</g>
<!-- Node6&#45;&gt;Node3 -->
<g id="edge6" class="edge"><title>Node6&#45;&gt;Node3</title>
<path fill="none" stroke="midnightblue" d="M119.901,-88.2992C140.561,-84.0091 166.056,-78.7151 189.666,-73.8125"/>
<polygon fill="midnightblue" stroke="midnightblue" points="118.956,-84.9208 109.876,-90.3809 120.379,-91.7746 118.956,-84.9208"/>
</g>
<!-- Node7 -->
<g id="node7" class="node"><title>Node7</title>
<g id="a_node7"><a xlink:href="classcom_1_1ringcentral_1_1video_1_1VideoCanvas.html" target="_top" xlink:title="com.ringcentral.video.Video\lCanvas">
<polygon fill="white" stroke="black" points="0,-0 0,-30 154,-30 154,-0 0,-0"/>
<text text-anchor="start" x="8" y="-18" font-family="Helvetica,sans-Serif" font-size="10.00">com.ringcentral.video.Video</text>
<text text-anchor="middle" x="77" y="-7" font-family="Helvetica,sans-Serif" font-size="10.00">Canvas</text>
</a>
</g>
</g>
<!-- Node7&#45;&gt;Node3 -->
<g id="edge7" class="edge"><title>Node7&#45;&gt;Node3</title>
<path fill="none" stroke="midnightblue" d="M150.272,-32.3769C166.22,-36.2112 182.983,-40.2418 198.505,-43.9738"/>
<polygon fill="midnightblue" stroke="midnightblue" points="151.008,-28.954 140.466,-30.0192 149.371,-35.7601 151.008,-28.954"/>
</g>
</g>
</svg>
