<?xml version="1.0" encoding="UTF-8" standalone="no"?>
<!DOCTYPE svg PUBLIC "-//W3C//DTD SVG 1.1//EN"
 "http://www.w3.org/Graphics/SVG/1.1/DTD/svg11.dtd">
<!-- Generated by graphviz version 2.30.1 (20201013.1554)
 -->
<!-- Title: Graphical Class Hierarchy Pages: 1 -->
<svg width="282pt" height="66pt"
 viewBox="0.00 0.00 282.00 66.00" xmlns="http://www.w3.org/2000/svg" xmlns:xlink="http://www.w3.org/1999/xlink">
<g id="graph0" class="graph" transform="scale(1 1) rotate(0) translate(4 62)">
<title>Graphical Class Hierarchy</title>
<polygon fill="white" stroke="white" points="-4,5 -4,-62 279,-62 279,5 -4,5"/>
<!-- Node1 -->
<g id="node1" class="node"><title>Node1</title>
<polygon fill="white" stroke="#bfbfbf" points="7,-38.5 7,-57.5 87,-57.5 87,-38.5 7,-38.5"/>
<text text-anchor="middle" x="47" y="-45.5" font-family="Helvetica,sans-Serif" font-size="10.00">FrameLayout</text>
</g>
<!-- Node2 -->
<g id="node2" class="node"><title>Node2</title>
<g id="a_node2"><a xlink:href="classcom_1_1ringcentral_1_1video_1_1RcvVideoView.html" target="_top" xlink:title="com.ringcentral.video.Rcv\lVideoView">
<polygon fill="white" stroke="black" points="130,-14 130,-44 274,-44 274,-14 130,-14"/>
<text text-anchor="start" x="138" y="-32" font-family="Helvetica,sans-Serif" font-size="10.00">com.ringcentral.video.Rcv</text>
<text text-anchor="middle" x="202" y="-21" font-family="Helvetica,sans-Serif" font-size="10.00">VideoView</text>
</a>
</g>
</g>
<!-- Node1&#45;&gt;Node2 -->
<g id="edge1" class="edge"><title>Node1&#45;&gt;Node2</title>
<path fill="none" stroke="midnightblue" d="M97.1625,-41.8948C107.617,-40.5966 118.856,-39.2009 129.941,-37.8243"/>
<polygon fill="midnightblue" stroke="midnightblue" points="96.4967,-38.4506 87.0042,-43.1563 97.3594,-45.3972 96.4967,-38.4506"/>
</g>
<!-- Node3 -->
<g id="node3" class="node"><title>Node3</title>
<polygon fill="white" stroke="#bfbfbf" points="0,-0.5 0,-19.5 94,-19.5 94,-0.5 0,-0.5"/>
<text text-anchor="middle" x="47" y="-7.5" font-family="Helvetica,sans-Serif" font-size="10.00">ReleasableView</text>
</g>
<!-- Node3&#45;&gt;Node2 -->
<g id="edge2" class="edge"><title>Node3&#45;&gt;Node2</title>
<path fill="none" stroke="midnightblue" d="M104.314,-16.9932C112.672,-18.0311 121.376,-19.112 129.987,-20.1814"/>
<polygon fill="midnightblue" stroke="midnightblue" points="104.675,-13.5113 94.3202,-15.7522 103.813,-20.458 104.675,-13.5113"/>
</g>
</g>
</svg>
