<?xml version="1.0" encoding="UTF-8" standalone="no"?>
<!DOCTYPE svg PUBLIC "-//W3C//DTD SVG 1.1//EN"
 "http://www.w3.org/Graphics/SVG/1.1/DTD/svg11.dtd">
<!-- Generated by graphviz version 8.1.0 (20230707.0739)
 -->
<!-- Title: Graphical Class Hierarchy Pages: 1 -->
<svg width="438pt" height="175pt"
 viewBox="0.00 0.00 438.25 175.25" xmlns="http://www.w3.org/2000/svg" xmlns:xlink="http://www.w3.org/1999/xlink">
<g id="graph0" class="graph" transform="scale(1 1) rotate(0) translate(4 171.25)">
<title>Graphical Class Hierarchy</title>
<!-- Node0 -->
<g id="Node000000" class="node">
<title>Node0</title>
<g id="a_Node000000"><a xlink:title=" ">
<polygon fill="#e0e0e0" stroke="#999999" points="128.5,-56.25 42,-56.25 42,-37 128.5,-37 128.5,-56.25"/>
<text text-anchor="middle" x="85.25" y="-42.75" font-family="Helvetica,sans-Serif" font-size="10.00">RendererEvents</text>
</a>
</g>
</g>
<!-- Node1 -->
<g id="Node000001" class="node">
<title>Node1</title>
<g id="a_Node000001"><a xlink:href="classcom_1_1ringcentral_1_1video_1_1_rcv_texture_view_renderer.html" target="_top" xlink:title=" ">
<polygon fill="white" stroke="#666666" points="430.25,-111.25 206.5,-111.25 206.5,-92 430.25,-92 430.25,-111.25"/>
<text text-anchor="middle" x="318.38" y="-97.75" font-family="Helvetica,sans-Serif" font-size="10.00">com.ringcentral.video.RcvTextureViewRenderer</text>
</a>
</g>
</g>
<!-- Node0&#45;&gt;Node1 -->
<g id="edge4_Node000000_Node000001" class="edge">
<title>Node0&#45;&gt;Node1</title>
<g id="a_edge4_Node000000_Node000001"><a xlink:title=" ">
<path fill="none" stroke="#63b8ff" d="M139.34,-57.66C149.69,-59.9 160.44,-62.29 170.5,-64.62 207.38,-73.21 249.24,-83.84 278.81,-91.5"/>
<polygon fill="#63b8ff" stroke="#63b8ff" points="140.26,-54.06 129.74,-55.39 138.79,-60.91 140.26,-54.06"/>
</a>
</g>
</g>
<!-- Node5 -->
<g id="Node000005" class="node">
<title>Node5</title>
<g id="a_Node000005"><a xlink:href="classcom_1_1ringcentral_1_1video_1_1_rcv_video_canvas.html" target="_top" xlink:title=" ">
<polygon fill="white" stroke="#666666" points="412.62,-56.25 224.12,-56.25 224.12,-37 412.62,-37 412.62,-56.25"/>
<text text-anchor="middle" x="318.38" y="-42.75" font-family="Helvetica,sans-Serif" font-size="10.00">com.ringcentral.video.RcvVideoCanvas</text>
</a>
</g>
</g>
<!-- Node0&#45;&gt;Node5 -->
<g id="edge5_Node000000_Node000005" class="edge">
<title>Node0&#45;&gt;Node5</title>
<g id="a_edge5_Node000000_Node000005"><a xlink:title=" ">
<path fill="none" stroke="#63b8ff" d="M139.61,-46.62C164.59,-46.62 195.08,-46.62 223.71,-46.62"/>
<polygon fill="#63b8ff" stroke="#63b8ff" points="139.91,-43.13 129.91,-46.62 139.91,-50.13 139.91,-43.13"/>
</a>
</g>
</g>
<!-- Node2 -->
<g id="Node000002" class="node">
<title>Node2</title>
<g id="a_Node000002"><a xlink:title=" ">
<polygon fill="#e0e0e0" stroke="#999999" points="143.5,-130.25 27,-130.25 27,-111 143.5,-111 143.5,-130.25"/>
<text text-anchor="middle" x="85.25" y="-116.75" font-family="Helvetica,sans-Serif" font-size="10.00">SurfaceTextureListener</text>
</a>
</g>
</g>
<!-- Node2&#45;&gt;Node1 -->
<g id="edge6_Node000002_Node000001" class="edge">
<title>Node2&#45;&gt;Node1</title>
<g id="a_edge6_Node000002_Node000001"><a xlink:title=" ">
<path fill="none" stroke="#63b8ff" d="M154.93,-114.98C171.13,-113.65 188.8,-112.19 206.34,-110.75"/>
<polygon fill="#63b8ff" stroke="#63b8ff" points="154.66,-111.57 144.98,-115.88 155.23,-118.55 154.66,-111.57"/>
</a>
</g>
</g>
<!-- Node3 -->
<g id="Node000003" class="node">
<title>Node3</title>
<g id="a_Node000003"><a xlink:title=" ">
<polygon fill="#e0e0e0" stroke="#999999" points="120.25,-167.25 50.25,-167.25 50.25,-148 120.25,-148 120.25,-167.25"/>
<text text-anchor="middle" x="85.25" y="-153.75" font-family="Helvetica,sans-Serif" font-size="10.00">TextureView</text>
</a>
</g>
</g>
<!-- Node3&#45;&gt;Node1 -->
<g id="edge7_Node000003_Node000001" class="edge">
<title>Node3&#45;&gt;Node1</title>
<g id="a_edge7_Node000003_Node000001"><a xlink:title=" ">
<path fill="none" stroke="#63b8ff" d="M130.81,-148.48C143.64,-145.74 157.65,-142.66 170.5,-139.62 207.93,-130.79 250.43,-119.67 280.06,-111.75"/>
<polygon fill="#63b8ff" stroke="#63b8ff" points="130.41,-145.19 121.35,-150.69 131.86,-152.04 130.41,-145.19"/>
</a>
</g>
</g>
<!-- Node6 -->
<g id="Node000006" class="node">
<title>Node6</title>
<g id="a_Node000006"><a xlink:href="classcom_1_1ringcentral_1_1video_1_1_video_canvas.html" target="_top" xlink:title=" ">
<polygon fill="white" stroke="#666666" points="170.5,-19.25 0,-19.25 0,0 170.5,0 170.5,-19.25"/>
<text text-anchor="middle" x="85.25" y="-5.75" font-family="Helvetica,sans-Serif" font-size="10.00">com.ringcentral.video.VideoCanvas</text>
</a>
</g>
</g>
<!-- Node6&#45;&gt;Node5 -->
<g id="edge8_Node000006_Node000005" class="edge">
<title>Node6&#45;&gt;Node5</title>
<g id="a_edge8_Node000006_Node000005"><a xlink:title=" ">
<path fill="none" stroke="#63b8ff" d="M159.94,-21.42C190.31,-26.28 225.13,-31.86 254.3,-36.53"/>
<polygon fill="#63b8ff" stroke="#63b8ff" points="160.83,-17.86 150.41,-19.74 159.73,-24.77 160.83,-17.86"/>
</a>
</g>
</g>
<!-- Node4 -->
<g id="Node000004" class="node">
<title>Node4</title>
<g id="a_Node000004"><a xlink:title=" ">
<polygon fill="#e0e0e0" stroke="#999999" points="115.38,-93.25 55.12,-93.25 55.12,-74 115.38,-74 115.38,-93.25"/>
<text text-anchor="middle" x="85.25" y="-79.75" font-family="Helvetica,sans-Serif" font-size="10.00">VideoSink</text>
</a>
</g>
</g>
<!-- Node4&#45;&gt;Node1 -->
<g id="edge9_Node000004_Node000001" class="edge">
<title>Node4&#45;&gt;Node1</title>
<g id="a_edge9_Node000004_Node000001"><a xlink:title=" ">
<path fill="none" stroke="#63b8ff" d="M126.22,-86.74C148.54,-88.48 177.54,-90.74 206.19,-92.97"/>
<polygon fill="#63b8ff" stroke="#63b8ff" points="126.76,-83.19 116.52,-85.9 126.22,-90.17 126.76,-83.19"/>
</a>
</g>
</g>
<!-- Node4&#45;&gt;Node5 -->
<g id="edge10_Node000004_Node000005" class="edge">
<title>Node4&#45;&gt;Node5</title>
<g id="a_edge10_Node000004_Node000005"><a xlink:title=" ">
<path fill="none" stroke="#63b8ff" d="M126.36,-77.2C161.64,-71.56 213.59,-63.24 254.41,-56.7"/>
<polygon fill="#63b8ff" stroke="#63b8ff" points="125.84,-73.9 116.52,-78.94 126.95,-80.81 125.84,-73.9"/>
</a>
</g>
</g>
</g>
</svg>
