<?xml version="1.0" encoding="UTF-8" standalone="no"?>
<!DOCTYPE svg PUBLIC "-//W3C//DTD SVG 1.1//EN"
 "http://www.w3.org/Graphics/SVG/1.1/DTD/svg11.dtd">
<!-- Generated by graphviz version 8.0.5 (20230430.1635)
 -->
<!-- Title: Graphical Class Hierarchy Pages: 1 -->
<svg width="438pt" height="175pt"
 viewBox="0.00 0.00 438.25 175.25" xmlns="http://www.w3.org/2000/svg" xmlns:xlink="http://www.w3.org/1999/xlink">
<g id="graph0" class="graph" transform="scale(1 1) rotate(0) translate(4 171.25)">
<title>Graphical Class Hierarchy</title>
<!-- Node0 -->
<g id="Node000000" class="node">
<title>Node0</title>
<g id="a_Node000000"><a xlink:href="classcom_1_1ringcentral_1_1video_1_1_video_canvas.html" target="_top" xlink:title=" ">
<polygon fill="white" stroke="#666666" points="170.5,-167.25 0,-167.25 0,-148 170.5,-148 170.5,-167.25"/>
<text text-anchor="middle" x="85.25" y="-153.75" font-family="Helvetica,sans-Serif" font-size="10.00">com.ringcentral.video.VideoCanvas</text>
</a>
</g>
</g>
<!-- Node1 -->
<g id="Node000001" class="node">
<title>Node1</title>
<g id="a_Node000001"><a xlink:href="classcom_1_1ringcentral_1_1video_1_1_rcv_video_canvas.html" target="_top" xlink:title=" ">
<polygon fill="white" stroke="#666666" points="412.62,-130.25 224.12,-130.25 224.12,-111 412.62,-111 412.62,-130.25"/>
<text text-anchor="middle" x="318.38" y="-116.75" font-family="Helvetica,sans-Serif" font-size="10.00">com.ringcentral.video.RcvVideoCanvas</text>
</a>
</g>
</g>
<!-- Node0&#45;&gt;Node1 -->
<g id="edge1_Node000000_Node000001" class="edge">
<title>Node0&#45;&gt;Node1</title>
<g id="a_edge1_Node000000_Node000001"><a xlink:title=" ">
<path fill="none" stroke="#63b8ff" d="M159.94,-145.83C190.31,-140.97 225.13,-135.39 254.3,-130.72"/>
<polygon fill="#63b8ff" stroke="#63b8ff" points="159.73,-142.48 150.41,-147.51 160.83,-149.39 159.73,-142.48"/>
</a>
</g>
</g>
<!-- Node2 -->
<g id="Node000002" class="node">
<title>Node2</title>
<g id="a_Node000002"><a xlink:title=" ">
<polygon fill="#e0e0e0" stroke="#999999" points="128.5,-93.25 42,-93.25 42,-74 128.5,-74 128.5,-93.25"/>
<text text-anchor="middle" x="85.25" y="-79.75" font-family="Helvetica,sans-Serif" font-size="10.00">RendererEvents</text>
</a>
</g>
</g>
<!-- Node2&#45;&gt;Node1 -->
<g id="edge3_Node000002_Node000001" class="edge">
<title>Node2&#45;&gt;Node1</title>
<g id="a_edge3_Node000002_Node000001"><a xlink:title=" ">
<path fill="none" stroke="#63b8ff" d="M139.64,-92.17C173.89,-97.65 218.5,-104.8 254.47,-110.55"/>
<polygon fill="#63b8ff" stroke="#63b8ff" points="140.34,-88.58 129.91,-90.45 139.23,-95.49 140.34,-88.58"/>
</a>
</g>
</g>
<!-- Node3 -->
<g id="Node000003" class="node">
<title>Node3</title>
<g id="a_Node000003"><a xlink:href="classcom_1_1ringcentral_1_1video_1_1_rcv_texture_view_renderer.html" target="_top" xlink:title=" ">
<polygon fill="white" stroke="#666666" points="430.25,-75.25 206.5,-75.25 206.5,-56 430.25,-56 430.25,-75.25"/>
<text text-anchor="middle" x="318.38" y="-61.75" font-family="Helvetica,sans-Serif" font-size="10.00">com.ringcentral.video.RcvTextureViewRenderer</text>
</a>
</g>
</g>
<!-- Node2&#45;&gt;Node3 -->
<g id="edge2_Node000002_Node000003" class="edge">
<title>Node2&#45;&gt;Node3</title>
<g id="a_edge2_Node000002_Node000003"><a xlink:title=" ">
<path fill="none" stroke="#63b8ff" d="M139.87,-79.45C159.73,-77.9 183.05,-76.09 206.14,-74.29"/>
<polygon fill="#63b8ff" stroke="#63b8ff" points="139.61,-76.04 129.91,-80.3 140.15,-83.02 139.61,-76.04"/>
</a>
</g>
</g>
<!-- Node4 -->
<g id="Node000004" class="node">
<title>Node4</title>
<g id="a_Node000004"><a xlink:title=" ">
<polygon fill="#e0e0e0" stroke="#999999" points="143.5,-19.25 27,-19.25 27,0 143.5,0 143.5,-19.25"/>
<text text-anchor="middle" x="85.25" y="-5.75" font-family="Helvetica,sans-Serif" font-size="10.00">SurfaceTextureListener</text>
</a>
</g>
</g>
<!-- Node4&#45;&gt;Node3 -->
<g id="edge4_Node000004_Node000003" class="edge">
<title>Node4&#45;&gt;Node3</title>
<g id="a_edge4_Node000004_Node000003"><a xlink:title=" ">
<path fill="none" stroke="#63b8ff" d="M146.05,-22.07C154.27,-23.88 162.61,-25.76 170.5,-27.62 207.93,-36.46 250.43,-47.58 280.06,-55.5"/>
<polygon fill="#63b8ff" stroke="#63b8ff" points="146.85,-18.45 136.33,-19.74 145.36,-25.29 146.85,-18.45"/>
</a>
</g>
</g>
<!-- Node5 -->
<g id="Node000005" class="node">
<title>Node5</title>
<g id="a_Node000005"><a xlink:title=" ">
<polygon fill="#e0e0e0" stroke="#999999" points="120.25,-56.25 50.25,-56.25 50.25,-37 120.25,-37 120.25,-56.25"/>
<text text-anchor="middle" x="85.25" y="-42.75" font-family="Helvetica,sans-Serif" font-size="10.00">TextureView</text>
</a>
</g>
</g>
<!-- Node5&#45;&gt;Node3 -->
<g id="edge5_Node000005_Node000003" class="edge">
<title>Node5&#45;&gt;Node3</title>
<g id="a_edge5_Node000005_Node000003"><a xlink:title=" ">
<path fill="none" stroke="#63b8ff" d="M131.33,-50.33C152.83,-52.1 179.58,-54.3 206.04,-56.47"/>
<polygon fill="#63b8ff" stroke="#63b8ff" points="131.86,-46.78 121.6,-49.45 131.28,-53.76 131.86,-46.78"/>
</a>
</g>
</g>
<!-- Node6 -->
<g id="Node000006" class="node">
<title>Node6</title>
<g id="a_Node000006"><a xlink:title=" ">
<polygon fill="#e0e0e0" stroke="#999999" points="115.38,-130.25 55.12,-130.25 55.12,-111 115.38,-111 115.38,-130.25"/>
<text text-anchor="middle" x="85.25" y="-116.75" font-family="Helvetica,sans-Serif" font-size="10.00">VideoSink</text>
</a>
</g>
</g>
<!-- Node6&#45;&gt;Node1 -->
<g id="edge7_Node000006_Node000001" class="edge">
<title>Node6&#45;&gt;Node1</title>
<g id="a_edge7_Node000006_Node000001"><a xlink:title=" ">
<path fill="none" stroke="#63b8ff" d="M126.41,-120.62C153.28,-120.62 189.8,-120.62 223.71,-120.62"/>
<polygon fill="#63b8ff" stroke="#63b8ff" points="126.52,-117.13 116.52,-120.62 126.52,-124.13 126.52,-117.13"/>
</a>
</g>
</g>
<!-- Node6&#45;&gt;Node3 -->
<g id="edge6_Node000006_Node000003" class="edge">
<title>Node6&#45;&gt;Node3</title>
<g id="a_edge6_Node000006_Node000003"><a xlink:title=" ">
<path fill="none" stroke="#63b8ff" d="M125.91,-112.46C140.02,-109.48 155.99,-106 170.5,-102.62 207.38,-94.04 249.24,-83.41 278.81,-75.75"/>
<polygon fill="#63b8ff" stroke="#63b8ff" points="125.62,-109.16 116.55,-114.64 127.06,-116.01 125.62,-109.16"/>
</a>
</g>
</g>
</g>
</svg>
