<?xml version="1.0" encoding="UTF-8" standalone="no"?>
<!DOCTYPE svg PUBLIC "-//W3C//DTD SVG 1.1//EN"
 "http://www.w3.org/Graphics/SVG/1.1/DTD/svg11.dtd">
<!-- Generated by graphviz version 8.0.1 (20230327.1645)
 -->
<!-- Title: Graphical Class Hierarchy Pages: 1 -->
<svg width="439pt" height="175pt"
 viewBox="0.00 0.00 439.00 175.00" xmlns="http://www.w3.org/2000/svg" xmlns:xlink="http://www.w3.org/1999/xlink">
<g id="graph0" class="graph" transform="scale(1 1) rotate(0) translate(4 171)">
<title>Graphical Class Hierarchy</title>
<!-- Node0 -->
<g id="node1" class="node">
<title>Node0</title>
<g id="a_node1"><a xlink:href="classcom_1_1ringcentral_1_1video_1_1_video_canvas.html" target="_top" xlink:title=" ">
<polygon fill="white" stroke="#666666" points="171,-167 0,-167 0,-148 171,-148 171,-167"/>
<text text-anchor="middle" x="85.5" y="-155" font-family="Helvetica,sans-Serif" font-size="10.00">com.ringcentral.video.VideoCanvas</text>
</a>
</g>
</g>
<!-- Node1 -->
<g id="node2" class="node">
<title>Node1</title>
<g id="a_node2"><a xlink:href="classcom_1_1ringcentral_1_1video_1_1_rcv_video_canvas.html" target="_top" xlink:title=" ">
<polygon fill="white" stroke="#666666" points="413.5,-130 224.5,-130 224.5,-111 413.5,-111 413.5,-130"/>
<text text-anchor="middle" x="319" y="-118" font-family="Helvetica,sans-Serif" font-size="10.00">com.ringcentral.video.RcvVideoCanvas</text>
</a>
</g>
</g>
<!-- Node0&#45;&gt;Node1 -->
<g id="edge1" class="edge">
<title>Node0&#45;&gt;Node1</title>
<path fill="none" stroke="#63b8ff" d="M159.54,-145.83C190.39,-140.9 225.94,-135.21 255.55,-130.48"/>
<polygon fill="#63b8ff" stroke="#63b8ff" points="159.16,-142.5 149.84,-147.54 160.27,-149.41 159.16,-142.5"/>
</g>
<!-- Node2 -->
<g id="node3" class="node">
<title>Node2</title>
<g id="a_node3"><a xlink:title=" ">
<polygon fill="#e0e0e0" stroke="#999999" points="129,-93 42,-93 42,-74 129,-74 129,-93"/>
<text text-anchor="middle" x="85.5" y="-81" font-family="Helvetica,sans-Serif" font-size="10.00">RendererEvents</text>
</a>
</g>
</g>
<!-- Node2&#45;&gt;Node1 -->
<g id="edge3" class="edge">
<title>Node2&#45;&gt;Node1</title>
<path fill="none" stroke="#63b8ff" d="M140.02,-92.05C174.46,-97.56 219.35,-104.73 255.43,-110.5"/>
<polygon fill="#63b8ff" stroke="#63b8ff" points="140.66,-88.45 130.23,-90.33 139.55,-95.36 140.66,-88.45"/>
</g>
<!-- Node3 -->
<g id="node4" class="node">
<title>Node3</title>
<g id="a_node4"><a xlink:href="classcom_1_1ringcentral_1_1video_1_1_rcv_texture_view_renderer.html" target="_top" xlink:title=" ">
<polygon fill="white" stroke="#666666" points="431,-75 207,-75 207,-56 431,-56 431,-75"/>
<text text-anchor="middle" x="319" y="-63" font-family="Helvetica,sans-Serif" font-size="10.00">com.ringcentral.video.RcvTextureViewRenderer</text>
</a>
</g>
</g>
<!-- Node2&#45;&gt;Node3 -->
<g id="edge2" class="edge">
<title>Node2&#45;&gt;Node3</title>
<path fill="none" stroke="#63b8ff" d="M139.93,-79.35C159.88,-77.79 183.35,-75.97 206.59,-74.16"/>
<polygon fill="#63b8ff" stroke="#63b8ff" points="139.93,-75.91 130.23,-80.18 140.47,-82.89 139.93,-75.91"/>
</g>
<!-- Node4 -->
<g id="node5" class="node">
<title>Node4</title>
<g id="a_node5"><a xlink:title=" ">
<polygon fill="#e0e0e0" stroke="#999999" points="144,-19 27,-19 27,0 144,0 144,-19"/>
<text text-anchor="middle" x="85.5" y="-7" font-family="Helvetica,sans-Serif" font-size="10.00">SurfaceTextureListener</text>
</a>
</g>
</g>
<!-- Node4&#45;&gt;Node3 -->
<g id="edge4" class="edge">
<title>Node4&#45;&gt;Node3</title>
<path fill="none" stroke="#63b8ff" d="M145.55,-21.74C154.1,-23.61 162.79,-25.56 171,-27.5 208.72,-36.39 251.59,-47.6 281.26,-55.53"/>
<polygon fill="#63b8ff" stroke="#63b8ff" points="146.35,-18.12 135.84,-19.42 144.87,-24.96 146.35,-18.12"/>
</g>
<!-- Node5 -->
<g id="node6" class="node">
<title>Node5</title>
<g id="a_node6"><a xlink:title=" ">
<polygon fill="#e0e0e0" stroke="#999999" points="121,-56 50,-56 50,-37 121,-37 121,-56"/>
<text text-anchor="middle" x="85.5" y="-44" font-family="Helvetica,sans-Serif" font-size="10.00">TextureView</text>
</a>
</g>
</g>
<!-- Node5&#45;&gt;Node3 -->
<g id="edge5" class="edge">
<title>Node5&#45;&gt;Node3</title>
<path fill="none" stroke="#63b8ff" d="M132.15,-50.25C153.64,-52.01 180.31,-54.2 206.67,-56.36"/>
<polygon fill="#63b8ff" stroke="#63b8ff" points="132.66,-46.69 122.41,-49.37 132.09,-53.67 132.66,-46.69"/>
</g>
<!-- Node6 -->
<g id="node7" class="node">
<title>Node6</title>
<g id="a_node7"><a xlink:title=" ">
<polygon fill="#e0e0e0" stroke="#999999" points="116,-130 55,-130 55,-111 116,-111 116,-130"/>
<text text-anchor="middle" x="85.5" y="-118" font-family="Helvetica,sans-Serif" font-size="10.00">VideoSink</text>
</a>
</g>
</g>
<!-- Node6&#45;&gt;Node1 -->
<g id="edge7" class="edge">
<title>Node6&#45;&gt;Node1</title>
<path fill="none" stroke="#63b8ff" d="M127.18,-120.5C154.01,-120.5 190.3,-120.5 224.04,-120.5"/>
<polygon fill="#63b8ff" stroke="#63b8ff" points="127.29,-117 117.29,-120.5 127.29,-124 127.29,-117"/>
</g>
<!-- Node6&#45;&gt;Node3 -->
<g id="edge6" class="edge">
<title>Node6&#45;&gt;Node3</title>
<path fill="none" stroke="#63b8ff" d="M127.04,-112.18C140.99,-109.23 156.7,-105.82 171,-102.5 208.17,-93.87 250.39,-83.14 280.02,-75.47"/>
<polygon fill="#63b8ff" stroke="#63b8ff" points="126.35,-108.96 117.28,-114.43 127.79,-115.81 126.35,-108.96"/>
</g>
</g>
</svg>
