<?xml version="1.0" encoding="UTF-8" standalone="no"?>
<!DOCTYPE svg PUBLIC "-//W3C//DTD SVG 1.1//EN"
 "http://www.w3.org/Graphics/SVG/1.1/DTD/svg11.dtd">
<!-- Generated by graphviz version 8.1.0 (20230707.0739)
 -->
<!-- Title: Graphical Class Hierarchy Pages: 1 -->
<svg width="307pt" height="64pt"
 viewBox="0.00 0.00 307.00 64.25" xmlns="http://www.w3.org/2000/svg" xmlns:xlink="http://www.w3.org/1999/xlink">
<g id="graph0" class="graph" transform="scale(1 1) rotate(0) translate(4 60.25)">
<title>Graphical Class Hierarchy</title>
<!-- Node0 -->
<g id="Node000000" class="node">
<title>Node0</title>
<g id="a_Node000000"><a xlink:title=" ">
<polygon fill="#e0e0e0" stroke="#999999" points="86.5,-56.25 0,-56.25 0,-37 86.5,-37 86.5,-56.25"/>
<text text-anchor="middle" x="43.25" y="-42.75" font-family="Helvetica,sans-Serif" font-size="10.00">ReleasableView</text>
</a>
</g>
</g>
<!-- Node1 -->
<g id="Node000001" class="node">
<title>Node1</title>
<g id="a_Node000001"><a xlink:href="classcom_1_1ringcentral_1_1video_1_1_rcv_video_view.html" target="_top" xlink:title=" ">
<polygon fill="white" stroke="#666666" points="299,-37.25 122.5,-37.25 122.5,-18 299,-18 299,-37.25"/>
<text text-anchor="middle" x="210.75" y="-23.75" font-family="Helvetica,sans-Serif" font-size="10.00">com.ringcentral.video.RcvVideoView</text>
</a>
</g>
</g>
<!-- Node0&#45;&gt;Node1 -->
<g id="edge9_Node000000_Node000001" class="edge">
<title>Node0&#45;&gt;Node1</title>
<g id="a_edge9_Node000000_Node000001"><a xlink:title=" ">
<path fill="none" stroke="#63b8ff" d="M97.7,-40.49C105.59,-39.58 113.87,-38.63 122.23,-37.67"/>
<polygon fill="#63b8ff" stroke="#63b8ff" points="97.41,-37.11 87.87,-41.73 98.2,-44.07 97.41,-37.11"/>
</a>
</g>
</g>
<!-- Node2 -->
<g id="Node000002" class="node">
<title>Node2</title>
<g id="a_Node000002"><a xlink:title=" ">
<polygon fill="#e0e0e0" stroke="#999999" points="79.75,-19.25 6.75,-19.25 6.75,0 79.75,0 79.75,-19.25"/>
<text text-anchor="middle" x="43.25" y="-5.75" font-family="Helvetica,sans-Serif" font-size="10.00">FrameLayout</text>
</a>
</g>
</g>
<!-- Node2&#45;&gt;Node1 -->
<g id="edge10_Node000002_Node000001" class="edge">
<title>Node2&#45;&gt;Node1</title>
<g id="a_edge10_Node000002_Node000001"><a xlink:title=" ">
<path fill="none" stroke="#63b8ff" d="M90.9,-14.7C100.76,-15.77 111.47,-16.94 122.3,-18.11"/>
<polygon fill="#63b8ff" stroke="#63b8ff" points="91.48,-11.13 81.16,-13.53 90.72,-18.09 91.48,-11.13"/>
</a>
</g>
</g>
</g>
</svg>
