<?xml version="1.0" encoding="UTF-8" standalone="no"?>
<!DOCTYPE svg PUBLIC "-//W3C//DTD SVG 1.1//EN"
 "http://www.w3.org/Graphics/SVG/1.1/DTD/svg11.dtd">
<!-- Generated by graphviz version 8.1.0 (20230707.0739)
 -->
<!-- Title: Graphical Class Hierarchy Pages: 1 -->
<svg width="307pt" height="64pt"
 viewBox="0.00 0.00 307.00 64.25" xmlns="http://www.w3.org/2000/svg" xmlns:xlink="http://www.w3.org/1999/xlink">
<g id="graph0" class="graph" transform="scale(1 1) rotate(0) translate(4 60.25)">
<title>Graphical Class Hierarchy</title>
<!-- Node0 -->
<g id="Node000000" class="node">
<title>Node0</title>
<g id="a_Node000000"><a xlink:title=" ">
<polygon fill="#e0e0e0" stroke="#999999" points="79.75,-56.25 6.75,-56.25 6.75,-37 79.75,-37 79.75,-56.25"/>
<text text-anchor="middle" x="43.25" y="-42.75" font-family="Helvetica,sans-Serif" font-size="10.00">FrameLayout</text>
</a>
</g>
</g>
<!-- Node1 -->
<g id="Node000001" class="node">
<title>Node1</title>
<g id="a_Node000001"><a xlink:href="classcom_1_1ringcentral_1_1video_1_1_rcv_video_view.html" target="_top" xlink:title=" ">
<polygon fill="white" stroke="#666666" points="299,-37.25 122.5,-37.25 122.5,-18 299,-18 299,-37.25"/>
<text text-anchor="middle" x="210.75" y="-23.75" font-family="Helvetica,sans-Serif" font-size="10.00">com.ringcentral.video.RcvVideoView</text>
</a>
</g>
</g>
<!-- Node0&#45;&gt;Node1 -->
<g id="edge1_Node000000_Node000001" class="edge">
<title>Node0&#45;&gt;Node1</title>
<g id="a_edge1_Node000000_Node000001"><a xlink:title=" ">
<path fill="none" stroke="#63b8ff" d="M90.9,-41.27C100.76,-40.14 111.47,-38.91 122.3,-37.66"/>
<polygon fill="#63b8ff" stroke="#63b8ff" points="90.7,-37.88 81.16,-42.5 91.5,-44.84 90.7,-37.88"/>
</a>
</g>
</g>
<!-- Node2 -->
<g id="Node000002" class="node">
<title>Node2</title>
<g id="a_Node000002"><a xlink:title=" ">
<polygon fill="#e0e0e0" stroke="#999999" points="86.5,-19.25 0,-19.25 0,0 86.5,0 86.5,-19.25"/>
<text text-anchor="middle" x="43.25" y="-5.75" font-family="Helvetica,sans-Serif" font-size="10.00">ReleasableView</text>
</a>
</g>
</g>
<!-- Node2&#45;&gt;Node1 -->
<g id="edge2_Node000002_Node000001" class="edge">
<title>Node2&#45;&gt;Node1</title>
<g id="a_edge2_Node000002_Node000001"><a xlink:title=" ">
<path fill="none" stroke="#63b8ff" d="M97.7,-15.44C105.59,-16.3 113.87,-17.2 122.23,-18.11"/>
<polygon fill="#63b8ff" stroke="#63b8ff" points="98.19,-11.86 87.87,-14.26 97.43,-18.82 98.19,-11.86"/>
</a>
</g>
</g>
</g>
</svg>
